<mxfile host="app.diagrams.net" agent="Mozilla/5.0 (X11; Linux x86_64) AppleWebKit/537.36 (KHTML, like Gecko) Chrome/140.0.0.0 Safari/537.36" version="28.1.2" pages="3">
  <diagram name="Page-1" id="PC0sgVQEAQeyv-HIJccS">
    <mxGraphModel dx="567" dy="551" grid="1" gridSize="10" guides="1" tooltips="1" connect="1" arrows="1" fold="1" page="1" pageScale="1" pageWidth="850" pageHeight="1100" math="0" shadow="0">
      <root>
        <mxCell id="0" />
        <mxCell id="1" parent="0" />
        <mxCell id="XUYExaWCkDun1sldvAOi-3" value="" style="rounded=0;whiteSpace=wrap;html=1;dashed=1;strokeColor=light-dark(#3CD2D8,#EDEDED);strokeWidth=2;" parent="1" vertex="1">
          <mxGeometry x="220" y="200" width="400" height="320" as="geometry" />
        </mxCell>
        <mxCell id="XUYExaWCkDun1sldvAOi-98" style="edgeStyle=orthogonalEdgeStyle;rounded=0;orthogonalLoop=1;jettySize=auto;html=1;exitX=1;exitY=0.5;exitDx=0;exitDy=0;entryX=0;entryY=0.5;entryDx=0;entryDy=0;strokeColor=light-dark(#3CD2D8,#EDEDED);" parent="1" source="XUYExaWCkDun1sldvAOi-23" target="XUYExaWCkDun1sldvAOi-95" edge="1">
          <mxGeometry relative="1" as="geometry" />
        </mxCell>
        <mxCell id="XUYExaWCkDun1sldvAOi-23" value="" style="shape=image;verticalLabelPosition=bottom;labelBackgroundColor=default;verticalAlign=top;aspect=fixed;imageAspect=0;image=data:image/png,iVBORw0KGgoAAAANSUhEUgAAAK4AAACoCAIAAAD2N0KkAAAACXBIWXMAAA7EAAAOxAGVKw4bAAAcaElEQVR4nO2daXhUZZqw76qklqyQhYQmJIQIAcImggv2p+PYSl8XatvYOiQQ2bOiY6PMiEJDSEJCg9rTjmKLc3U739gz2HbbfmhLO8oSdgigqICyJiEhqez7Vqk634/zVpbaUomRqorn/pWcU+fUW3XuOu/2PO9RSZKEggKo3V0ABU9BUUFBoKigIFBUUBAoKigIFBUUBIoKCgJFBQWBr7sLYI3ZbK6rqzMajSEhITqdzt3F+QHhWSo0Nja+8847e/fubWtrmzx58ooVK6ZNm+buQv1QUHnOwLPRaPz973+/Y8cOs9ksb5k4ceIbb7wRGRnp3oL9QPCgtkJDQ8OePXu6PQCuXLny+eefu7FIQ44kSa2tra2trZ7zC+zGgyqIpqamurq63lvMZvP169fdVZ4hp6Gh4f333z906BBw3333LViwICgoyN2F6sGDVJAkqfctYZhRVVW1ZcuWvXv3yv8WFhZevXr1xRdf1Gq17i1YNx5UQQxjqqqqcnJyuj2Q2b17d2lpqbuKZIuiwvdOdXV1Tk7O/v37rbYbjcbKykq3FMkuHlRBDEvq6urWr19/9OhR213BwcExMTE3v0iOUFRwhtFo/Oqrr0pLS+Pi4hISEtTqgd1Ea2pqNmzYYNcDID093aP6yYoKDikrK3vllVcOHDjQ1dWl0+kefvjhtWvX+vv7u3i4wWDIzc09cuSI7S6NRrNkyZKFCxf6+PgMaZG/E0pbwT5FRUUbNmz49NNPOzs7zWZzW1vb7t279+zZ4+LhZWVlOTk5Bw8etB0/0Gg0K1asyMjI8Jy+g4yigh3Kyso2b958+vTp3heyo6Pj1KlTrhxuMBjy8vIOHTpkt2+8atWqlJQUD5xeUSoIa8rKyjZu3GjlgYyfn1+/h1dUVGzZsuXw4cO2HqjVatkDjUYzZMUdOhQV+lBUVJSTk1NYWGjrQVhY2Lx585wfXlpaun379oMHD9p6oNPpkpOT09LSPNMDFBV6U1xcbFsvyAQFBa1cuXLOnDlODi8tLf31r39tt17Q6/XJycnp6eme1j7ojaKCoKSkJCsry25rIDg4OC0tbeHChb6+Dr+usrIy2QOTyWS1y8/Pb/HixWlpaR7YPuiNogJARUXFpk2b7HoQFBSUlpaWmJjo5Ad948aN/Px8u/cD2YPU1FS9Xj/EhR5qFBUwmUw7d+6060FgYGB6erpzDyoqKhz1F+R6ISUlxZX2pttRVKCjo8N2ggAIDAxMTU1NSkpy0tCT+412xw/0en1SUpJX3A9kFBVQqVSdnZ1WGwMCAlJTU5OTk514UFlZmZube+DAAdtdsgeZmZne4gHKEBOg0WjuvPPO3lsCAgLS0tIG7YGfn5/XeYByVwB8fX3XrFlTXV197tw5s9kcHh6ekpKyYMEC5x5kZ2cXFBTY7pLHD7yoXuhGUQEgOjp6586dZ86caWpqSkhIiI6OdvLiqqqq3NxcRx4sWrTI8/uNdlFUEOj1+rvvvrvflzm5H2g0mqVLl6ampnqjBygqDAiDwbB582Y5TtUKjUazcuXKlJQUTx5PdI6igquUl5fn5OQMVw9QVHCR8vLy3Nzcw4cP2+7SaDSrVq1auXKlV3uAooIr3LhxIy8v7/Dhw3bjUGQPvLR90BtFhX4oKytzNL8wnDxAUcE5TuadtVrtihUrVq1a5e31QjfDWYWOjo4zZ86Ul5fHxsZOnz59oDEjNTU1+fn5R44csfXAx8fnySef9PZ2ohXDVgWDwZCfn3/48OGOjo6AgID58+evWbPG9RzFysrKnJwcu3FpOp1OHlceTh4wXOcgDAbD888/v2/fvo6ODqClpeWDDz745JNPXDy8qqpKHj9wNO+8evXqYeYBw1KFsrKydevWWcWlGY3GL774wpXDKyoqNm/efPjwYdt4JJ1Ot2TJkvT0dK+bX3CF4VZBlJaWZmdn241DcaWdX1FRkZ+f7yj+YPHixSkpKcPSA4aZCqWlpTk5OceOHbPdFRIScv/99zs/XI5DOXDggF0PFi1aNFzvBzLDR4WSkpK8vDy7CYpBQUHLly+/4447nBxuMBi2bNliN5zJ399/4cKFGRkZw9gDho0KxcXFOTk5J06csN0VGBiYkZGRmJjYb/zBwYMHbXf5+/snJyevWrVqeHvA8FChuLg4Ozv75MmTtrv8/f0zMzMH7YGfn58cpzrsPWAYqFBSUuLIAz8/v6eeeiopKclJ/oLzeKQlS5b8EO4HMt6tQmVlZVZWVmFhoe0utVr9y1/+0nniekNDw8aNG+3mvatUqmXLlg0iz7WxsfHkyZMtLS1z5syJiooa0LHuxYtVKCkpcZTHotVqn3322cTERCeLYxgMhuzsbEfrH6xatWoQ8wv79+9/6aWXSkpKgBEjRqxevTopKWlAZ3Aj3jrEVFFRsXHjRrseqFSqtWvXLlq0yIkHNTU1mzZtsts+AFJSUgbhwcGDB7OysmQPgIaGhjfeeOP8+fMDOokb8UoVysvLX3jhhdOnT9vu8vX1XbduXWJiokqlcnR4dXX1r371K7v3AyAzM3PFihUD9aCgoGDTpk21tbW9NzY2NhYVFQ3oPG7E+yqIioqK9evX2/VAo9HI9YITDyorK+VxZbt7ZQ8G2j4oKCjIysqqrq622q5Wq70iRU7G+1R48803T506ZTsgqNPpnnnmmaSkJOftAzk+0e66upmZmYOISysoKNi8ebOtB8DEiRNnzJgxoLO5ES9Toba29ujRo3bXQ3n66aeTkpKc9Bfk9VDseqBSqdLT0wftQVVVle2u2NjYdevWhYWFDeiEbsTLVDCbzbYTx8HBwSkpKYmJiU7GD5ysh6LX6+U4lIHGtuzdu3fLli12PZg4ceKLL744a9asAZ3QvXhZszE0NPT222/vXQXIea6LFy92Pp64devWgoICux7I62AMyANJko4dO+bofjB+/PgNGzbMnj3b9RN6Al52V1Cr1RkZGQ0NDcePHzcajREREatWrXrsscecXMiampqsrKyjR4/axh/4+vrK6yMNqJ0oSVJhYeG6deus1qmXiY6Ozs7OnjlzppOmq2fiZSoA0dHRW7duvXTpUmtra1RU1Lhx45y0E6urq7OysuzGJ+r1+oULF6anpw/IA7PZfOLEifXr11v1G2ViY2M3bdp06623un5Cz8H7VACCgoJuu+22fl9WXl4utxNtPZDnGwc6rmw2m/fv3++ofTBhwoSNGzd6qQd4qQqu0J3PZNeDJ598cuXKlQOaZ5I9yMvLs+vBLbfcInvgdfVCN8NTBXn8wG4+U7cHAxr86fbA7rL9cXFxmzdvnjFjhvd6wLBUQR5PtJvnKnsw0Hln5x6MHz8+Nzd32rRpXu0Bw08FOf7Argd+fn6D8+DAgQOO2gcxMTH5+flTp04dfIk9hmGlgpM4FL1ev3Tp0oG2DyRJctJOjI6O3r59e0JCwuBL7EkMHxWcxyMtX758EHmu+/bty83NtTu/MHbs2JdffnnKlCmDLK7nMUxUkONQ7MYfaLXalStXDmJ+Ye/evY48iI6OfuWVVyZPnjzI4nokw0GFiooKR+0DrVabkpIyiPiDzz77LDc3t6amxnbXuHHjtm/fPsw8wOvmIGyR18WxG3+g1WpTU1MH4cGnn366ZcsWux7ExcVt27ZtONUL3Xj3XUF+fqPd8QMgNTV12bJlg4hLy8vLc1Qv5OfnD5t2ohVerIKTcSRg9erVy5cvH6gH169f37Ztm10PYmJitm7dOlw9wHtVKC0t3bZtm904FHk9lEHUC8C+ffvsPgU7Pj5+w4YN06dPH2RxvQGvVEFeRsPufKO8ru6g10NpaGiwPWdcXNyGDRu8d57JRbyv2Sivh3LkyBHb+AM5DuW7PLdv5syZVmNQ8vyCV88zuYiXqSCvh2J3HQzZg8zMzO+yXtrcuXMfe+wx+bmivr6+06ZN89I4lEHgTRVEdXX1pk2bHMWhLF68eKBxKLZotdo1a9bcd99958+fDw8Pv/vuu0eNGvVdTuhFeI0K8jqadj3w9/dfsmTJQOcXHKHX6+fOnTt37tzvfirvwjtUcPIcz6H14IeMF6hQUVHhKI9F8WAI8XQVqqurHc0vKB4MLZ6uwkcffdTY2Gi73c/Pb+nSpStWrFA8GCo8XQUnHgybdbY9BE9XwRadTrds2TLFgyHH+1QYZuutew5epsKjjz56zz33XLt2zd0FGRpCQ0PDw8M9ZCjTy1T429/+9vHHH7u7FEOGSqWaMmXK+vXrPSEWxstU6OrqcncRhpizZ89mZWW9+uqrkZGR7i2Jl01HDUu+/fbbS5cuubsUnqSCXq8PCAhwdyncgCRJRqPR3aXwJBXCwsKmTZvm7lK4gdGjR8fFxbm7FJ6kgk6ny8jImDlzprsLclMJCwvLyMhw/hTsm4PKboyoG6mpqfnqq68MBoO7C3IzCAwMnDJlSmxsrJPVQm4aHqeCgrtwv4wKHoKigoJAUUFBoKigIFBUUBAoKigIFBUUBIoKCgJFBQWBooKCQFFBQaCooCBQVFAQKCooCBQVFASKCgoCRQUFgaKCgkBRQUGgqKAgUFRQECgqKAj6SZ890Uh5J8D0AG6xeQLb+RYutgFM8meK//dRvCHG0Mmxvqu4aFUE+zLZn/CBPY96kDSZ2FsHEKdnRuDNeEfX6UeFgnqevwLwRAR/snlWVsZFDtYDfDxjyFS43Mazl/nDZMK+h2tT2MSCr+xsV8HD4bweT/QAF3IZaGmL20UBVkfxWvzA3uv7pp8KYlEkahXAR9U0911Kt6KTww0AEVoeDB2a0rxWytSTfFjNTU7TkeDDau44xfWOARzlrtJ+T/Sjwlgd944AaDOzu+9DEt6vwiwBLIzAd4iWDTlQT6f1Gp3fC8mRXL+b4rmcv5N3pzI9AKCikxUXBnCSm1bam0P/S20kj+ZAPcC7lSzqtRrEe5bHbyb32ijB32ooqKfdzEQ/Hh/FGJtb7ukmPq6hopNRGuYE81AYskj/baC4Xbxml4EQDYt7nflCK7urud5OkC9zg3koDJ9e/u2qpN3MBD9u8eP1UowSvxjFHcEOP1SAD2MtBZviz4OhTDmBoZPP6viimVsttXhxO+9Xcb0Do0SEhgdCmDtC7HJS2hON7K2jvBONimgdPwu308wCGrv4vxV800qElicirGvYJhN/quRyG41djPTljmDmh6Hp9ZHPtfBRDdfbkWCMjp+GMieozxlcuRa96T9nsqGL0UdoN6NVY/gxI30BKjsZcxSTxEQ/Lt4lXllr5Odfc6i+51h/H96a1COQUSL1G96u6HP+24P5ZCYhvow8REOvNVUCfGi+F6DNTOa31kdNDeAv05hk+frCD1Nj5OfhfNnC1TaAjCh22FTGH9XwyJcAaWP43aQ+u567zCvXAbbfwtoYgDdvsPoipr5fT8oYdk4C7JfWLLHsG/6rb1E1KnZOZtlogK9bmH4S4MFQLrRQaqmPfFT82wSeGiv+LWxk3lnq+64wc1sQ+28l2Bcgr5gNV60rpueieWmC+Lvfa2FL/53JEb48FAbQaeYDSx3xfpX4jhaP7nnlkxfEez8QwppoonW0mlh6gc+bxQs2XBVXNFZP6hjuGSk+9rILANMDGGG5SU0L6Glgp1k8GKXh5+FMCwA418IDX1Ddd4GK/1fN1TZGa/FVOfvMdpll+UmdawEoahceROtYG8PqKEJ8Ad66wdlmh6X9o0F4cGcw68axOBIfFUaJ5y5bX7ZPa2k3szqKxAjUKkwSz1zmRCOAWWLReeq78PchPYp/iRHGn2niDxUA51uEBw+G8lo8v50ovpOXr/NZnavXwhaX1mJKHs1fqgB2GYTdf7Y8jLX7rnimiY9rABIj+J+pAGujmXyCJhPbS/jvBBq6eLUUYKyOs7cLu+edZV8dl9uoMXLoNh7/WrzR/lmid3emSXy5CQEUzCJcgwT/fInXSintYGtxz+8AkGDrLTwfQ1lHPzdDW0b4iD/qugDazPxrDGebeXkCk/1FAVZfBPi2lZmB9ksbqeXpsZR2sCsBrRqgU+K9SmqNVHUS0Wt9Qa2aY7OZ4Acwt5RnLmGWeK2UOxNoMrH8R5xt5tFwIfSy0Uw9Kd4aON0kxFocydLRAI+P4tVSbg0iwSKN82thF5dUmB9KiC91XeytEz9EufVwV7D4MNDj47xQ8RqtmtuD2VfHvjqAow20mwEWRggPgF0JBPigc3xves/i3MZY8XWrID+O/7hBu5m/VvdRwUfF01EAUQNf3LO7eyT3mKb4kxcH0CXxeTPHG/gfy4oP7Y6bivNCmRcK0GzieD1HGjjVaP+oeSE9X13aGJ69jEnieCPACF9eHCd2XWnjRCN7avqcpPvAZRfYeI2fhHDfSJ6LYZSlQ9vvtbCLSypo1TwRwc4bdEn8pQoVltqh1024zFLtrfjG+nBDJ60mKjrFv72vU2h/3fGiNvHHtF6rNAX6EKvnm9aehpvMaC3+PgyOKkvxuseaDtbz0nX21dHStxetdtxdkuDtcnbeoLDJupFhdVR0r5WpdWoiNJR39tR3Re3kFvFhDZWdfY6SfzJzR5ARxRtlACXt/KGcP5TjqyI5kn+PJ9Cn/2th91tydbG+5Eh23gDYZUCjBvBVsbCXCt3t+YfCGG2z0qoZcRROf1W2BFoKbTWq0WQC8FPbf/EgOGn5+cr9jgP1PPAFJolILctG8w8jqTaSeRGcNq9yi9h4DWBaAI+Gc+9I3q3k9+V2jmrs2yRsM4Pl41QZues0hk70apIi+ceRTA9k7mno5dOOeJIjecfAnhqK2gG6JN6uwM+HHfH9Xwu7uKrC/xnJOD3F7RxsEJ/qp6E9dyRgouWu9XiEaE8Ap5sYpxe/s3jLC0419Rz121LeusHUALLHM8kf299bguVm8L+13GnpHJ5r4UYHwG19u0+DHt642sa7lQB6NY+GA+wowyShgpOzidED4orS63rYvtu/lwJM8ufz20Vh3jFYHyVzpAHJcoarbaKzEO8P8F4lhk6AtyaLjvpVy61R/ua7JK61U9vFbyeyI57idv5ey1MX6ZL4pBZcuBZ2cXU6SoVowpglumxqB+CRcPHh84tFH+l4I3ecZtRhfvE1wOwgYvUAH1TzRhmNXXzezLYSzrXwcY3o5Xc3Gr5s5kIrwMIIsfHXJfxXBY1dnGpi0XnRbsqMcrH41pxv5Xdl/K6MV0vJuMj0QnGbeXqs8LvNBCBBowmgsUvcFKFnWMm2tPINr9UkXvNtKx9VWx8lU9TOc5dpN1NtJP2i2PizcLDcIYB6I4BZ4jellpNIAP96hfjjPPIlO8oAxun5pwjRnZG7+v1eC7sMYC2mC60knBB/B/pg+LF1lbPxGjlFAFo143Rcbcck4afmwCxx1/24hp99ZV2JAv82kWfGAmy4ypbinu0t9+Lvw5s3SP/WTnmWjOY/LcvhyuMKUwP4+g5nH6F7XMEu88P4YLoYxnm9jKcuAgT5MCeYs800dImS58Xxwjj7pV16QfStonWM9+N4IyZJHHX0NuaO6BlXiNFT0o6vCpMktJ7kz5k5+PvwZTO3ncIkoVbx4xGUtnOtHbUKs8S8UD6ZSVkHd54WDYKJfoRqONciKtBdU1kYAS5cC1sGMEk9xZ9Zlr7+Y6PsND2yx/PKBEZp6DRzqQ2TxKxAPpnZ897zw/h4Rs89HxitZUe88ABIHdPTPNaoqDICpI1hz8w+Q2mjNGy/hbeHYllkXxXhGn4SwjsJfDSjZzgvYwz/PBYfFU0m9tcxTsehWURqgZ7BFdvSvh4vpmOud3ConvmhfGJZevCDvsP2G2NZG4OPSnhwfwh7bxVf6YxA/mMyI30xSxyqp93Mf07hF6MACuqp7yJKx8FZPBGBj4pLbZxopNlErJ4/JggPcOFa2DL0K7SZJS610WQiSsePHKzUX9xOZSejdURprStRCa600WRigh9BfW0zdHK9g0Af4v2cNeOHkIYurrQRomG8g0fR2C1teSdlHYzT92lL2aWxi4ttRGrtzIh2mLnchgRT/PsMsfem1URJBw1dRGpF5WuFK9eiG2WxPgWBEsWkIFBUUBAoKigIFBUUBIoKCgJFBQWBooKCwG2PEWvoYn89gEYloqR6Y5L4qEZM2DwS1v+AUneCQ3e+RkE9dV32T95NZSdHGwGmBvRM4QwUk8SHNQA/0vZMmHklkpvoMEkhByX2SeyTzjVb791XK3bdccqls31YLV7/mxKxZXahxD5pxEFnR+2pEUflFw2g5JdapUe+lKo7xb9NXeIkj345gJN4IG6rILRqHrcMmO+qtN7bHbyU7OYn7lkzzHIfeuPO50wujuStGwDvVpI9vme7WeKvVSBHx0TYP7Zf3p5Cs2nIEjS6sc198FdzbDZAqJc9s9Madxb/3pFirvZiK58390x7HmoQ0W8PhvYJDXUxv0CmqJ1qI1pVnynNui7+WME3rYzSOgyJdpKAYDf3wQzftALE6ETsiUy7mQ+qOdtMs4k4PQtG9ZkxKmlnXz3A/FA0alGqcA1PRDDVTQ9YdKcKcjjM1mKAXYYeFf5sUzvYzS94/kpPfoEtWdc43cQI355LXtjIQ1+KiW8gr5h/GmV9lPMEhMyLPbkPT18iwIfFkbSbWX4B4NFw7g8Re/fXseh8TzinXNr1sWyKFf+eaRZH/WYCW0tE2BKQU8y7U3ncpmA3ATd3Jrsv9p8szQUJ3q8CCPARsWUMJL/AEW1mHvtaeDB3BGuimeTXE20m028CgqNMDSvOtfDQl8KDuSN4OIwAH4wSWdeE97157gojffmXGP5hpCiDnK9883Fz/TY1gJmBnG2mqJ3jjdwVzJEGEbe4IJwASwSA6/kFjvhrlQjteiiM3dNRq+gwc8/nFPbKse83AcFu7oMtL1wVQWk74smIArjYyp2nqe8iu4iVY/rEMUzy49Qc/H3oNDPtJJfauNpGpWsfamhxf1MnOVLkG+0ycFdwr1TMXnd+1/MLHHHc8vqnxopRCp2aFaP7qNBvAoIrtJpEOspkf+EBEO/PU2PJLaLNzN9reLLXR+uOB9OqmRPMpTbxMQfbXB487lchKZLnr2KWeK+KlyeI31yklgdCel7jen6BI7rTHGJ6xQuNs4n8cZ6A4ArXO0QJp/Vt/XX/a5W70fvW0h3L75b8bPerEKXjvpHsq+NGB9tKRPRmYkSfKC7X8wsc0R2d3DufoqFvboUrCQj94jxxA/DrG6XXu7t7U4L0HOJ+FYDkSJHAlVVk2dK3X+B6foEjuuNRC5t6Qj2PNfR5Tb8JCLhwtUZrCdVQa+RkEw1dPc3MT2vFH7d52Lo73XjEdNQvRqGXG4NmgEn+1ksFuJ5f4IgFlu5ZXjFfNGOW2F0tBri66TcBAXu5D1b4qESGSK2RxHNcaqPWyNZi0QZKCBA9BQ/EI+4Kwb48Et7TYFxsM/jz01D+XMX1Diaf6MkvkCnrENlLzpkaQNoY3rzBjQ5mFaJV02kWA1zdPBiCjyW//U9VfRIQurMQu4eJfvIFQMu9dt4rdzz/W8u3rfy9lvjjfT7mHxNuUqz2IPCIuwJ95xpsVXA9v8AJr8fzXLSlL2oWCTC96TcBAQeZGlYE+3JyNk+N7akd1CrmhXJids96Lh6INwW/u55f4ISGLi618SOtw8T7fhMQnGRqWNFp5mo7zSbG67+XBeeGFm9SQeF7xVMqCAW3o6igIFBUUBAoKigIFBUUBIoKCgJFBQWBooKCQFFBQaCooCD4/xzSNo914xQ4AAAAAElFTkSuQmCC;" parent="1" vertex="1">
          <mxGeometry x="410.38" y="445.26" width="69.89" height="67.49" as="geometry" />
        </mxCell>
        <mxCell id="XUYExaWCkDun1sldvAOi-25" value="" style="shape=image;verticalLabelPosition=bottom;labelBackgroundColor=default;verticalAlign=top;aspect=fixed;imageAspect=0;image=data:image/png,iVBORw0KGgoAAAANSUhEUgAAAQwAAADUCAIAAADm9IoyAAAACXBIWXMAAA7EAAAOxAGVKw4bAAAgAElEQVR4nO2dd3xTVf/Hv/dmJ01X2nTvvXcpG4qUUVkCMkUQRFR8BNyijzjwkUdFf4A+ylI2svfeUCijk+6990jTJm3Wze+PpsnNbboHhdz3q38kpyfnntzczxnfc873iyiVSiAhIekY9FlXgIRkqEN91hUg0U1TkwjDMA6HTaFQnnVd9B1SJEOClpaW6ura7Oy8mHsP09OzqqqqW1okSqWSRqOamfFcXJ1GjAjz9/PhmZkaGnKfdWX1DoSckzxbxOLmjPSsS5duxMQ8zM8vxDBMZzYEQSws+CEhAbPnTPPz8+ZyDQa5nvoMKZJnhlwur6qq2b59z53b9ysrqxUKRXc+ZW7OCw0LWrVqqbOzE41GDgQGA1IkzwZRk+jK1Vt79xxOT8/qxcft7W0XLZrz8rRJPJ5pv9eNhAApkmeATCbfsWPvwQPHamvrenf/EQThcg3GR47+5JP3TU2N+72GJHhIkQw2ZWUVf/7x9/HjZ+VyOeFfDAaDzzeztOQ7ONiZmfNYTEZlZU1BQVFFRWVlZbVIJG5f2rBhIR9/8i8fH89BqbueQopkUJHJ5J99+vWNG3fF4mbCv8zMTBcumjty5DA7Oxt859DU1FRUVJqWmvn334dycvIIn6LTad7eHlu2buLzzQa89voKKZLBQyBo+P23XQcPHif0IUZGhpMnT1i0eK6Tk0NHc3EMw6qqas6cubjn78P19QKCEWzU6IjPP1/r5OSAIMgAfgF9hbJhw4ZnXQe9QCKRbN++58iRUy0tEnUigiDu7i7vrl7x5solfL4ZhdLhBggEQQwMOCEhgXZ2NtXVNZWV1fjWraKiSihsDAkJYLFYA/s19BJSJIOBXC6/f//R5p9/b2oSqRNRFLWzs/nmm8/GjBlBp9O6WZSDg11oaGB2dm5FRZW6P1EoFIWFxSwmMyDQrxOlkfQOUiSDwePHCd9993NVZTU+0cvL/d9ffRwWHtyjjScoihobG/n5eZeXVRQVlaj7E7lcnpmZbWVt4erqhKKkTvoT8m4OOEJh48kT54qLSvGJ5ua8d99dHhTk37synZ0d31+zytvbHZ9YX9+wf9+Rqqqa3teVRBekSAYWuVyxb+8/589fxS+oG5sYbfj60wkvje31knnrZObz9R84Otrj05OSUv/846/m5pY+VZpEG1IkA0t6etbZs5dkMpk6hWPAmT9/9qhREX0v3M/Pe8mSecbGRvjEGzfuxccn9b1wEjWkSAaQpqamw4eOF2kPtMLDghYseIXBoPe9fCqV8srsadHRUfjEqqrqXTv3l5aW9718klZIkQwg9+49vH07Br+mYW7Oe/udNywszPvrEkwmY9kbCx0d7fCJyclpt27e669LkJAiGSgwDDtx4lxtbb06hUajRr88qd+3kNjaWi9aPNfERDPoampqOnXqgqC+oX8vpLeQIhko4uOT7955oDbRIgji7e356qszBuKk4bRpk8eOHYm3/D59mnbhwtX228NIegEpkgFBLG4+dPAYflGcRqNNnjzBzs52IC5nZGQ4fcYUNltruf3ixWtlZRUDcTl9gxRJ/6NUKu/cjnnw4Ak+MSQkYMbMqQN0TApBkPDw4IkTx+ET09Iy79y+T3YmfYc82tYzRCJRVVWNTCYXi8XN4pYWiYTDZtHoNAMDAyqVYmRkZGTElcnkt2/fr68XqD+Foui06ZMH9OAHlUp9edqkmzfvCQQNbVUVnz9/ZfqMKYaG3IYGoUDQIJcrhEKhQoE1NTXRaDQ2i8VkMZhMpomJsZGRIbk5siNIkXSIUqkUChsFgobcnPyUlPT8gqL8vMLa2jq5XK5UAtaKUokiCIIgFAoFQQBFKQwG3djYqKioFD/W8vJyDw0NHOgK+/h4Dh8edvHiNXVKcnLaG2+8J2xoFInEGKZQKpUKBQYACgxDAEFRBEVRFEVQlGJsbOjgaO/kaO/u7uLr52VsbGRiYkxub2mF3CqvAwzDsrJyHz6Mi3uSmJGRXVJS1pF/hm5ia2c9ftwoP38fV1cnNzeX/h10KZXKgoLi7Kzc9IysO7dj0tKy+vibmpubeXi4BAcHBIcEhIYGUqn63pKSItGiqUn05EnizRt378U8rK6qkUql/Vi4gQHHyMjQxsbK28czIMDH29vDjGfKZDF7au9SKpUtLZL6ekFGRnZSUkp6WlZBQZFQ2CgUNvZRzHgoFIqpqXF4eMi48aNGjAjT58P0pEhUSKXS3NyCA/uPnjt3GX/kY+AwMTHy9fOOiAj18fF0c3M2NTXpclYgFDbm5ORnZ+c+jI1LSkopK6sYhJ8PRdGIiNB33l3u4+PJYjEH+nJDEFIkKs6cvrh794GsrNx+bIy7A41GNTU1dXFxHDt2xNToKHNzns5szc0tN2/evXTxempaZr93cV2Coqi1teWMmVPffvsNKlXvPEqSIgGRSHTo4ImfftrWUQYGg2FmZsrjmZqb8wwNuebmZlxDbutrFpMJABKppKlJJJPJc3PyDh8+1dTU1LuaMBiMYcNCJk2O9Pf3sbOzoVAoVZVV6RnZN27cvXH9tkAg7OU3BJgxc2poaBCLxWCzWSymajlFrpA3NAhFInFRYUlpWXl1VW11dU11dU0nm4inTJnw8SfvW1lZ9LomzyP6PieTSCQ7d+w7cOCYzv9aWJiHDwsZMSLcwd7WytqSzzfrfP4QF5e0b99RfMrEieNsbKzT0zPT07OEwsYuK3Pnzv379x85Ozt4ebkbGRmmpKSnp2d1c+s7g8FwdXXy9vZAUfTc+Ssi3ClIN1fnuXOnd/7x+npBcXFpYWFJQkLy7VsxOrdIXr9+Vy5XfLXhEzMzPZqi6HVPIpfLDx449uOP2/Bb2QGARqM6uzi99NLYefNmcbkG3R+I//7bri1btqvfmpgYf/+fL0eNHCaRSpvFzenpWSkp6Q8fxpWVVdTW1rV3mEIARdHOx340Go3HMzEz54WGBPr7+/j5exsacplMRllZ5bq16/Fu7yIiQv/6e1s3V0KkUmljY9PlSzfOnb+SmpIhkWjN0FAUjY6e+NWGTwwMON0p7QVAr3uSuLik3bsPEBTC5RrMeuXlpUsXWFtb9qg0pVIZc/8RPsXGxsrNzZlGp9HoNAMDjjnfbMzYEW+ufL2wsCg+PjkpMSUpKSUvr0P/v50oxMrKwt/fJyDQNyQkwM3NhbAhxdbW2tXVCS+S7Oy86qoafvd2H9PpdB7PdOGiOVGTIo8ePX3s6Gl8r4Jh2I0bd/38febPf6X7R/Ofa/RXJFWV1Tu2763UPnduaclfs2ZV1KRIwmPXHUpLywvyi/ApHh6u7YfvNBrV1dXZ1dU5Ojqqrq4+PT3r0sVrFy5cg+4RFOQ3Y+bUsLAgMzOeoSFXZ+dAo1FHjhx29uxldUpzc3Ni4tOoSZE9+kZmZqbLly8ODPD98cet6ema5ReRSPzX7gPBwQG+vnrhFE9/l1Rj7j+6f/8RfrRpbs5b/8UHM2dF90IhABAXlygSifApkZGjO5nDtMYeKS0tz84mupzrhOLi0oKCIqlUZmDA6WT4NGbsSAaDoX7b0iKJi0vqpk9uPHQ6bfiIsJ9//tbX1wufXl5eeeDAkZ6W9pyipyKpqxOcOHEOP54xMTFeufL1ceNG9a5Asbj5YWycRKKxzPL5ZqFhQR1XoP6ff05+8vGGX3/5o0ciqamp27vnn88+/Wb37gNFRSUdZTM1Nfb0dFO/xTAsN7egvrcnTBwc7d56aynBSeT9mEf5+YW9K/D5Qk9FkpyUkpaagU8ZFhHyyuxpvd4wUlcnyC8owvdLnl7uRkaG7XPW1NRevHBt2dL3vvr3D48fJxCmxa0YGnLDwoKiosbz+ebtuwsMwzIysn/+6bcF89/cvftAXp7uJ3XylAn4t1lZOcUdi6pzUBSd8NKYBQtma3+RutOnL+qD4UdP5yRPU9LxrT4AzJw5lcNh97rAyorKwoJifEqAvw8hj1QqjY2N27f3n/j4JJ3erwGARqOGDwudM3taWHgwm8VMTk47c+bi1au3Ght1rL3U1tb9svn3C+evzps/a+LEcQSPEC4uTiwWU20+rqmpy80tCArupRMjBEFmzJy6ffsedYEKhSI3J18kEr/wZi59FIlQ2JiVmYM/aGFra9NH9yWZmTl1dZqTukwmw8/PW/1WJpPn5eX/8b+/792L1fm4oyhqYmIcEhKwcOEcH19PdSCriOGhgUF+S5cuOHbszPXrdyorq+RyrXmFTCZPSUnP/jbv+LGz7/3rzaAgf/WEytKSb2NjrfaxjWHYkycJc7paLekEa2vLMWNGXL58Q51SXFJWWVllYODU6zKfC/RRJLW19YQje37+Xn3c65qt7e/dytpS7e2hrk5w5vSFw4dPFhQU6foosNms6OiJUVGREcNDaTSiUZXJZLh7uH762ZqZs6KvXL5x4sS59u7nJBJJYuLTD9Z9MXNW9Pz5r7Q64zI349nYWOId0Wdm5vTlOwJAYKAfXiSVFZW9nuc8R+ijSFpaWgijHR/vvpoyCc+fvZ2tmTmvubklIyN765btiYlP2y8doijKZrOCgv0XL5obGhbI4XQ2aEFR1Nvbw9XVOTJyzNGjp1sHYARrlUAgPLD/6IP7T955d/nIkeFGxoYODnYIolkvzssrlEqldHrvvRk5uzjQ6XT1zrGmJrE+OMLTR5FIJBLCI2vet+AeMpk8KzNX/ZZCoXh6uonFzf/dtPXOnRidbS2TyRg7duSsV6IjIkKZzO6u6NPpNP8AHz9/7+kzppw9c+nKlZvqc4jqmmRmZq///Nvw8OD3/rXS09ONwaCrNzVLJJLcnAIvbeeoPYLNZrPYTPz2yl6YlZ879FEkSqWSYJORy/p0ELyurh6/qZFCQfPyCtZ//t2TJ4k6V82dnByWr3ht7JjhZua8XhyaRRAkLCzIw8M1MnLMH3/sTk5OI1ylqUl048bd4uJSPz9vQvk5uXl9EQmVSqHTNB2RTCYjqPSFRB9FgqIoIT5BH3eeJyQka5cmu3r1VvtsNBrV0tLilVdenr/gFROTvp53NzTkjhs/csTIsMuXbvzvj79KS8oJ1uTs7Lz2KzBZWbnQB+RyBb7roNGohnoQLFsfRcJkMNhsLWtveUVlXwrMycnvMg+LxZw0acKsWVNDw4L60fUWnU6fNn2yo5P92TOXzp69jPc+oZOSkrK+TEvKSsvxe5kNDQ0JducXEn0UCceAY2TExafk5RX0ujSJRJLdafNMpVL8/H3mvTozalIki8UcCKckfn7e7u4uEcPDDh868ehRfEtLh5PpkpKy6upaGxur3l2ooLAYbzo3MOCwerWF5/lCL0XC4RDav5zsfJlM1t782h0aGhqrqqo7+q+ZGe+liWNfe+1VZ2fHAfXZw2AwIiNHBwT4HDx4/OSJcx25pWsQCGtr63otksJCrQVTQ0OuPhzo1cdtKYaGBm7uLvgxT2lpWW5u10Om9shksqdPU3U+kVQq1cnJ/sMP3/3ww9UuLk6D49WKxzN9880l3//ny+CQAJ372Gtqah8/TujyKItOZDL540fx+BRbO2t9OH2lj+HgUBSVyWTXr9+RSVUnSTAMs3ew62ncKalUevDgsV9/+aP96h6bzXp52uSvNnwcERHal3WJXkClUm1trUePiqBQqPn5hYR1DJlM/jQ5rVHY6OPbY68OsbGPDx06oX5Lo9HmzJkeFhbcP/UewuhjTwIAzs6OTNxOcgB4cP9xj9ywNzY27dq5f9fO/e0VYmdns2bt2+vWve3gYKfzs4MA38J85Vuvf/zxex64vcCtNDY2HT584pfN/ysv74G5QiqVPn6UgE+h0+nOzg79UNchj56KxNbWetiwEHxKenpWfEJyd/a0KhSK0pKy7zdu3rJle3V1LeG/hobc7zauX7Jk3jN3VMXhsGfOiv71l41ubs6Ef7W0SI4cObV2zfqsrFxZ99aIiotLb968i0+xtrYIDPLrt+oOYfRUJAAwbvxI/HhDIGiIffC4OwsmCQlPN27cfPbsZZ2K4vPNenrud0Ax4BrweCY6/5WcnPrN1/+9czumy0LkcvmtWzGFhVo77aOixne+leaFQX9FEhoahD+WJJfLL1y4Wl7W2QhEIpEkJ6V+/tm3tzv21s5k9tgj44DCZDJMTXX3aRiGxccnr1+/8cqVm51P5etq669fu4O3LJuYGI8fP7qf6zpU0V+RmJmZhg8LwZ+yqqmpO6AdVAQPhmHXr9356KOviopKOtmwZMDl9M6UPEBQqdROzntgGCYQNHzz9X/37funk1702rXbSUkp+JSIiBB7hwGJtTIE0V+R0On0CRPG8C34+MSbN+49TU5rnxnDsPPnr/68+XfCQgGCIATX64Zc7pDyIUKlUjkGxMNkhHMBNTV12//cu2/vPzrPuuTnFx0/fhbfLpiYGE+NjuLqwYaUVvRXJADg7+8za+ZUfEppadmRI6fwbt0AQC5X3Lx5b/PPv5WWlOHTqVTqqNERjk5akdTZbBZ1KA23aDSqubkZwTfpzJlTCRtzRCLRtm07//zjb4JOZDL5jeu3CYtIfn7eI0aE6U88E70WCQDMmDGVz9d4o1IqlVeu3IzTjoP+5HHCph/+j2AwpVKpkydHfvjhuzTtVpnD4dCGUk8CAIZcA8JazRvLFy17YyHBKUxzc8uhQ8d379qPH3AWFRUfO3YG70EcQZAFC2fryZS9FX0XiZW1xWuvvYp/rIXCxh/+83+t/rgUCsWdOw/Wrl1P8EvCYjGXLl2w8fsv+Hxzwll5QyPukJqTAADXkFglBEFXr16xfv06wmZkkUi8c+e+n3/+rdU3UnNzy88//ZaPcyaGIMjEiePCw1/8BUQ8+i4SKpU6aXKkt5cHPrG4uOTA/qMSiSQuLunnn7YRttayWMyFC+e8tWopg8EAQJRKrbMcFAplqI1DKBQKgmpVqaWlBUGQ6TOmrlm7iuAoSCaTHz1y+tDBE0ql8uqVm7GxWpEf+XzzOXNn9M4v2fOLPm5wJGBnZ7P6vTfffecjtXlHJpMfPXqayzXYv/9oZWUVPjOLxVz3wbtz585gMhkAoFRiQqHWIB4dYgrRSet+HBqNOnv2ND7f/PPPv62v0zQEDQ3CrVt3CBoabt+KIZiGX503Y/hwPZqNtKLvPQkAIAgyatSwyAmj8Taf+nrB5s2/ExRiYmq8dNnCxYvntioEADAMw1tO6XTaEPSv0/6ZFotVR/ypVOr48aM++ug9wgHmVmf7hDNb3t4eixe/OkABhIcypEgAABAEWb58MWH7BmHBhM1mLVu26PXX5+OfOQzD8JNaFEXpjEHdztgdqFQKimj90Art477R0RPf/9dbOl3pqbG2tly9ekXneV5USJGo8PX1en3pAhMT3efsuFyDGTOnvv76PMJBFJlMrr2wiMDQc2hIp9MJx5UJkVIYDMacudPfWrW0o0PFNBp1+owpw0eED2AthzCkSFQgCPLSS2MnvDS2/b+YTMa06ZNXrVrG0N44DACEITuVSmH3wQ3k4KFLybNnT1u0aI7O4WJERNiSJfP04XyVTkiRaOBw2KNGDW+vBBaLFRzkr7OVJXhGVSoBG3oudlAUJUxLdG6r4XDYEcNDdQ6ofH09h+Bca9AgRaIhNzf/f//b3d6DtUDQ8Oeff9+//7D9RyTt4vQOQcuPXC7HMK2+g8EkNgQAkJyU+svmPyoqqtr/68zZSwnxye3T9QRSJCoEgobduw/qdOmgVCpzcvI3frc5MTGF4IqX0JPIZLLG3kYVHThQhGiXRoDYsZSWlv/ww/8lJCTr7GTKSiu2bdvZHacwLySkSFScPXvp2tVbHUVgUyqVpaXlmzb93+PHWoe8ERRl4MxZKIpSKUPOQipubpZpb+w3MtYaU6WnZ3337U+pqRmdfP3k5LSjR08PYC2HMKRIAAAEgoa9ew7jbT4UCsXR0Q6/coJh2NPktG+/+am4uFRtHUZRBO+kVCaT6dxI+2xpv/kfL4amJtG2bTtiYh4S+hA7Oxv8yrpEIjl+7GxCwtMBrerQhBQJNDY2/f7bruJizQ5fFEVHjYr444/NM2ZMwU9Y5XJ5Xl7BB+u+jItLbH2kEATBb4zHMEw+9CbuCoVCqT0naTVCYBiWlZnz1Vc/3LoZI5VqoqvS6fTQ0MBdu7fMmDkV30w0NTVt3bK9/Zn+Fx5SJJCQkHz+/FV8CpvNXvzaq/YOtmvWvj1t2iTC6Yu0tMwNX21q9ReKIijR3fXQi/yEIAjRnKBUAkB1dc33//nl6pWbhPxeXu6ffrbW3t526dIF5uY8/L8SEpIvXbymD06y8ei7SJqamg7sP1pbW6dOQVH01XkzRo+OQFHU3Jz3+foP5s+fhbcLy+XynJz8t1d9cO3qbZlcjt+FrlQqGxubCJP7Z05zcwuhSgZcg/T0rNWrP4l98ATfhwCAl5f7xu/Xt4bVdXCwW7NmFX55pLm5ZefO/R15vntR0XeRJCamxsbG4VO8vNznzp2pfkujUd9dvWL69MmEPUsVFVU//PDrzZt32RytLbFNTSJCYPhnjqhdldLTszZ8tSnlaTohp4eH26efrXF11WzPGTtu5NhxI/EdUVVV9amTFwa0wkMNvRaJUNi4c8de/MIIl2uwaNEcR0ctf1kmJsYffPjulKkTCeuMJSVlm374P0LsdmFj45ASiVKprK2tJ5xf/2L9xuTkVPyEnkajhoQEbtr0VZh2xGBjY6OFC+cQ3KKeO3c5MzN7QKs9pNBrkdy6eS8lRas19ff3iZwwpv2CoLGx0bp170yfPonQn4hEYoI5SyQSDymRyGQyoVBIMHDV1wvwKQiChIYG/furjzy93AhH9gHA19dr/HityN3l5ZVXLt/UGTf4hUR/RSIQCK9du92EO87OZrNefXVGR7EELC35q1YtW7psYeduS8Xi5iE1r5VKZQ0Nwk4yUCiU2XOmf/Lp++7uLjozsNmsadMnW1lZ4MqU3rn7oKamTmf+Fw/9FUlebn689ll2P3+fkZ3G4LWxtV637p2333nDQtvHCp5GYaNUMoR6ErlM3qTt1wKPsbHRrFnRn3++1tPTrZMNNR4erhMmjMVb+VKepsfrzUYV/RXJXe220MCAM33apC4PpiIIsnTpgjVrV9na2ujM0NIiUWBDqCeRSCUdRWwzNjZatWrpRx+/1+W3ptPpo8dEmOI8QSqVyju37/dnRYcweioSmUx+/fodfIqtrXVQcED7EXl7WCzmrFnRv/z6nb+/T3tnjcXFpdu27igsLO5oi8dgUlNT98/hkxkZOibZNjZWX/77w6XLFnbnHBWCIGFhwUGBWp5/79590D7c3AuJnookKyun1R+KmmHDQu3tdXcOOvH19fr3vz8aO24kIV2pVJ4/f/XLL76/dOmGzg8OGvfuxX733U87duxr78I0OCTg88/XRkVFdr80Nps1arTWWFQikWRl9TUw/HPBkNuNNzgkJj4lBO4YPTqCsLLeOQiC+Ph6btjwCc/U5Pz5K/gHEcOwx48TUlLSMzOzZ8yY6uRkP8j752tqas+evbx714Ha2jpCh4ai6NixI9Z98K6Li2N3uk084eHBNBpNbbuTSmWpKRkTJ44fUh4rBwJ97ElkMnlmRg7eUEuj0Xz9vHpaDoIgfL7ZmyuXODraE/6lVCrF4uZdO/d/9e//PHwY352IDv1Ffl7hpk1btm7ZXl1d037IZ2JivGDhbDc3554qBAAcHOx8fDzVbxUKRVp6pqCrUKYvAPookoYGYVlZBf7B9fBw7XUUWT7fzLSD2AZyufzx44TPP/tm69YdVZXVA2oabnV9ffr0hbVr158/d6UjL/EmJkaWlhY6/9UdgoO1goFVVlZ3Ge/3BUAfh1sCgaC6Wmsray+6ETVMJtPZyeHe3diOMpSVVfz+2667dx4sXjx3zJgRJqZ9jeDeHpFI/OhR/L69/zx5kkDYi0XA0soCv+LRU6y0Q680i1ta9GBJUR9F0tLc0urGU02vo9G2Ym/fdRCClJT0//5366NH8cuXL3Z2cezL5QiUlpbv23fk8qXrFRVVXY7rnJ0d+3Ja3cHelsNhi0Qqt10ikYgwtXsh0UeRSGVyggNfUxPd46VuEqQ9CEFR1NLKoqFBiPdOr1Qqa2vrjh8/e+fO/SVL5k+Z+pKNjVUfJ/SCesGt2/d37tiXk6PDFEuj0ywt+OXllfh4QzbWln25KNfQgM3WiKSxsalHgRefU/RRJAgCAP1pbnJ0tKdQKOopB4WCRkWNc3Z23LZ1Z/sQ79XVtVu2/BkT83D6jCmTJ0/onV9dmUz+6FHc0SOn7t6NVT+yeFgs5htvLDY1Nd68+Xe8SFzbxU/sIyzmi+9nSB9FQqPRGNp+Fvu4JZHDYdvaWqvj+8hk8tqaun+9tzI42H/Xzv23bsUIBA34gZBMJo+NfZKY+PT4sTMr3lzi7+/d/SikAkFDQUHx3r2H79x+IBKJ2o+vuFyDgEDflStfDwjw2bXrAMELq4cHMRhvj5BIpDK55l5RKBQWmxTJiwiVSiVs5i0oKOooczdx93DBB8EqLi6rqxO4ujqv/+KDseNG7t1zOCkplWDdammRxMUlZWdvCAjwWfbGouBgf+IhR20UCkVWVu6OHXsfPYyvqSFG/W3Fzs7mzZVLJk4cZ2Ji3NTUlJ2Vgw+ua21taWbWp5jAJcWlwgaNJwAWi8ls56bsxUMfRcLlGpjyTPFhN/ruLMfBQWuppKqquq6+3tbO2sCAExU13sPD7dSpC6dOna+qrCa0/UJh4927sZmZOSGhgdOmTQ4PD+FwWIRpg0QiSUxMuXjh2sOHTwoLS3RueOFw2NOnT545K9rb27O1CaitrS8pLcfnwZ+m6h2paZn4q5uZ84x6azp/jtBHkVhY8N3dXeLjktTPa1xcYmlpeV9sXEFBfgwGQ33EoqysIisz19/fBwBQFHVysn///ZWjRoUfPHj8YWxcXV094eNVVTUXL1y7fu3OiBFhM2dFB7Uj0ukAACAASURBVAb68flmKIrW1wlSUtKvX7994cI1ggNfNVyuQWCgX/TLUdHRUfgesrq6thLnaQ5FUU+vPo21BIKGRw+1PCpZWvJNB8CiPdTQR5FQqRQ3Nxc6na5+ppubW86evbRq1bJel2lrY2VjY5WXV6BOSUlJmzN3uvotiqJhYcGurs6PHyfs+ftQQsLT9h2CVCq9dSsmMSnF08Nt5qyp1laWBw4ci49Pqqmp68i2a2dns+yNhS+9NM7MzJSwiF5eXllbq1Ejk8nw9e39chAAxMUl5ecX4lNsrK1M+mYYfC7QR5EAwJgxw3fv2l+CCxR6+tSF0NDAkJDA3llIrawt3d2d8SJ59CheJpUR4ieamBhHRY2fOHHcxQvXDh06np2d134fu6C+ITb2CSHEFAEOh21vbzs1OmrRojkd2cce3H+EnwU5OTkQxoTdR6lUFheX/v3XQbywDQ25kZGj9SFciT5uSwEAKyuLyMjR+JSSkrLt2/f22rUch8N2d3fFPzGlpRW5ebqnOgiCTJ4y4b8/fv35+nUenZ520om5Oe+dd5dv/mXjsmULOlKIQqGIidFyXuzoaG9hYa4zc5dIpdIDB44lawfvdnFxjBge2rsCny/0VCQUCmXGzKl4p1IymTzm3sON3/3cnXVrnQWGDwvBm6ckEsmd2w86yo+iqJWVxZQpL23a9NXixXO7f6GRI4dt+u+GBQtmOznZd7JtOTU1A38WgEaj+fl59W5NRihs3Llj36GDx/GH2ul02py5M/QkBi9lw4YNz7oOzwZDQ25Lc0tycpp6TKJUKnNzC7Kycm1srKysLHrawJuYGJ8+fRF/oJxKpUZGjtJ5Jl4obHzyJPHC+avHjp2JiXnU0tLdzR01NbU52fklxaVNIhGHw+ZyDXRmO3Tw+JMnieq3BgaclW+9bmnZ4anjjsjLLdj2287Dh07g9yggCDJ27IjlyxezWHoRYfTFH1B2BJPJWLBwTlx88kPc6F8ul9+//yg/v/CVV16eOXOqOd+8+4clWCxmULA/frWksLA4L6+w1cYlk8klEolEIklNyYiNffLgwePq6lqBoEGu7cq6S5qbW5KSUpKTUw0NuWZmPH9/71GjI4KDAzgcNpPJoNFoCIIIBA2JSSn4T/F4poQIw52jUCjq6wW3b8X89dehwsIi/GILANjb27658vWOwmK9eCCDedRhCJKenvXxR1/pPIbK55tPmz55WHiwp5ebmRmvOwcwLl28vmbN5+q3dDrtvfdWBocElJSUZWfnpqSkZ2bkdGdvOYIgPJ4pi8UoL6/qjopYLKaLi6O/v6+nl5u9nW1Nbe1PP/5WUaHZVbVg4eyvvvq4y3IAoL5ekJOTn5jw9NSpC3l5Be0fDz7f/MsvP5wYNa47pb0Y6LtIMAyLffDkm29+1LnojiCIqamJvb2No6N9cHCAu4eLtbUVwT0unqys3GVL38UbXvkW5jQarbamrvsDKnd3l6nRE0NCAtksZmpa5vlzV+LjkwhteUfQaFQTUxM6jVZeXok3bW3+5bupUyd29KnGxqbS0vKcnLy4uKSc7LySkrKqqhqdp1/MzEzXffDu9OmTe3SK83lH30XSSmlp+fr13yUnpXZ0VgmPgQHH3NyMRqMxmQw2hy2Xy5sam6RSqVDYKBA09MIRMIIgfL45n282bFjIlKkveXi44h9BpVJZXl556dL1mzfulpVXVlZU9u4SRkaGXK4Bi8XiGLCZTEZLs0QkEisU8ro6QXc6NwaD4ehov/6LdeHhwT29+vMOKRIVpaXlp06e//vvQ4MZYARBEFtb6xEjwqOjJ9ra2XRiLWj1VlpUVHL//qNbN++laW8PGWioVMqMmdFLXnvVw7NPa/bPKaRINMhksqSk1PPnr9y+FVNeXjkQdwZBEC7XwMjI0N/f28fXy9fH083dhc1mtY9m2nEl5WKxuKCgKDUlIyUlPTk5ta5O0NAgHKCzwSYmRhHDw6ZNmxwREdo7C/ILACkSIjKZLD4u6cqVW+npmWlpmS3tQof2AgaDYWtr7eRk7+Bo5+fr5ebu4uBg1/dhfetILDs7N+VpenZOXn5eUXFxSXdGjF1Co1E9PNzc3JzHjh05YmS4oSG372U+v5Ai0U1Li6ShoSE1NfPJ44S4uKSiohKZTKZQKOQKhVwm13nTUBRFUZRCoVAoaEuLBD8ciogI/ejj92xsrDgczkDs41AoFCKRuL5esGPH3uPHzuKrx2IxMUyJYQqFAtM5QkMQhEqlUChUCoVCp1N5PF5ISEBQsF94eIixkeHzEZZ+gNEjG0WPYDIZTCbfwoIfGTlaqVRWVlYXFZVUVFTV1taVl1e2NLdIpVK1xYnBoNNoNDabZWDA4ZnxDAzYe/f8k5ycqi4tIyO7Wdzca4csXUKhUAwNuQ0NwpSn6XiF8HimH360WqFQ1NbWNQqbRCKRVCaXSiStEaspVAqTwaDT6ebmPHO+mYWFua2tta2tdXu3lHoOKZKuQRDE0pJPWK6WyeTqaQCNRsU/WHK5vKqqJjs7V+0kQSBouHz5Rqh26I9+5+rVW/gFHwqFMmHCmClTJuA3y2AYJpPJWnVEoaA02gvuV65f0NO9W32HRqMymYzWP0LTS6VSIyNHu7g44RNPnDx/584AepjOzS048s8p/PTdxsZqztzphNOOKIoyGKpqkwrpJqRIBgR7e9uoqPH4FLFIfP781QGyL2MYdu9uLCGUoX+AD0GoJL2DFMmAgKLo9BlT8M+oUqm8H/Pw5o27A3G5hITkf46cxPt8MDU1eeONRRxy2t0fkCIZKCwt+dOmT8aHrq2urt2775/qat0+HHqNSCTatXN/Pu68F5VKnTQ50tu7BzsaSTqBFMkAEhU1juDCJz0t68yZi4Qwn31BqVRev343JuYR3ijt4Gg3c+bU/roECSmSAcTZ2XHe/Fl4t6IKhWLf3n9u3rzXLwvkGIY9fZr2118H8MehaDTq5MkTvLzc+14+SSukSAaWiRPHjRw5DJ9SVVWzd8/hvnv6AgCBoGHH9r052vv8g4MD5s2b1Xn0U5IeQYpkYGk9EuiJa9cxDIuLS9q2dUcfvegKhY3/+99fV6/ewu+it7GxWvHmEj7frC8lkxAgRTLguLk5z5w5laPty/3mzZgd2/d0FPKzS6RS6ckT586cvohPpFKpEyaMCQkJ6H1dSXShv2fcBw0KheLo6CBpaUlKSlXvGZHL5RkZ2cKGxsAgv869m7ZHIpHs3LFv1+4DDQKtAO2TJke+/fZyXgcRhUh6DSmSwYDJZLi5uyQnp1Xi3JxiGJaZmV1fL7Czs+n+k11WVnH48Mldu/Y3CrXWJZ2dHT755H1XV3L1sP8hRTJIsNksR0f7lJR0fPB4DMNysvPj45ICAn0NDbmd7yyUy+XVVTXfffvTyZPnCIeBeTzTNWtWjRw1bJAjmOoJ5Fb5QSXuSeLHH28o1fZjDQBGxobTpk2eNSva1dWZEBYCADAMKykpu3zpxpEjp4qLSwn/ZbNZn362Ztasl/XBmeIzgRTJYHP58o3/btrSXicIgjg62fv4eEZGjvb19bKwMEdRSm1tXX5e4Y0bdxISnmZl5bZfhWSzWStWvPbmytdJhQwcpEieAcnJqV9v+G9Wdq6s0yCgnYOiqKOj/dp1b48dO4JcFRlQSJE8G5KTU/fvO3L16q3eBeak0+nDIkKWv7E4JDSQ7EMGGlIkzwalUikWi0+eOL9794Ha2npJtwM902hUU1PTKVMmrHhzCY9nQs7UBwFSJM8ShUKRkZF97eqt8+evlpSUdekliG9hHjVx/NSpL/kH+OiVe7hnCymSZ09Li6SwoOj+/cfXr9/Ozc2XSGUKuQLDFEoloChKpVJoNJqlJX/suJHjx492d3chT4kMMqRIhhAYhhUVlRQUFFVV1QjqG2QymSnPlMczsbW1dnNzIecezwpSJCQkXUBucCQh6QJSJCQkXUCKhISkC0iRkJB0ASkSEpIuIEVCQtIFpEhISLqAFAkJSReQIiEh6QJSJCQkXUCKhISkC0iRkJB0ASkSEpIuIEVCQtIFpEhISLqAFAkJSReQIiEh6QJSJCQkXUCKhISkC0iRkJB0ASkSEpIu0OGlJlMMD4TtkztkqWW/1aY9GWKIbavMSyZgy+hxCQol7NMVd40CwKIAnwY+HODR+lRJkt5xrhZqZAAATBTm87vO/6QRUkSq1zPNwHiwXCzpuM7Neng7qwdFDKhIrtXBe9mq12f9eyMSmRKWpXeWAUUgmgdfOkCYYW9qSNJrNuRDXCMAAI+mQyT/VEGWGL501KQcroSfi1WvQ8MHTyTkcAswJZytgZHxsJsYDYHk2RDfCKPjYX4qFPbGmXj/o0OMbApYaHvyb5BDS5uXWhMq0J9bZaEImNMAADAlNGPQhIulLlPCm5lgz4SXyJCDz5RSCYTFATaUXCbqEMkSS1iiPYKanwr/VKlen/CDccYDX6+BwYoOJSM0b0UKuFIHn+ZBlhgAAFPC0nTIi3iOW4Hni1tBIFcCaI9nZMoOFfKdM3zhqHpt2FnkvH6m/4d1Oc2QJQahAqgImNPAjwOmHUyLhXJIaoIqGSiUYEQFTzY4dDsMrUIJMtytZKDQixAEHArMMocxxhD8BIpaAABKJXCgEpZZEXOKFPC4EaqlYEwFPwOw7DRmjhSD+CYok4ASwIYBgQbA7FR1BS2Q2wz1cjCjQZABGOn6TdQ9OR0BFAEASGqC3GbgUmCYIRjiPlIigYRGQBDwZoMzS6sQJYCkXTkJTZCvq5z21MggUwzlUuBSwJsDdh3PD5UAWWLIaYZGBTAQsGGAnwGw2t0EOgJUBAA0v50U09QQABRK1Rdv/X2piOZOdhRyojs3U4pB60UoCNAQAIBaGcQ3glABjkwI5hKfpf4Uybla+CgHMsRaiSgCs8xgixtY4+5puRTWZsOJaq0HHQB8OfCLW9cDHrECxifCozar18s8OOmnut29gEeD9Q7wVqbq7bFqLZEI5bA+H3aWaR5TBGCcCWx2hUADYlGNCvimAP4o1RrIcSmw0hq+ddbxlBypgp+K4THOlkhFIJoH/3EBL5zneIEcTO6qXu/zBmcmvJWpsfOwKbDBET6yh1oZrM6CI9WalngKD/Z4qUaYAJDbDG6xqtcn/YBHhbcyIb3t92Kg8J4tbHTS0ZHGNcI3BXChVtXwtxLChe+cYbIpMfPeCtiQD/na0wkWCkss4Rc3rZswIl4zca8ZBQAQ/ARSRZoMf1fA3xUAANkR4MqCT3M1E/en4eDL0bpEN28mAITHQVITAMDrlrDFDT7IgT0VmkfRiQm/ucMUniZ/vw0sTlTD9GSiQgAAU8LxaohMBFHbc1Mng1Hx8E8VUSEAkCKC6GS4UNvZhRRKWJCmUcg4Yzjq23uFtPKKueb1/QZQ16tWBqMTYFuJRiEAoAS4WQ8j4uBSHb4MqJHBqHj4qUhLIQDQqICfiyEqEaS4QjAlrMiAealaPyoAyJVwugZCn8DpGt1VvVgL4xM1CgEAsQI+zoVvC2BUPByu0hqrXKyFl5N1j16u1UFkokYhACDB4KcimPZUSwkAsL0MRsTDmRpielwjTEmCL/K0En8thtfTiQoBgGYM/iyDl5O1bkJ/0eubKZDD2ATYWa71KOa3wPSnmgcM+kskzRi8k6V6tugovGYJXzjCcitNZ5cphjNtFd1UBHnNqpxr7GCPFxzwhvdsgYIAAEgxWJ0Fio7nbf/K1hQVZghn/LsYzHQHM5pmqUQgh6q28J1vZEByW7R0bw6ss4PFFqoOuhmDRWlQiQv0uTRdk9mMBq/yYbGF5g7ca4CNhZrM3xXCLpwxLZgLL/M0Bm6xAuanqlpZAgcrQYbBNDNY7wAjjTTp/86HDDFYM2CdHSy1VN1MAHgkhAt1Osr5rRTkSvBkwworiDLVDDCu1MGmIk22WwJ4O0vzZDsyYZoZ+OGa8I2F8FtbPOB6OXzWpplgLmxxg398YKubpsm/UQ8HdK1ZqTGhgglucMNAgUcDHk3zdXTS65t5ugYSm8CJCevsYLWt5seSKzVdFvTXcCtDDNZ0lRHsTw/Nysk8PkQlqV6ru9E7AtWLaB784qp6vdACrOnweykEciHQQDWmbM+mIvi97Sfx4cAlf+D20wTOlAq1bVE+BXKwoMNjoUaNE0zgvD8wUACAFdYQmQiYEupksLUEvnMGAIgVwvm2DjDIAC4GqCyExRIIfqxaMvu/EvjMAZgoFLbANwWqzGwKnPCFSaYAAHIlfJYHPxUBALRgsDoLHoToqOo2d3jHRpXfPVbTbLuy4GGIagboxYFPclXp8Y3wMk9HOW/bwDY31czkZDXMTlE1c5uLYZ0dsFBQAqzM0HREG53hU3tV/qNVsChN1QB/mgvz+GBGg0dCTZf7lyf4tw1Hl1iC/2Pg0yHQoIt127vBUNACTg9UbxdbwE7PzvID9PVmvmQC59p+2YV8GBGvSn/c7z1JkAHEh0HTGEgbBkssNOm+uFF7Q9sgBG1rFc7UwIoMuFQHYgUAwKcOUDQCzvjBN066FXK4Ej5r++GdWXA1sEOTQC/At1Wt46Uj1ZqU751V9xEAxhprnjm10e84LvMPLhobuh0DPneAFVaw1Q3O+qlu91/lmq7yY3vVjwoAVAQ2OWuerVghJDYBAVsGvG2jyR+B60w+tNfckLE4C2S9XMf3taDDr66a32KWObzatpxXJ4MHDQAAtwWQ3axKHGcMnzto8s/lw0pr1esmBeyvANB+mOalwpYS1ccNqVAwHB6FwHYPmG6mozJ9oS83EwA2u2l+2eFG4NJm6qjD3bT+NHZSEPBiQ5MCLtfBxkKITtZMEwE0I9qJbfNyhRJ2lcOUJDC+CxFxsD6POKYkcKBSM1uIMASrfg3LTJhqg3Zb0qSAWKHmz7StA85tBqEcAOAJLjN+FAQAa+1ghyestoXRxqo58S2B5r8rtC1pKAJv4FJuC4CAL0fL9oK3hAbhmiT8arRc19h1gglxgh6N621a57W36nH1tAYCb+JSWusZYaTp2DPE8H42uMeCVQwsSIW/K0CgS6t9py83k4YQZ/9quyXeyNZv1i1MCbsrYFcZPGrUPVNU/yIf28OFOq1HUKaEh0J4KITvCyGYC7+5Q0RXO0QOVcJqGxhu1EW27le+FhdRvbU9rsLNNyYk6v6gEqBYAj5U1YAKAJgocLoaARa1DZCYqJbRrxVXnN22tF1QXhPtzhNvscD3q/iOUWcss/ZNjA2uJq13owh3dRcWMT8+pVQKAMClwJ8esCRdS5YVUjhcBYer4F0KvGcDXztpWu5+oY83kzDZUdcNf8/6p75yJbz8FN7MgFihSiGOTFhoAVvccFdqqw6bAneC4EcX8NAVHzO+ESITtKw3eFio6msoAd7PgY6n9z0jsxma21oOW4ZqsKfo5AM4WseK6probLYJdG5pwD9D7SesnXy0RyY+abt64hNar4uvZ3uladWz7cUCC4gNgbl8Hd9RrIBNRbAioweV7A59uZm0dik6b2H/iOTvCrjYNm2dy4fcCMgfDge8YTFu5R5/JSYKH9pDxjBIGwa/uMIsc40tHwCaMdhSouMqdBRO+sG/bFVvHwthT0W/VB+OV2leq/cTqOdFFARqR0HjGN1/IVwAAH5bwyxXQpl2i1UsgTsCrZ5K3eC1YDqatyycWbaTBbs+ktNMTMHXpPW7W+N6m9x2Vt1sfD1xq8AhXDjiAzWj4LQfvG8LwVytp3N/pY6v3BcG4Wb2j0jUKxtUBPZ4aRZ6a2TEnJgS8lvgYi38UgzX6sGLDWvs4IQvVI6CU36abLntfkIA+MUVJpnCegfN4/tZLjR2s8HvmCyxlr1vdZsIg7mqFwolZDWDAUXzd7UOHjSAUA4GFFUPGcrVlHBR2+T6WwmMTQCze2ARo7K+4yctf5ZpZVYC7MMpP3LANpLdqtfSLQBcxlW79btr1bMUCOBbqEhjAIBGBTwWwr4K+LoAWChMN4Nf3SAuFMpHwgTcF8nT9eOqwT+R3RkpDMLN7B+RNLbNyQjt6M84i3tr/54uBucHMDUZ1uXA2mzNIAcBiDDUdHY6J+X2TAAAIypscFKlVEjhu4Ie1FOCwbV61d/FWjhQCe9lQ8gTzZxykikMa5sOzcGtMH6Yo1kMzRLD/DSISgKb+xqL4au4nd5f5Gns3Skijc1aioGfAQDAYkvNN/25SGNolmKwJltzfmaiKXgOWMT2ZgxeT1eNFQHgXC0cbutOrRkQbggAMM5Edc8B4F4DfJWvsSMdqITNbS0LjwaLLAEA3kiH8DhYkg4b8rXWQ8xp4I77Iladtug03CNZLgUAwJSdrZsNws3sn4l7EBeutVlCpibDx/aAAhys1CQCQJ0MAMCHA9PNVN8kRQShT+A1CzCnQ4kE9pRrWo7XOj2j8pY1bCtRre7/WgIrrXVMK3VSI4OJHUzBAcCWAXu9NG/HGsMEE7heDwAQ0wABj2GWOSAAeyo0i2vvt3U7oVx4xRxOVAMAVEgh8LHqOXss1KzmfmCn2pThxoIP7eHHIgCAZgxmPAUfDlgzIKlJYy0wpMJW3IxuIDhfCy6xMNYYKqVwW6C5+Z/aqwbrCMDv7jAtWfWvbwpgZzn4cqCgRWsYs9VNZdT6xAFO1qge6BWZcFsAYYYgwyCmQWNPjzDUmky3x5QKFERVyMVa8H0EFVK4Gqhlu8MzCDezf0Tyvi3sKlfJIEusmZwZU8GcpjKWq1ejd3vC+AR4KgIASBNp1mjVrLHTWLt1VxqBH11hWjIAgBSDdTlw2q+z/N0hzBAOe2umFq0c9IYxCZApBgDIbVatTKn5wA7m4TqQXZ5QLFFZ7eRKuN+glXmyKXzqoHn7vTNUSmFv22AgVaS1Z8mUBid9dRs2+ouRRpDcBBVSzVJPK6/yNQNOAIjmwRY3+CBX1S6USbRGCigCm11hQdvKWCgXtrnBu9mAKUGKwa5yrYVwALCgwx4v6BwGCsMN4V7b3Wu9LcUtHYoEBv5m9s9wy4YBNwM1g3gAQBGYbgZPQuHdtjueIYaEJgAAHg0ehMB6B+KpFQDw5cB+b80yfCe8zNPsgzxTA1d17bzoHBQBQyq4s2GBBZzzh4chxD2zAMCnw8MQWGtHXLV0YMKfHvCTdj2NqXA7CL50JC4qW9LhP85wxl/L+tQ6eTvpB2ONtSwqLBRet4SEUBgzwOcRQrlwL1hrKmVEhY3OcNCbaOFZbQuP2hmsUAQiTeBekKYvbWWVDdwOgkgTjTGzFRYKSy0hIUxr3NUR//PQykZFNMNynQz0zUSUOq3ovSVLDLnNwEDBz0DLYKUTTAk5zVAkgRYMuBRwZ/fz+mA/IldCqggqpYABODLBg93ZznxMCSkiKJMCAmDPBA8W8YkhUCOD3GaokwGPBv5d7avvCzm4XcDv28KvbgAAGWIoaAEjCgRzu1jBECkguxnKJWBAAe+uHAM0yCFNBHVyoCJgQQdvds9O6WBKSBJBuQSMqeDN6cFJ3YG4mf0sEpKhjE6RkHQJeQaPhKQLSJGQkHQBKRISki4YLNdFJEMASzoc8lG9HlD78gsGOXEnIekCcrhFQtIFpEhISLqAFAkJSReQIiEh6QJSJCQkXUCagDvjQKVqo7sFTcul38DRgmmcehhSwJvTaW4AAIhv1JzF7dI3AACcqdFyBQIAC/jEXVuYEvZVap154qAwtxshRF5ISBNwZxjcUZ21GmkE94IH44oZYvB6qHo91hhuBXX9EcsYjY885fiu8wc+VjlDUXMtUOvkIADENULoE60UG4aWr3G9ghxukWidjesoRZ8hRUIC19qdxrlOigQHKRL9RX3IJb5Jy8ujBIN7bX7cOj8JoyeQIukZmWI4WQ3na4neazAltGCqv/be8gFAhsswRPBgq84kYUq4ges67jeoTgIioOUbW28hrVvdJUsMKzLhblsTiwBM5cHv7ip/IuVSsH+gcsznzYHUcK3PKgGcH0CJBACAT4fSEX2NFdEvMFCIMFS5Cb1WD7PbvMOoJyS+HN1OmfUNsifpFkUtMCJeoxAAUAKcr4WIOJVTdxsGRLUZiNJERA+UsQ0qhQDAAv6QUEgr49rqjHcSoJ6QjCPDRwIAKZJuUiyBWhn4cuBTB3jHRuMXolwKS9viX+PjYx3RdkFyDOdzfslARvTuKePbPCTkNqtC3TbI4Ukj8b96DimS7jLHHBLD4D/O8Js7JIZpfFbcEaj8Ms4w04iHIBJ1YAYfjpZPmWdOhKEmPtvVegCAWwKVzytEO36DPkOKpFtQENjirvFp2xp1RE2rg1AGCgva1qQzxZoFu8dCTTzyIdWNAAAd1XjmbzUEqyck/gb9Gf7luYYUSbfwbOfuaDxuvK52haZzxKUea6EILMJFOBoiqB2E36gHJcD1OmI6CSmSbtHehxg+SrV6kSGEqwmtdKRdEKwJJloxQIYIarVXy+BirSbU6Hhy1t4GKZJu0T6aB95AhQ9zsaxtQJXTDPGNkNCk8ZA/1MZarYRzgd0WXmR9m8tZFBlwF5LPEaRIukX7UBCluDhY+MWERZYazRypgmNt/YkBBV7p73CB/QIdhRFte4fVG5ADOFpRcPUcUiTdolJKdIB9ERdsHm+wMqfBy21iOFKlGWvNNtc02EON9ush5AoJHrK56C7LM+B6oCquUooIfmgLyo4iME27i1hmCSerAUATPBp6Ndaql3e2G9eVBY5MYmIn+Xm0Dh2zt18PIVdI8JAi6S4ZYvB8CFGmoFDCpTrNFqzFFuCk/bBO4YElHSpw4zE7Rm+MRclNnUVT+dYJvnAkJnaSf4IJXAvU/a8wQ+BQNFGKyAkJAXK41S2WW4EdAxoVcLwaTtVoFBJooBU8tRUqQgxCtNhySG+npSFaQdWCDMCIbDxxkCLpFrYMeBQKs80164k0BFZYwa0g3c/TMu2A4p0H7hoK4MdX5AoJAfL4bs+olEKKCCgIBBh0Zv/JawbXWNUZI4mRkwAAAKJJREFU8WAuxIUOVv1IBgCyW+0ZFnQdAbras7FQ40VhCK6yk/QIsifpNzLEkNwEVATO1sDfbfH7WCgUj+giKBTJEIfsSfqNnGaYl0pMXGdHKuS5h5y49xv27fZlzefD1066spI8V5DDrX5DpIBvC6BYAkoAewa8ZKqJD0zyXEOKhISkC8jhFglJF5AiISHpAlIkJCRdQIqEhKQLSJGQkHTB/wO7Ni3klye99QAAAABJRU5ErkJggg==;" parent="1" vertex="1">
          <mxGeometry x="404.42" y="240" width="75.85" height="60" as="geometry" />
        </mxCell>
        <mxCell id="XUYExaWCkDun1sldvAOi-28" value="" style="shape=image;verticalLabelPosition=bottom;labelBackgroundColor=default;verticalAlign=top;aspect=fixed;imageAspect=0;image=data:image/png,iVBORw0KGgoAAAANSUhEUgAAAK8AAAC5CAIAAADRf/ikAAAACXBIWXMAAA7EAAAOxAGVKw4bAAAgAElEQVR4nO2deVwTV9fHJ8lkIYRACPsuICIia6UIgriggrYVfeqGtlap1SpWpXSxVpHHulJfxbrUR9vax9rWHRVXEETFgoii7KBAwo7sSUjIMu8f0yY0IZMFkgx95vsHn2G4kzkJv9y599xzz8FBEARgYAAAAAB4QxuAgSIwNWDIwNSAIQNTA4YM0NAG6A+xWCwUCkUikUQikUgkAADgcDgcDgeCIAiCRCIRh8MZ2kYD8w9XAwRBbDa7qqqqpaWlsbGxtbW1p6enr6+Px+NBEASCIJVKNTY2NjU1tbOzs7KycnR09PDwYDAYhjbcMPwD1dDf39/a2lpfX//o0aPCwkI2m83j8eBeAflCIpFIoVBoNJq7u/vEiRN9fX0dHBzMzMzw+P+V5ynun+RvgCCorKwsLS2toKCAxWLx+fyhvJq5ubm7u/uUKVNmzpxpaWk5XEaimX+IGlpaWvLy8s6dO1dcXKyyD9AUU1PTyMjI6Ohob29vIyOj4X1xVDHi1cDj8Z49e3b8+PGKigoOh6OjuxAIBCaTOWnSpOXLlzs4OBCJRB3dyLCMbDUUFhaePXs2KyuLx+Pp546Ojo4xMTExMTEWFhb6uaM+Galq6Orqunv3bmpqamdnJzxd1A/wjHT8+PHr1q3z9/cHwX/UMHxEqqGpqeno0aO3bt3SW5egiJ2d3dq1a2fMmEGhUAxlw7AzwtQgEolKS0uTkpKqqqoMbQtAIBBiYmLi4+PNzc0NbcvwMJLUIBKJ7t27d+zYsfLyckPb8ickEikyMnLTpk2Wlpb/AFfmiFEDBEHZ2dk7d+5sbm42tC3yTJ06NTEx0cHBwdCGDJWRoQaxWJyfn799+/aGhgZNryUQCKampgwGw9ra2snJydnZmU6nGxsbk0gkDofD5/Obm5tZLBaLxero6Ojo6Ojr69P0MyEQCG+88UZKSoqZmZmm5qGKEaAGCIKeP3+elJRUXV2t0YUgCI4ePTosLCwoKMjBwcHGxoZAIChrzOFwmpubq6qqcnJy8vLy2traNLoXHo+PiYlJSEgwMTHR6EJUMQLU8OrVq8TExMrKSvUvodPp48aNW7FiRWBgoBaeIg6H89tvv928ebOqqkqj6evixYs3bNhApVI1vSNKQLsa2tvb9+/ff+XKFTXbU6lUHx+fefPmTZw4cSj9tlAobG5uvnTpUnp6emtrq5rebgaDkZCQMGfOHIROCM2gXQ3Hjx8/efKkmn4FJyen5cuXR0ZGDuPzu7Ky8uzZs5cuXerv71envb29/cGDB8eMGTNcBugTQlJSkqFtGBwIgqqrq5OTk9VZfQBB0MXFJTk5OSIiYng7aiaTGRQURKFQqqur1RFlb29vW1tbSEjISPRKoXflvqen5/vvv+/u7lancWho6O7du/39/XXRRVMolNjY2MTERFtbW3XaP378OCMjY9jN0APoVcOtW7dycnJUNgNBcPHixTt37hw7dqzujKFQKFFRUQcOHBg/frzKxhwO59SpU01NTbqzR0egVA2dnZ0XL17s6+tDbgZP9FevXk2n03VtEg6H8/Ly2rhxozo9RF1d3blz54RCoa6tGl7QqAaxWHzt2jV1vAtBQUFffvmlPpcJ/Pz81q9fb2pqitxMIpFkZGSw2Wz9WDVcoFENnZ2d6enpAoEAuZmzs3N8fPyoUaP0YxUMkUicOXPmkiVLVAZB1dXV3bp1S5+r7UMHjWooLCysqKhAbkOlUpctW+bt7a3/tSIikbh06dKIiAjkZhKJJDMzs7W1VS9GDQ+oU0Nvb+/Vq1dVenumTZs2Z84cQy0b0un0FStWqHxesNnsx48fo9yjMxDUqaGurk7lgjWTyXzrrbeMjY31Y9KguLu7R0ZGIk9o+/r6cnJy1HRboQHUqaGgoOD169fIbUJCQvz8/PRjjzJAEFy2bJmNjQ1CGwiC8vPzOzo69GbVEEGdGh48eID8mKDT6bGxsWiIZB81atTbb7+N3Kajo6OgoEA/9gwddKmhq6urrKwMuY2vr6+Xl5d+7EEGh8NNnz5dpaujtLRUP/YMHXSpoaSkhMvlIjQgEAgzZ85ET8yZtbX1uHHjkNs8ffpU5bMPJaBLDSrjCaysrDw9PfVmj0pMTEx8fX2RN2q2t7e3tLTozaShgCI1CIXCqqoq5PmYq6urmktH+gGPxwcGBpJIJIQ2PB5Pd5vAhhcUqYHP56tcsXR3d0dbqJmfnx+ya7y3t1eLcE6DgCI1cLlclZ47T09P9AwaYCgUCnK0NARBmBo0RiAQIA8hAQBwcnLSjzEaoXKtRNOYW0OBIjWIxWKVbjtra2v9GKMRKgPvhphJQm+gSA0ikQhZDXg8nkaj6c0e9VEZ9GbA/aIagSI1AACgckyAzj3RKh1QasbzGRx0qUHlcp9YLNaPJRqhcgKpcrUTJaBIDUQiEXn1QSKRoHPirjIwZ6Tst0GRGkAQRHbjAACAThdve3s7cgM9hG0OCyhSA5ygD7nNq1ev9GOMRjQ2NiI3wPoGjTEyMlIZ71pdXY22UKL+/v76+nqEBng83s7OTm/2DAUUqYFKpap0J7x69Qpts7WamhrkRSkajebq6qo3e4YCitRAJBLHjRuHPMmsqalBW9xpWVkZspvEzMxspOR1QJEaAABwdnZGXh1uaWlBT5ofAAB4PF5eXh5ysJaJiclISVyNLjWMHTsW2dvY19d3//59vdmjkra2tuLiYuQ27u7umBq0wcTERGX4a25ubl1dnX7sQUYikeTn57NYLORmQUFB6HShKoIuNeBwuMDAQOTPrqur6+zZsyodPnqgsbHx3LlzyMFaTCZzwoQJejNpiKBLDQAABAUFISftFYvF6enpBg89FYvF586dU7lZ1NfXd6Q8JgAUqsHe3l5lYpT29vbLly8bdqrJYrFu3bqFvAubQqGEhoaqdLCiB9SpwczMbO7cuSoXMzMyMh49eqQfkxQRCoUXL15UGdFkYWERFhY2goqdoNHQCRMmqEzN0dPTc/jw4YqKCv27JoVC4dmzZ9PS0pCb4fH4qKgo5M1YaAONajA2Np42bZrKzH5VVVVHjx5VuWI0vEAQ9PTp0x9//LGzsxO5paWl5bRp09AWxYkMGtUAguBbb72ljjc3MzNz//79vb29erAKpqSkZM+ePSr3R8DbsNzc3PRj1XCBRjUAAGBjY7Nw4UJ1En9mZmb+/PPPPT09ujYJLp/33XffqZP+3tzcPDY2dsSlhUOpGnA43LRp04KDg1W25PF4P/30U0pKik73M4lEosLCwvj4+NzcXJUjFSqVunLlSkdHR93ZoyNQqgYAABgMxvLly9WJDODz+VevXt28eXNpaakuBpVisfj8+fNbtmx5+fKlOq/v5+c3a9asYTdDD6BXDTgcLigoaO7cuerM0EQiUX5+flJS0h9//DG8ZvD5/N9///3QoUPIQQxSKBTKihUrRmjFRLRnFm5vb9+xY4f6yThBEAwLC1uyZImvr+8Qczy0tbXdvn37woUL6tfJodPpmzZtmjt3LpZnWleUlpZu3rz55cuX6l9iZWU1adKk+fPnu7u7axqFBsfiZmdnX758ubi4WGXOSik4HG7BggUJCQloyDSiHSNADXDVmm3btqmc4sthamoaFBQUHh4eEBDg4OCg8onT399fVlZWUFDw8OHDwsJCTaP1/f39d+/erWbQm1AofP36dU9PT3d3d29vb2dnJ5/PJ5PJdDqdTqebmZnR6XQLCwsymayRDUNkBKgBAACxWHz79u29e/dqETNNJpNpNJq9vX1gYKCTk5OjoyOFQgFBkEAgiEQikUjU0dHBYrEqKytLS0vb2tq4XK6mOsDhcN7e3nv37rW3t1fpbqqvr8/Ozk5PT29ubhaLxSKRSCwWC4VCCILg8ooEAgH+yWQyp0+fPmvWLL3lxBwZagAAQCQSXb16NSUlZYiuBQKBQCKRSCQSCIICgUAoFA59cTwoKOjTTz9VJ9F1bW3t119/rX55ZxAEXV1dk5OTVWaQGRZGjBpgbt68mZqaip6MvSAIBgYGfvPNN+psF25oaPjkk09UJkZVxNnZ+dtvv9VDzQv0zjAHZdq0aZs3b/by8kLDwiCFQpk3b15ycrI6UoAg6M6dO9qV8ayrq7t+/boevreG/0w1gkgkhoaG7ty5MzQ01LDhZQwGY+3atQkJCWoOG7lcbnZ2ttZpp+/fv6+HvJMjTA0AAPB4PD6fb9iYdAaDsXLlytjYWPWnrywWaygZXlpbW2tra7W+XE1GRvSmlMLCwitXruTk5Lx+/dpQIx4ajbZ69eqYmBiNqum1tLQMZa1VIBDoofzJyFADn88vLi6+dOnSjRs3DFsCxNzcPC4ubuHChYreRg6HU15eDvfnlpaWrq6u8EZ9iUTy8uXLtLS0QUP3iESira0tjUYjEokikaivr6+xsVExFwyfz//tt9+sra39/f3hRySXy3316lVra6tYLLawsHB3dx/63l+0zykgCGpsbISrU7a0tBjWWiaT+dFHH8XExMgtVff39z958uTEiRPV1dVwTgE6nW5raztx4sTJkyc/ePDg+vXryqL+x4wZs3XrVktLSxAExWIxj8fbs2dPbm7uoI0tLS0jIiLmzp1bWFiYk5PDYrG6u7slEomJiYmzs/OiRYumTJkylGV0VKuBw+FkZWX99ttvz58/N7QtAAiC8fHxsbGxiv7B//znPz/99JN2jpCoqKhdu3ZJexoIglJTU0+cOKHFS9FotJiYmMTERK0DrlD6pBCLxTU1NT/88ENGRob6KwW6AwTB0NDQpUuXygVAwxWLfvzxR63HBF5eXgMfOjgcbvTo0dq9FIfD+fXXX0ePHv3WW29pN+FCoxrEYvGDBw8OHz5cXl6Okq7L1dX1448/VoyFr6qq+uGHH4YyPFSMlhuKH1okEv3www8uLi7+/v5aXI46NXA4nAsXLhw+fHjoXQKJRLKzs7OxsTE3N7exsXFxcWEwGHQ6nUwmS5cZhUIhh8Pp7e1tbm5uaWlpaGhoampqampqa2uT+gaIROLq1asVE9+3tbWlpqaWlJRobaG5ubmih9HFxcXS0lLrFJO1tbUHDx7ctWuXFimY0aWGzs7OXbt2ZWdnay0FMplsamrq5uYWEBAQEBBgZWXFYDCoVKqas0GRSNTV1dXR0dHQ0PDs2bPc3Ny2traIiIjw8HC5lhKJ5PLly1oH15DJZAsLixkzZigmCCOTyYsXL75+/XpjY6N2O4iKiopOnTq1YcMGTUeUKBpFlpeXf/fdd/fu3dPiWjweb2tr6+fnFxQUNGnSJEtLy2EJXRcKhWw229TUlMlkyv2psrLy/fff1yIrGZy2PioqKjQ0VPFlpfB4vPz8/CtXrjx58kQLLySJRDp69GhQUJBGV6FCDRKJpKysLDk5uby8XFPfrYmJyahRo2bPnj158mQmk0kmk/WwhUEkEu3bt+/MmTMaXUUkEn18fNasWePt7a1mUa6+vj4Wi3XkyJE//vhD035i6tSpe/bs0ah7QIUaHj9+vHPnTjVjUKXg8fjg4OB33nknODhYnwVSAQCorq5ev369sqXUiIgIKyurjIyMgd9pGo22bNmyhQsXIvQHyuBwOLdu3Tp8+PDAwYSJiUl4eDiVSj137tygVzEYjJSUFI26B8OrIScnZ+fOnRr58CkUyvjx4xctWhQZGWmQzUw7d+789ddfB/2Ts7PzqVOnmExmf39/YWFhZmZmQUEBiUTasmWLshrcEomkp6eHw+GQSCQGg6FsiMNms3fv3s1ms/39/cPCwkJCQqhUqlgsjouLU1Y6KzQ09NixY+q/L0OqQSKRlJSUbNmypaamRk0zCASCnZ3dggULZs2aZagtjvX19UuXLh10xx+VSv38889jYmKkGhWJRE1NTXg83t7eXq4xn89vaWm5fv3606dPu7u7+Xw+kUik0WhOTk4xMTFubm6KnuaOjg4Oh2NraztQMQ8fPtyyZcugUWFEIvH06dPqlwEz5JyipKRk79696qeAJBKJUVFRS5Ys0U8gkDJyc3OV5Y0ODw+Pjo4e2F2BIDjoNpuysrLff/89IyND8aWePHly7dq1wMDAZcuWhYSEDPQjmZubKz4Tg4ODZ82adfr0acW7CIXC3NzcEaCGmpqagwcPqu9ytrS0XLJkyeLFiw1bFFUikbx69UpZHBuNRuNyucgDN6FQmJWVdfjw4draWmVDZqFQmJeXV1lZCQ81kMv19PT0IDSoqKgQCARqRtsaRg19fX0nT54sKChQcwbh5ua2atWqyMhIjRaRdYFEIkF4qKWlpXG53Pj4eIRtd/fu3UtJSVG5PA1BUEdHx/fffy8QCNauXausWWtra2pq6q1bt5Q1IJPJ6seJGUANfD7/woULV65cUWesQCQSfX19k5OTUbKtEQRBDw8PIpE46MK6UCi8ceNGdXV1QkJCSEiI4gi3tLT04MGD6kcq8Pn8H3/80cXFZcaMGYrfhOfPn6empubl5SG8gouLi/pfIQPEPj18+PC///2vmlKIioraunUrSqQAM2nSJOQKA9XV1UlJSdnZ2XLn+/r6zp49qzKHnBwCgeCnn35SnHNVVFRs27bt8ePHCNeSSKSZM2eqfy99q6G7u/vAgQMq03QDAACC4OzZsxMSEvS2m0BNrK2tY2NjEfJaQhDU0tKiWPS3oqIiIyNDi9DI6urqhw8fKr4am81GeDUqlbp06VKNvkh6VQOPxzt06JA68X0kEikqKiohIUHPbiU1iY2NjYuLQxjPEggExX/D7du3tYuBEIlEmZmZcl5wFxcXhLEhhUKZP3/+hx9+qNGN9DpuuH///o0bN1Q2IxAIU6ZMWb9+PWrTMxsZGb333nsUCuXkyZODLjbicDi58nx8Pr+oqEhr7w6cYHtgh8RgMJTt/TU3N1++fPmiRYs03RGqv76htbVVzQChsLCwzz//HOX5s4hEYmxsbHx8/KB/xePxclLu6OgYSnWr/v5+uXQlFhYWykJaFixY8MEHH2ixOVhPaoBT6qmzt2Ts2LFr1qwZKfkPlD0scDicnA9AIBAMpSiXQCCQ64RIJJKyu2u9SVxPaqivr1cnHTAIgp999pk6GxpRDgRBcmUK8Hj8UJZUiESiXGcDQZCyz1PrjWj6UAOfz//ll19UBvMYGRmtXLnSz89vpGTVKykpuXjx4qB/giBI7rnAYDCGkteBRCLJJVzu6OhQVhfj7t27hYWFWkxe9KGGly9fqhPD4u3tvWzZspGSrr26ujo5OVlZqDsEQc3NzQPP0Gi0oXhNSCSSlZXVwDO9vb3KHj1Pnz5NSkp68uSJpnfRhxpOnz4t99EoYmtru3HjxpFSN/Lx48cff/wxQtIxsVgsN5HG4/HR0dFaZ+eYPXu2XN9QU1OD8OStqalJTEy8c+eORnfRuRpqamoePHiA3IZIJMbExOhhR/qw0N/ff+zYMWTvMolE4vF4clrx9/f39PTU4o6WlpZTpkyROykWi5Fdzu3t7ZqmVtWtGiQSyY0bN7q6upCbOTk5vfvuuyMlV3tubm5RURFCA2Nj47i4uGXLlskNgCwsLGJjY5EXJBXB4XBz5sxR3GQRHh6+fv165HIH9fX1169fV/9eulVDU1NTVlYWchsqlfree+8h16RADxAEFRcXKxu+4fF4Nze3HTt2fPDBB4quaxwOFxkZuWjRIo10P2nSpJUrVypuBjcyMpo/f/7u3bs9PDwQUtCVlpaqP7PVrRpevHhRU1OD3MbDwyM0NFSnZgwjYrG4vb1d2XDB1dV127ZtU6dOVfb/BkFw6dKl7777rpqD5ZCQkDVr1igbToEgGBISsn37doTyT52dncgl+QaiQzWIRKKMjAyVPoalS5eqkxsFJYAg6OzsrOy7OHv2bB8fH+Tpvrm5+WeffZaUlIScVp1Op8fFxe3bt09ZNKUULy+v+fPnK/urnZ2d+mHTOpzOtba2vnjxArkNvJFZdzboAi8vLxKJNOj+n0uXLr355pty/z+xWAxB0MDOAI/Hz5kzZ+zYsdnZ2dnZ2SwWSygUCoVCOEOZmZkZvJ/Hx8dHzkUhkUgUB48NDQ2//PKLMmvHjx+vvv9Gh2rIz89XmdBvzpw5I6XiuJSAgIBx48YNGqbMYrFOnjy5Z88eeCbJ4/GKiooePXpEoVDkcmYTCAQPDw8PD48lS5bAaRg6OzuNjIysra0dHR0HXaOBvfuvXr0KCQnx8/ODHx8QBJ05c0ZZjVB7e3vFyQgCulJDX1/fgwcPkJ9Y1tbWGtmKEuBnf1lZGZfLVfzrvXv3Ll265O7ufvfu3dzc3JaWFi6XSyAQSktL16xZM3bsWLnnCI1G8/HxUXlTFot14sSJmzdv9vX1Xb58mclkBgcHw5/e+fPnBx0nwutqGqXS1ZUa+Hy+ylzA48ePd3d315EBOsXPz8/X13dQR6RIJDpw4AAEQQO3RolEonv37tXV1b3//vtz5szRaP8TBEE3b9785ZdfpNNaHo/H4/HYbHZaWhqVSlVMBAPj6emp6ZdNV2qoqalROZuIjIwcoSmZmUzmihUr8vLyBv1SDtpnAABQW1u7ffv2ixcvxsTETJkyReWkuqen59GjR+np6dnZ2YPOYvr7+xF63/nz5zs4OCDfQg5dqaG4uBh5mmtpaalytIxmfH19J06c+PDhQ00DWF68eFFeXn7+/Png4OAZM2YoPjsAAGCxWBkZGVlZWVVVVcq0hYy3t/fkyZM1vUonapBIJIWFhchtpEmyRigUCiU+Pr61tbWyslLTa4VCYWlpaWlpaXp6+vnz5+WWqkUi0YYNG7TLMwrj4OCwYcMGLRx6OvE3tLS0ICf/JRAIPj4+mtYKQBuenp5xcXFDKYXb1tamGELd1tam/v4zRWDf7htvvKHFtTpRQ3d3N3JiAxKJ5OnpOVIWr5WBx+MjIiLmzZun9RuBd27JnWSxWEOJkoqOjo6OjtauXIqu+gbkGEAymax1ritUYWRktHz58unTp2sdbqSYKEjr1EE4HG7ChAnr1q3T+hGsk29nTU0NcuoJOp0uF7sxcjEzM9u4caORkdGdO3e4XK50UEmlUi0sLPz9/YuLi2Fv46CXV1dXwxspYY+hUChEmIvBRSsCAgLKy8vb2toGLppTqdTg4OD4+Hgt8kNI0YkaGhoakEfadnZ2ht1cO7zY2dlt3bp11qxZeXl5DQ0NOBzO3t7e39/f39+fTqd3dHRcvXpVWcjPy5cvU1JS4ABoOJFDfn7+oHdhMBgxMTHz5s1zdnbmcrlPnz4tKiqqr6/v7++3srIKDg4ODg4eYq0bneRv2LRpE3LUzZIlS7788sthv6/BEYvF/f39OByORCINfHZIJJK0tLRdu3Zpnd2MRCJt3Lhx0aJFA8cocKAsvAgyLPuVddI3qIy3GSnRDJpCIBAG9afh8XhnZ2djY+Oh5Lpzc3OTG67icLjhLcerk1Gkyhxm/1Q1IGBrazuUuSidTtfUsagFOlGDyr5B02iwfwCWlpaBgYFaX+7j46OHzWc6UYOydZQ/b4nH/w+qAQTBt99+W7tO0dzcPDo6Wg+ZTHSihoCAADqdbqIEHx8fLZLe/gPw9PRcvXq1poKAg6DUKTA/dHQyp2hqakJIamRlZeXq6jpCawsPETjs48iRI9XV1eq0t7W1XbVqVXR0tH68+IbPF/k/CARBRUVFRUVFXV1d7e3tPB6Py+Xy+XwSiUSj0chksqWlpampqZeXV2BgoD5TXWFqMDxCoZDP5wuFQhAEKRQKkUg01E5UTA0YMkZeBUQM3YGpAUMGpgYMGZgaMGRgasCQgakBQwamBgwZmBowZGBqwJCBqQFDBqYGDBmYGjBkYGrAkIGpAUMGpgYMGZgaMGRgasCQgakBQwamBgwZmBowZGBqwJCBqQFDBqYGDBmYGjBkYGrAkIGpAUMGpgYMGZgaMGRgasCQgakBQwamBgwZmBowZOgke2juH4+7e3rg44iwUCMj+QyXHR2deQV/FrCwtbH28/HWhRlDgcVuKCkbvHTYoETNmKZLY+pLyirg4zf8fS0tdZVtUydq+OnnMxVVf2a58vcdr6gGFrt+974D8PHUiDAUquFp0fP9B4+o316naigofHbwu+/h413/3qo7NWBPCgwZI7teiO6gkMkMxt8KDHG5PGlJMRMaDST+Az+6f+BbGhZmRk6dGTl14Jnt3+y9m30fPt6RtNnPdwSXaFMGGtUAQRC7vrGhsZHH6yORiBZMpusoFzJZaV16Pp9fXlHV1d1NM6a5jnI2N5dP7g1BkLRYCEgk4nG4VzW19Q2NNtbWHqPddPEWGhqb2PUNXC6PQCCYmZm6jnKmK0mmzOXxXr6s6ezqlkgkxsZUZ0cHa2t167hIJBKRSCT9deipBVGnhlt37v7485mm5paBJ8lk0szIqetWfyinCS6Pd+KH/167cVvah+NwOD/f8etWr3R3k9Usr6yqXrV2E3x8MGVnds7DS1fS4V/DJ4X8e9twVsrI/ePx0eM/sNj1A0/icbiwSRPXr/3IgmkuPdne0fHd0RM5Dx4N/I8CADDKxTl+TVxggB/yjfgCwYZPN5eV/1lxLyR4wo6kr4aYoRddo8hzF9N27v0/OSkAACAQ9F+5dvOLLduFAz64np7e+I2fX0y7NrBCKARBT589//iTxPzHTwa9xcW0a1IpAAAwvH1DzoPczVv/LScFAAAkEHTvfu7GxM3SfOw9vb3rNnx+N/u+nBQAAKiprfv8q+1/5A9Sp1v2ghJJ8jf7pFLw8x2//esvhp6sGUV9Qy+Hc/zkz/Cxx2i3WTOmmTMYnV1dV67drKmtAwCg8NnzjMzsqJnT4Ta7Uw6+fFULH7s4OwZNCOzq7L57775IJBII+v+969ufTx6RGwkCAHDv/t/KHU+fqnEJUWUIBP37U4/C2ViJIDglIszG2qq9oyM7JxeucMpiNzx8lD9tSjgAAGd+v9DY1Ay3nPv27NHurgQCoaSs4giaF14AAAeuSURBVPKVdIlEIhSJDhw6dubUcWXF0w4e/v7hozz42HPM6F3JX5NISp+k6oMiNZSVV0q/5V98usHN1QU+nhk59YNV8QwzU3c3Vzr9z6dveUWV9OMI9Pfd8802OB/z7OgZGz/dLIGgnt7eC5evxn2wTPFG06dO/mTtRwAA5BcU2tpYD5f9LHa9BdMcnnokbFwn9UBMnRye8MXX8DEsawAAip4XwwfBb05YtyZOapgF0/zylXR3N9fR7q69vRxTU7rijc78fv7ylevw8SgXp327tlOpw1OA2vBqkA588DjZ9yBpx565b0W/GRToYG9nTKWePX1S7qqse/elxx+ueE+amtvPx3ticBAslLvZ9xXVQKFQEj5ZC398w9gxAAAw2t31xNGDEomEXd/g6CirMzNqlJP0mMv9sxSg9Ev/8FHe3v2pEWGhPj7eFDI5dtG/Yhf9C+Eud7NzMu7eg4/tbG2+3fNvZeNTLdCJGnB4DUa2UjV4jR1DpRrxeH0AALDY9alHjgNHAHNzhr/v+AlvBISFBNNosjJ55RWywsJ9fH7pX45bAADoJjT4oLGpmcvjGf89l7/3OM/h+iYNCh6Pd3Zy5PJ4JaXlFZXVxSVlz/7qBgAAkJY9fSPAr7ikDAAAiUSSfuNO+o07IAh6uLsF+PuGhQZ7jlFaLPROZrb02GvsGKa5ubKWWqATNRAHFOOSDFb2dWAtWOnYh0o1+nTDum/27B/4146OzsysnMysnANk8ry5b614fwncDXR2yaqvbkz8alAzIAhqbX09ysVp4EkrS0tt3pJ6SCDo+s076Tdul5dXSgZL5y79nixeOP+P/IKBmhaJRKXlFaXlFad/Pesx2m1j/BqvsWOQb5eZlTPvnTnjvDyHy36dzCmMBnwd+/gCxQYDTw6s2jZtSvjRQykR4ZMUx0R8geDM7+f3fnsI/lVZKRQ5BAL5u9OMdVX2QywWf7Fl+779h0rLKmAp2FhbTZ86ef3aVdI20qchhUw+tH/3mlUrnBztFV+qsurlhsTN0kGGHGQyCf5KQBCUeuT4MFYR0EnfYD5gJM9i10vHg1LaXr+WHpvS//bYGzPaffvXn/P5/CdPiwqfPn9eXFL9skb6v7+dmfVR3PsWFkxTUzq7vgEAADwen3b+NBEcvKQHmSJfLVR3xT9u3M7My/9zWhsRPumjuPftbG0AAOjlcFIPH4fPD3yGkkikRe/GLHo3po7Fzi8oLHpe8qK4tOuvitMCQf/5S1cTN66Ttx8EdyR9Vfi06NezFwEAKK+ounnn7nCtmelEDY4OMr2fu5g2KTT4b88OieR2Rpb0V3u7P2tc8Xh9LHY9i13f2NT83tJFoRPfDJ34JgAAXd3dyd/se/K0CG7W2NRsYcH0cHeTPnfr6xsHdqr3Hz4yohi5uDgNdPVI0brgtUr+yPvTQ0AgEDZ/tlHqKOvu7pFrKYGglpZWFqu+jl3vNso5MMDP2cnx3XnvQBD08FH+V9t2wM0aG5sU77JuzYdBbwSMGzvm+q0M+JWPnzw1eVLIsAyGdPLRhARPkB6XlJZ/+sXWJ0+Lurt7OBxuSWn55q07pIM+PA4X9EYAfLzn24Mfrdv0zZ79P/58JmPAWMnM1NRhgLyYTHMAACaHh0rPHPn+pNSrw65v2L5jb8IXX89f9P7HnyTq4t0pg/dX5VOxWNze3i49//v5S9JjkVAEAEBdHXvRsrjPvko6fOzEoaMnBAKZI3Xc2DHSYTVzMDVbWVkCAGBsbPzBe0vgMx0dnT+f+X1Y3oJO+gbXUS5TJk/KuvcA/vVZ0YtnRS8GbRk9K1K6rLBk4fycB4/gh8Leb1OfPX/h6eEhEouKS8qy/lou8ho7Bu5L/Hy8A/194Q7jRUnZBx+tDw8NxuFwN29nSv2V/4p5WxfvThke7q5PCp/Bx599tX3xgvl4PO7O3XvSkwAA9PT2AgAwysUpdOKb8DS4prZu1doNM6ZPNTM1bXv9+ubtTOk4YMb0KQi3e3v2rIuXr8F+z/MX0t6OnmlnN9RKgrryNyRuim/v6Hz+ogShjb+fz9rVcdJfx3iM3hC/+kDqUQkECUUieN41sD2DYbb5s43SX7/enLh+0+csdgMAAI2NTb+duzSw8cJ/xUyNCBueN6Me/4p5O/3GHfj/za5v2Ls/FT5PoxmbmZrWNzQCACB1nn7x6SeffLr5VU0tAAC1dezjJ0/Jvdq7896R9pqDQiAQ1qxa8eXXyQAACEWi746d3Jm8ZYhvQVcPUWMq9cC+b9avXTXoipyDvd0n6z5KUXCivTMnKnX/7gA/H/zf1+LIZFLUjGknjx0cOCJhmJkeO/TtgvnvyLlfrK2tPt2w9uOPVgzrG1KNhQXzQMrOgQsfeBwudOKb/zn8fzHvzIbPsNj1VdWvAACg002Opu5btmSBou98lIvzli8SpA5KBEKCJ0gXtx4+yit48gy5vUr0UeWspbWtqamZw+XhcIAJjWZrY60ylovL5dbWsXt6ewkEgjnDzNnZiQgq7cbEYnFNHauzswuSSGxsrB0d7A1VMw6GXd/Q2NhMJBFdRzmbmZoiN5ZAUENDY2trm6BfSKUaOTrYDa9DSSOwmncYMtC1oo1hWDA1YMjA1IAhA1MDhoz/B5rFynoIZP8IAAAAAElFTkSuQmCC;" parent="1" vertex="1">
          <mxGeometry x="570" y="239" width="39.73" height="42" as="geometry" />
        </mxCell>
        <mxCell id="XUYExaWCkDun1sldvAOi-48" value="LLM-based Task Decomposition and RAG-based Retrieval Validation" style="text;whiteSpace=wrap;fontStyle=1;fontColor=light-dark(#3CD2D8,#EDEDED);" parent="1" vertex="1">
          <mxGeometry x="223.75" y="202" width="399.25" height="19.59" as="geometry" />
        </mxCell>
        <mxCell id="XUYExaWCkDun1sldvAOi-57" style="edgeStyle=orthogonalEdgeStyle;rounded=0;orthogonalLoop=1;jettySize=auto;html=1;exitX=1;exitY=0.5;exitDx=0;exitDy=0;exitPerimeter=0;entryX=0;entryY=0.5;entryDx=0;entryDy=0;" parent="1" edge="1">
          <mxGeometry relative="1" as="geometry">
            <mxPoint x="367" y="289.40999999999997" as="sourcePoint" />
            <mxPoint x="367" y="289.4100000000001" as="targetPoint" />
          </mxGeometry>
        </mxCell>
        <mxCell id="XUYExaWCkDun1sldvAOi-62" value="" style="shape=image;verticalLabelPosition=bottom;labelBackgroundColor=default;verticalAlign=top;aspect=fixed;imageAspect=0;image=data:image/png,iVBORw0KGgoAAAANSUhEUgAAALkAAAC4CAIAAAAwk9quAAAACXBIWXMAAA7EAAAOxAGVKw4bAAAdkElEQVR4nO2deVxUVf/Hz+zDwAzbyCr7KsjmgqLJpiw+WaZWWvaEaKK/EkMRkUDElLQMSyn0IbPkKa0el6xMRdFwFwGRJUEUkH0blmGGYfbfHxev08wwXgm4w3TeL/64c+6Zy/fO/cxZvufM90uQy+UAAsEAEW8DIOMGqBUIVqBWIFiBWoFgBWoFghWoFQhWoFYgWIFagWAFagWCFagVCFagViBYgVqBYAVqBYIVqBUIVqBWIFgh420AViQSSUNDQ1VVVUlJSWNjY0dHB4fD4XA4EokEb9M0QSaTTU1N2Wy2mZmZt7f3jBkz3NzcqFQq3nYNB4L273VqaGi4devW77///uDBA4FAIBaL8bZomBCJRDqd7uLiEh0dPXv2bDqdjrdFz4f2akUul9fV1Z06derChQttbW3jVyKqsFis0NDQtWvXWltb423Lc6ClWunp6Tl79uyxY8dqa2vxtmVUIBAIAQEBO3bsMDMzw9sWrGijVu7fv3/w4MFr166JRCK8bRldIiMjU1NTmUwm3oZgQuvmQSUlJfHx8ZcuXdJ5oQAAzp0798svv8hkMrwNwYR2tSs3btxISkrq6up6Zk0Wi2VoaGhkZEQikcbAsGEjlUp7eno6OzsFAoHaCubm5tnZ2Y6OjmNs2DDQFq3IZLLbt29v2bJFg1CYTKa7u7u/v39AQICdnR2JRCKRSAQCYSztfF7kcrlUKh0YGLh69WpOTk5NTY3qB/7WW28lJCQQiVrXxiuhLVqpqalJTEysrKxUe9bQ0NDf33/p0qUeHh7jpXdXpaGhITU1taioSOkzd3Z2PnDggIWFBV6GYUQrfHFcLvfgwYNDCWXatGnR0dHTp0/X09MbY8NGFhsbm/j4+Pj4+ObmZsXypqam0tJS7deKVrR7586du3Tpkmo5g8F45ZVXMjIyAgMDx7tQECZPnhwWFqbUbwoEglu3buFlEnbw10p3d/eJEyeEQqFSOYVCWblyZXJysomJCS6GjRLh4eFGRkZKhVVVVVKpFBd7sIO/Vq5du/bw4UOlQiqVGhUVtWLFinHnCH8m1tbWEyZMUCpsb29vb2/HxR7s4K+V69evq7pSpk6d+u9//5tGo+Fi0qhiYmJiaWmpVCgQCNra2nCxBzs4a0UsFpeXlysVksnk119/Xce6HhQCgaB6a2KxuL+/Hxd7sIOzVjo7O7u7u5UKbW1tfX19cbFnbDA0NFQqEYvFQznrtAectdLT06O6AcXa2lpfXx8Xe8YGFoulVCKTybR/IR1nrahOfwAAxsbGujFDHgrVu5NKpWo/Cq0C/7GtquNYy932/1jw1wpkvKAVPv4RQSQSVVVVlZWVNTc34+LXIpFIFhYWXl5ekyZNGqc7ajWjI1qRyWSnTp3KysrCsp9hVDE2No6Ojo6KitL+dePnRUfup62tLTs7G3ehAAC6u7tzcnIeP36MtyEjj45opaamRtVPgxc9PT11dXV4WzHy6IhWKBSK9syeiESiTvqHdEQrnp6eEydOxNuKQaysrFxcXPC2YuTREa3o6+snJyd7eXnh68Sj0+lubm6bNm0yNjbG0YxRQkfmQQAAf3//zMzM5uZmHB2gFArFwsLC3NwcLwNGFd3RCgDA1NTU1NQUbyt0Fh3pgyBjANQKBCtQKxCsQK1AsAK1AsEK1AoEK1ArEKxArUCwArUCwQrUCgQrUCsQrOjUepBQKOTxeDiuHVKpVH19fV39wYruaKWxsTEzM7OoqKijowOXCGxEItHExMTX1zc2NnZcxPR6XnREK2KxOCEhQfWn0WOJTCbr7Oy8ePFiU1PTt99+y2AwcDRmNNCR8UpZWVl1dTXeVgxSU1Nz//59vK0YeXREK3w+X3sif8pksp6eHrytGHl0RCsTJ07Unu3QDAZDezb/jiA6ohUbG5vFixdrQxAoOp0eERHh5OSEtyEjj46Mbclk8po1azw9Pa9fv45j+89isWbPnh0YGEgm68gHq4ju3BKDwQgPDw8PD8fbEJ1FR/ogyBgAtQLBCtQKBCtQKxCsQK1AsKI78yAAQH19/d27d1tbW/GK62RmZubj46OTC4dAl7Ty888/7927t7e3F0dnP5FIZDKZsbGxS5cuxcuG0UNH+qCOjo7MzMzu7m58V4VkMllvb++BAweUsr7oBjqilerqau2J68TlclWzUegAOqIVMpmsPXGdAAC6F1gQ6IxWnJyctGdp19LS0tnZGW8rRh4d0YqpqenGjRvt7OzwNgTY2trGxsZqf0K6YaA786DAwMApU6bgO3BhsViurq6qqRl0A93RCoFAYDKZU6ZMwdsQnUVH+iDIGAC1AsEK1AoEK1ArEKxArUCwojvzIBwRi8WFhYW1tbXm5ubTpk1TTX2pG0Ct/F04HM5nn32Wm5srEAgoFMq0adNSUlJsbW3xtmvkgX3Q36Kjo2Pnzp2nT59GMuaKxeLbt28fOHAAb7tGBaiV4cPhcNLT0y9evKhYKJPJCgoKtD+B7jCAfdAw6erqSk1NvXLliuopXY2/oo3tSnd3d39/P95WaILD4aSkpKgVCoVCCQsLo1AoY2/VaINzu0IgEFT3ndy8eXPXrl2vvvqqgYEBxuuQSCQ6nU6j0Wg0Gp1OH9XtI11dXVu3br127ZrqKQqFEhQUFB0dPXr/HUdw1oqTk5OTk1NFRYXi3kexWHz69On8/Hzs304ikUgmkykUCoVCMTQ0tLe3d3BwcHd3d3R0NDExeeY2KLFYXFlZmZeX19PTExAQEBAQMNRaMYfD2b59+9WrV1VPUSiU4ODgpKQkuM48KhgYGCQnJ6enp5eVlSmWy+Xyv7O14M6dOwAAfX19e3v7oKCgiIgIGxuboZQnk8nOnDmzb9++zs5OAMCZM2fmzZu3bt06a2trpZrt7e3p6emXL19WvQiZTA4PD4+Li5swYcKwzdZy8B+veHp6xsbGGhkZjfiV+Xx+RUVFVlbWO++8k5WV1dbWprZaZ2fn0aNHEaEAAAYGBs6cOZOSklJTUyOXy9FqHA5n165dly5dUr0CkUgMDg6Oj4/XyS1OKPhrBQDg7++fkpIyejkCOzo6Dh06tGLFitLSUsXHj9DS0qK07V4ulxcWFsbFxSHtEwCgt7d327ZtStNjlODg4NTUVB1uURC0QiskEik8PHzPnj1mZmaK5XK5XPXRDpvGxsa4uLjc3Fyla7JYLLVxAGtraxMTE0+fPt3V1ZWQkJCfn69ah0AgREZGpqWl6WQyTCW0QisAAAKB4O/vn5GRYWNjo1g4srvzOzo6MjIy7t27p1hoY2MTEhKitn5nZ2d6enpMTMzt27fV2hwaGpqUlPRPEArAfWyrCIFA8PX1TU9PT09Pf/DggdoWhUqluri4qG0GxGKxQCAQCoX9/f09PT0ikUjtf2ltbT106NCOHTvQB0wmk6Ojo1tbW/Pz81V/3CoQCKqqqlSvg/hRNmzYYGJi8nz3OW7RIq0g+Pn5bd26dc+ePWVlZao/IiQSiV5eXnFxcaqRBMViMZ/PFwgEfD6/vb29oKAgNze3ublZ6fHL5fIbN25cvHjxtddeQwstLCwSExPlcnl+fj6WXy6isx7dHswqQUpLS8PbBmUsLCw8PDxqa2tbWlqUTkkkkvLy8vb2dh8fH6XWBXHHMZlMExMTGxubmTNnhoeHC4XC2tpapdUZmUwmlUrnz5+v6LJjMplTp0599OhRY2Oj5kESkUgMCwv7O7Oe0tLS69evKxWGhoa6u7sP74JjgzZqBQDAZrN9fX3r6+vr6+tVz1ZVVdXV1Xl5eWneKaKvrz9r1iyBQKDaRHG53MDAQKVkzvr6+gEBAVVVVU1NTUPJhUAgzJs3LyUlhc1mP/9tDTJOtaItY1tV7Ozstm/fHhkZqfZsfn5+UlLSM4Oqk0ikFStW+Pn5KZVzuVwl7x+Cqalpenp6UFAQiURSPUsmkyMiIlJTU/8hg1kltFcrAAAzM7MPPvhgwYIFatd3SktLU1NTb968qfkihoaGqoKTyWRDuebYbHZSUlJISIiSXCgUSkREREJCwmi4DccFWq0VAICxsXFSUtKiRYtUPfRyuby6uhpxkWkOzuPg4KBaiDpqVbG0tNy0adPcuXMVNRoWFhYXF6fkAfpHoXXzIFVYLNamTZvodPrJkyeR7WeKtLS0fPjhh3w+PzIykkajqb2CWo+q5vUma2vr5OTk2bNnIykhDAwMFi9e/I+a9agyDrQCADAwMFi/fj2Dwfj+++9Vt7Z0d3fv3r2by+UuWbJEretF7arhM+OEmZiYLF68eNg26x7a3gehMBiMNWvWxMTEqN11xuPx9u/fn52dreWbpMY140YrAAAajfb2228nJyerbScGBgaOHDny4Ycf9vb2jr1t/wTGRx+EQqFQFixYIJVK9+/fz+FwlM5KJJKzZ8/yeLzExETFdSVtQ3XURSKRqFQqLsZgZzy1KwgkEunll1/evHmzpaWl6lmZTHb16tXU1FS1izhagmrLhzidcTEGO+NPK+CJTywxMVFt3C+ZTFZYWJiWllZSUqI9ycoUUdUKmUyGWhktSCRSSEhIWlraUGHiysvLk5KSCgoKtE0ucrlcNcMRmUzW/l+KjFetAACIROKMGTM+/fTTocLENTY2btmy5fz587iE0R6Krq4u1ei3DAbD3NwcF3uwM461guDp6fnFF1+4urqqPYtsuz9y5MgYW6WB9vZ21eUFExMT7d+COe61AgCwt7ffs2fPtGnT1J7l8/nHjx8fY5M0cP78edXxipubm/anvdMFrQAAHB0dt27dOlSiQe3pg8rLy8+dO6dUqKenN2vWLFzseS50RCsAAEdHx5SUlKCgIK39gra0tOzfv191sGJlZeXj44OLSc+Fln6sw8PS0jI5OVlPT+/3339/5vRHIpGo+sRGA7lcLhKJioqKsrKyqqurVXdRTZ8+XfsHtgAAwgj+qEJL4PF4n3zyyalTpzRXMzQ0VLtXYcQZGBjo6OhQ9TIjmJubHzx4cFzEZNdBrQAAhEJhZmbmd999pz0jlaHYvHnz8uXLx0Wuh3Fg4jCg0Wjr169ftWqVlju4IiMjFy5cOC6EAnRVKwAAKpUaExMTExODPTDHGOPv75+QkDCOgiroZh+EIhKJjh07dvjwYQ6Hoz0JhlgsVkhIyOrVq7UhMQl2dFwrAACxWHz+/Pn09HQej4e3LUBPT8/a2nr16tWhoaHav1iohO5rBTxZeT558mReXp5QKBzjW2YwGGw2e8KECZMnTw4ODvb29tb+rSpq+UdoBTIi6OzYFjLiQK1AsAK1AsEK1AoEK1ArEKxArUCwArUCwQrUCgQrUCsQrECtQLACtQLBCtQKBCtQKxCsQK1AsAK1AsEK1AoEK1ArEKxArUCwArUCwQrUCgQrUCsQrECtQLACtQLBCtQKBCtQKxCsQK1AsPKMGGB8Pv9O0d2K+1U93b2CgQF9fYaVpcVkz0l+vt5ElbADeZeviMRiAIAhizVr5nTNV75x604vlwsAoFIoc0MCkcKqB9U1dYMJDufMmmlgoA8AkEqluXl/IIWW5ma+Pl4aLiuWSC5e+kvSbaaBwQuzZihV43R1FRTeVSyxtrTw9vLUbPOIoPbGEUQi0R9Xrt8rLe/l9hnoMyZOtHphVoC9nbYkFhhSKzK5/MefTh75/geBYED1rJWV5aa496b6/SUi3udfHORy+wAAbi7Oz9TKtzlHq6ofAgBYLCb6keVdvvrj8cHYXe5ffYFoRSQS797zOVIYNGeWZq0IB4RoZQQKmfzbzz/Q/5qG6uKl/Kz/HFYsCZsbPDZaUXvjAIA+Hm/9xqSa2jrFynp0vdHWSienK/vrIzGrotimz0g0PWQflPll9sFD36oVCgCgubll05bUazfUZEPXNsQSSWlZhVJhYfE9tZVx5OgPJ5SEAgBwdR3FOHJisfi7Yz+9Fb3m/IVLcixZqdWWlpX/efL0b+hLZ0cHFxcnBkOvpaWtoLBYIpEAAGQy2ccZ+3y9v0K+/dpMUXGJ/7Qp6EuJOvXgTlnFn+jxxvff9Zzk1tHJcXNxGr3/uO/L7F/PKAfb1YB6rZw5m4seb9n0/vyIeejLxqbm/1u/CelruNy+P65cW/CviOEYmrELCfxHII5WuCUCYTBiiFIrUnG/cmBgQLHCWDLUjff19SEHJibGCxfMBwA4OzmOqiVKKc6fiXqtNDQNxuslkUgRYaGKpyZaWy19ddFXh3OQl/crHzxTK2KxGH0kRCIRiVVMppBJJCIAYPRCczk52D+sqQUAPKqp7e3lGhoORmYreiIdezvbx/UNGiLhNjW3NDQ28fn9JBLJyMjQ0cGOxWQq1RGJRMgBmUxGogQ2t7TWPW6QyWQO9rbWVspJjlRvHPl8RKLBJ0en0ZBrop8VSn1DY0Njk0wmm8Bmu7o4DRWUUC6XNzQ2NzU39/cLqFQK29TU0cGeRnsaIEgml0vEYpn06Y2LxWKRSKT6H/9iudpSOn1wJCiVSr//4fhbb7ym+ERfnB/u6GCvR6fR6XTTZw2I/rhyLW3nJ4hWqFTqno/SkMHpe+sT0CHeryeOar7I8PD0cK9vbBKJRHK5vOjuvdDgOUh50d1Brfj5ej+ub1D73hu37hzIPlzf0KhYSCQQ5rwQsP69NegwkMfjv7hoGXK8JSFusod7xr6suyWl6Fu8vTwT49dPtLZCS1RvfPGyKKSdRmhuaQ17cQkAIGxucMqWeKTwTtHdLw9+XVv3GK3GYjKXvrZo2WuLlJ7u+QuXvsk52tL6l/QQNBo1Iix03drViGKuXL2xbcduxQpvRMUo/UdV1AtTcYJz6Jv/vhkV89XhnJLScqTVMjYynDVzup+v9yR3V7MJ7KEuDQAoK/9z5+69iFBIJNL2rVs0z2JGFgqF4jHJDTkuLB6cIQsEA/crHyDHfj6T1b7xyrUbH6TuUBIKAEAml+dfvbEh4QOkC1Pi4cOatbHxikIBAJSWVcQlJPf3/60A3b/8dm5z0jZFoQAAuH19Xx3OSUrdKZZI0ML/nTz90SefKQkFACAUin757dyWlO2KlZ8X9VpZ+NK/2GxT9GVzS+t3x/73fnzSi4uWbUzceuLUr93dytmSVKlvaPwgdSciLyKBkJy48ZkT6RFniq83coAOWe7eKxscLhAIvt5qhCsUivbuP4Dom0Imh88LeXv50hfnh+nrDw7h6xuart8sUH3j8VO/8Hj8yZ6Tli97dW5IIOp/6ujovJB3WYORbFNTNtsU7VCIRCKbbcpmmzKZTABAZVX1518clD35vs0NCVz22iJHB3ukcsGdom9zjiHHfTxe9teDYwNXF6f178WkpSS+v26Ng/1gtMviktKLeX8AAKhUCovFVEwxyjQwYLGYDI3hgNX3QfoMxqe7tm9K2tbZ+ZfI4EKhqKi4pKi45ED24Zdfmh+zKoo+RPrs7u6ehKRt3CfjtQ3r31XyO40Nvk9ajra29qbmFmsry+InHZCjgx2LpTz4AADUNzSyTU34/H6RSBS/Yd388LlIeWhQYPyWrcix0lccJeqtZSujliPHTo4O2V8P5i26X1W98KUhjfwmOxMA8EZUTHNzCwDAwsL82JHsp2dzjqLi3vNR2tQpvgCA1SslSak7C+4UAQCOnzz95rIl+gzG/coH6OBpy6Y4J0d75DgiLDQ6JtbYyNDZyRG55Vkz/X89cXTXns/P5eahNkzQ2EUADb44B3u7b7Izf/jp5G9nc3t7uUpnxRLJiVO/lldUZu7drThoQhgQChOTt7e2tSMv176z4uUFkZrtGCU8JrnTaFShUAQAKCwusbayLCwuQU75+XirfYuLs+OhA/tkMllDY5ONzdMEeQ4Otugxn68mC7SxsVHUW8vQl+Fzg1GtoHOc54Xf348IAgDgP30KIhQAAJlMjln5NnJqQCi8cbMgbG4wkfC0l0jb+fErL/1rhv/UidZW+gzGT999PTwDFNHk42cxmTGrolZGLb9XWn6n6G7x3dLqh49kCpPMqgfVh77973trVim9UXHASCQSZ6u42McMCpnsOcm9uKQUAFBUXBL4wiy0SdA8ciISiXa2Nvz+/oo/K6sePCyvuF9SWo6eVRvm39HBnkQioS9NTIzRY5F4mKOE6uqnH7iBvv6f958mh5VIJOic/8HDR2Fzgz0muTEYesjYqL6hcX9WNsgCJibGfj5e06dNQddMhs2zc8KQyeSpU3wRRXP7+m7eunP0x+N1jwfVcObshZiVb6tNro0gk8kys77as2v737Hy7+Dn641o5W5J2Z2iYqSQSCD4eA/p0ZfJ5b+fu3DmbG5l5QOZOgeMWp8Qi/mXYO4kEolIIAy+fbhenO6epxnM8i5fybt8RW219vYOAACDobcpbl36x3sVpdzV1Y288XMabfErL62MelPDw9KMGq00NDbdK6vgcLo4nK6gwNmKcyIWkxkRFho0Z9by6LXIUIbP57e2tdtMtFa9DtPAoI/HAwAUFBbfuHVn7Ae2CH5P2g9uX9+P//sZOXZ0dFD1lCBIpdKk1B23C4rQEgtzs8mekzwmue3/cnAYodjao6jxTBAIw1YJAsYksAMDQuRgbkjgxIlWR384ceNWATp2GawjFB798XhnJyd5y8bhGaNGK1UPHu7Zm4kcc/v6lBYIAQB0Ot3O1gYd9vJ4fNWLTJ/ql7AxdsXq95Am8cuDh6ZP86PgkTFskrsrnUYbEAoBAA8f1SCFU3yH7IDO5uahQgkOfGHNO1FWlhYAgD4eD9XK6PmalTBUyOzwxtIlUcuXqa2GOPcQ3Fyct29NHBgYKLp7r/huaWl5xcNHtajmcvMur3knSnGSix013w+vyR6o5+3q9VuKfSRCZyen8omLAgBgaamcU8vc3Gzn9mRzswnLl72KlDQ2NZ849esw7Pv7kMlkT89JSoUaBiu3bhciByQS6YPNGxChAABUB/hjgLOzA/osHj2q1dOjo3/cvr5rN241tbSQySQkaHt/v6Cyqjr34uVv/3uMSqPNDpgR++7qr7I+P/VTjuIXvrmlFTlQ9K9iaf3UaMXcbMLUKYOXlkgkW7Z++PMvv3O6ugAAfTze1eu3NmxO5vcPTgS8JnsYGRoqXcGIxULm0q8vecXcbDCVbM53P2DxyowGSq0IkUDw8VLvhQMA9D9JbCeVShWTiaGbJQAAkuGOVZ8XI0NDH+9BUwsKixUX9r858v3O3Rmr1qwPX/DqrYJCAMDHGfvWrNuY/vHeb3KOXnyy4we5yESFQQLqalfsNDmcLgCAZk+d+k7h3ZhVa9ZtRNxovb3czzIPfJZ5gEQiKY3/iUTiqifuBLVQqdTVK9/euTsDAMDv788+nJMYv15D/VFCyefm7OyoYUbg6uxY9GRevTl5+xuvLyESCRcu5aOFAADucOfAw2BV1PL18UnIfGdrWnrgnNmODnb3Kx/cvH0HqWBrY+0/fSoA4M2lS65cu4l0N59k7C8pLXN3dZVIJeUV9y//cRWp7DHJDV2iMjZ6+iVPSNrGZptOtLbcmZY8lCXq/bZOjvbbkjcr+dmUhEIikeLff9fPV72XAmVeaJC7mwtyfO78RWQpZIxxd3NRTMAylGcF4dVFL6PD3obGpk/27t/96b6i4hIDA310WedRTd2oGauMt5fne2sHvRIyufyPK9cOH/keFQrb1GTHtmTER+zm6hIXuxY5FkskZ85eyNj35b4v/pN3+QoyHTM2Nvpg8wb0yoodcR+PV1v3GHWJqWXIvU5zZs88nJ0ZGT5XNc2Nnh59zuyZhw58jmU3AoFAWLf2HfRWM7/M1lx/NCCTyd6TPdCXmj0rbLbp559+5KqwcYRIIMwOmPHVl58tWvgiUlLf0Fj9sGaUrFXltcUL9368w8PdTXGEQSKRgubMytq3x9bmaf+ycMH8/Xt3T1HZ4UqjUeeHz/364D7FGetUP583li5RXKyWSDSlh3z2Bg6pVFr3uKGzkzMgFOozGEZGLDs7W1xmNGNMQ2NTc3MrhUpxdLBTHZPhQldXd1NzC4/PN9DXd3SwQ5eoVOHz+XWPG7h9fSQSycTYSMMj6+3lPnxUI5eDCRNMbW0matgiAvMHQbACf/MBwQrUCgQrUCsQrECtQLACtQLBCtQKBCtQKxCsQK1AsAK1AsEK1AoEK/8POm9ljOypS6cAAAAASUVORK5CYII=;" parent="1" vertex="1">
          <mxGeometry x="228.62" y="338.5" width="59.32" height="59" as="geometry" />
        </mxCell>
        <mxCell id="XUYExaWCkDun1sldvAOi-64" value="" style="shape=waypoint;sketch=0;fillStyle=solid;size=6;pointerEvents=1;points=[];fillColor=none;resizable=0;rotatable=0;perimeter=centerPerimeter;snapToPoint=1;" parent="1" vertex="1">
          <mxGeometry x="290" y="356" width="20" height="20" as="geometry" />
        </mxCell>
        <mxCell id="XUYExaWCkDun1sldvAOi-68" value="" style="endArrow=none;html=1;rounded=0;" parent="1" edge="1">
          <mxGeometry width="50" height="50" relative="1" as="geometry">
            <mxPoint x="280" y="366" as="sourcePoint" />
            <mxPoint x="299.9999999999999" y="365.8300000000001" as="targetPoint" />
          </mxGeometry>
        </mxCell>
        <mxCell id="XUYExaWCkDun1sldvAOi-93" value="&lt;b&gt;&lt;font style=&quot;font-size: 8px;&quot;&gt;Skill Node List&lt;/font&gt;&lt;/b&gt;" style="swimlane;fontStyle=0;childLayout=stackLayout;horizontal=1;startSize=20;fillColor=none;horizontalStack=0;resizeParent=1;resizeParentMax=0;resizeLast=0;collapsible=1;marginBottom=0;html=1;" parent="1" vertex="1">
          <mxGeometry x="552.6" y="437" width="57.13" height="72" as="geometry">
            <mxRectangle x="502.87" y="415.66" width="60" height="30" as="alternateBounds" />
          </mxGeometry>
        </mxCell>
        <mxCell id="XUYExaWCkDun1sldvAOi-94" value="&lt;div align=&quot;center&quot;&gt;&lt;font style=&quot;font-size: 8px;&quot;&gt;Node 1&lt;/font&gt;&lt;/div&gt;" style="text;strokeColor=none;fillColor=none;align=center;verticalAlign=top;spacingLeft=4;spacingRight=4;overflow=hidden;rotatable=0;points=[[0,0.5],[1,0.5]];portConstraint=eastwest;whiteSpace=wrap;html=1;" parent="XUYExaWCkDun1sldvAOi-93" vertex="1">
          <mxGeometry y="20" width="57.13" height="14" as="geometry" />
        </mxCell>
        <mxCell id="XUYExaWCkDun1sldvAOi-95" value="&lt;div align=&quot;center&quot;&gt;&lt;font style=&quot;font-size: 8px;&quot;&gt;Node 2&lt;/font&gt;&lt;/div&gt;" style="text;strokeColor=none;fillColor=none;align=center;verticalAlign=top;spacingLeft=4;spacingRight=4;overflow=hidden;rotatable=0;points=[[0,0.5],[1,0.5]];portConstraint=eastwest;whiteSpace=wrap;html=1;" parent="XUYExaWCkDun1sldvAOi-93" vertex="1">
          <mxGeometry y="34" width="57.13" height="16" as="geometry" />
        </mxCell>
        <mxCell id="XUYExaWCkDun1sldvAOi-96" value="..." style="text;strokeColor=none;fillColor=none;align=center;verticalAlign=top;spacingLeft=4;spacingRight=4;overflow=hidden;rotatable=0;points=[[0,0.5],[1,0.5]];portConstraint=eastwest;whiteSpace=wrap;html=1;" parent="XUYExaWCkDun1sldvAOi-93" vertex="1">
          <mxGeometry y="50" width="57.13" height="22" as="geometry" />
        </mxCell>
        <mxCell id="XUYExaWCkDun1sldvAOi-108" value="&lt;font style=&quot;font-size: 8px;&quot;&gt;Subtasks&lt;/font&gt;" style="swimlane;childLayout=stackLayout;resizeParent=1;resizeParentMax=0;startSize=10;html=1;" parent="1" vertex="1">
          <mxGeometry x="328" y="340" width="260" height="67.5" as="geometry" />
        </mxCell>
        <mxCell id="XUYExaWCkDun1sldvAOi-109" value="&lt;font style=&quot;font-size: 8px;&quot;&gt;Sequence&lt;/font&gt;" style="swimlane;startSize=20;html=1;" parent="XUYExaWCkDun1sldvAOi-108" vertex="1">
          <mxGeometry y="10" width="50" height="57.5" as="geometry" />
        </mxCell>
        <mxCell id="XUYExaWCkDun1sldvAOi-118" value="1" style="text;whiteSpace=wrap;align=center;verticalAlign=middle;fontSize=8;" parent="XUYExaWCkDun1sldvAOi-109" vertex="1">
          <mxGeometry x="15" y="17" width="20" height="25" as="geometry" />
        </mxCell>
        <mxCell id="XUYExaWCkDun1sldvAOi-123" value="..." style="text;whiteSpace=wrap;align=center;verticalAlign=middle;fontSize=8;" parent="XUYExaWCkDun1sldvAOi-109" vertex="1">
          <mxGeometry x="15" y="32.5" width="20" height="25" as="geometry" />
        </mxCell>
        <mxCell id="XUYExaWCkDun1sldvAOi-110" value="&lt;div align=&quot;center&quot;&gt;&lt;font style=&quot;font-size: 8px;&quot;&gt;Subtask Description&lt;/font&gt;&lt;/div&gt;" style="swimlane;startSize=20;html=1;align=center;" parent="XUYExaWCkDun1sldvAOi-108" vertex="1">
          <mxGeometry x="50" y="10" width="120" height="57.5" as="geometry" />
        </mxCell>
        <mxCell id="XUYExaWCkDun1sldvAOi-111" value="&lt;font style=&quot;font-size: 8px;&quot;&gt;Recommended Node&lt;/font&gt;" style="swimlane;startSize=20;html=1;" parent="XUYExaWCkDun1sldvAOi-108" vertex="1">
          <mxGeometry x="170" y="10" width="90" height="57.5" as="geometry" />
        </mxCell>
        <mxCell id="XUYExaWCkDun1sldvAOi-116" value="" style="endArrow=classic;html=1;rounded=0;entryX=0.5;entryY=0;entryDx=0;entryDy=0;strokeColor=light-dark(#3CD2D8,#EDEDED);" parent="1" edge="1">
          <mxGeometry width="50" height="50" relative="1" as="geometry">
            <mxPoint x="443.01" y="408.5" as="sourcePoint" />
            <mxPoint x="443.0049999999999" y="448.3299999999999" as="targetPoint" />
          </mxGeometry>
        </mxCell>
        <mxCell id="XUYExaWCkDun1sldvAOi-117" style="edgeStyle=orthogonalEdgeStyle;rounded=0;orthogonalLoop=1;jettySize=auto;html=1;exitX=0.5;exitY=1;exitDx=0;exitDy=0;strokeColor=light-dark(#3CD2D8,#EDEDED);entryX=0.44;entryY=0.009;entryDx=0;entryDy=0;entryPerimeter=0;" parent="1" source="XUYExaWCkDun1sldvAOi-25" target="XUYExaWCkDun1sldvAOi-108" edge="1">
          <mxGeometry relative="1" as="geometry">
            <mxPoint x="440" y="340" as="targetPoint" />
          </mxGeometry>
        </mxCell>
        <mxCell id="XUYExaWCkDun1sldvAOi-120" value="&lt;font style=&quot;font-size: 8px;&quot;&gt;Move robot to home position&lt;/font&gt;" style="text;whiteSpace=wrap;html=1;" parent="1" vertex="1">
          <mxGeometry x="387.85" y="365" width="105" height="20" as="geometry" />
        </mxCell>
        <mxCell id="XUYExaWCkDun1sldvAOi-121" value="&lt;font style=&quot;font-size: 8px;&quot;&gt;&lt;span data-teams=&quot;true&quot;&gt;ComputePathToState&lt;/span&gt;&lt;/font&gt;" style="text;whiteSpace=wrap;html=1;" parent="1" vertex="1">
          <mxGeometry x="505" y="365" width="80" height="20" as="geometry" />
        </mxCell>
        <mxCell id="XUYExaWCkDun1sldvAOi-124" value="&lt;div align=&quot;center&quot;&gt;&lt;font style=&quot;font-size: 8px;&quot;&gt;...&lt;/font&gt;&lt;/div&gt;" style="text;whiteSpace=wrap;html=1;align=center;" parent="1" vertex="1">
          <mxGeometry x="390.85" y="382.5" width="105" height="20" as="geometry" />
        </mxCell>
        <mxCell id="XUYExaWCkDun1sldvAOi-125" value="&lt;div align=&quot;center&quot;&gt;&lt;font style=&quot;font-size: 8px;&quot;&gt;...&lt;/font&gt;&lt;/div&gt;" style="text;whiteSpace=wrap;html=1;align=center;" parent="1" vertex="1">
          <mxGeometry x="514.5" y="385" width="65" height="20" as="geometry" />
        </mxCell>
        <mxCell id="YBWQP4qFkVBTGEJP46_Y-9" style="edgeStyle=orthogonalEdgeStyle;rounded=0;orthogonalLoop=1;jettySize=auto;html=1;exitX=1;exitY=0.25;exitDx=0;exitDy=0;" parent="1" source="WSBtiJHm_wksfHjQNRmj-3" target="YBWQP4qFkVBTGEJP46_Y-4" edge="1">
          <mxGeometry relative="1" as="geometry" />
        </mxCell>
        <mxCell id="WSBtiJHm_wksfHjQNRmj-3" value="" style="shape=image;verticalLabelPosition=bottom;labelBackgroundColor=default;verticalAlign=top;aspect=fixed;imageAspect=0;image=data:image/png,iVBORw0KGgoAAAANSUhEUgAAAMEAAACcCAIAAABJMFjiAAAACXBIWXMAAA7EAAAOxAGVKw4bAAAgAElEQVR4nO2deVwT19rHT0ICJCEJYZF9FVSWKlAFsVb0at1aqlK1Wiu2aF2uSkurrfbT1Vqpta33VtD6cbkKvVWhpSq2gnUDLQhKBS0IaGQJgmyRJBAgy5z3j/N23rwzEEISSELn+xecnJl5ZvLL2eZ5nkODEAIKCgOgm9oACouHYWoD9AdC2NDQ0NbW1t7e3tXVZc4NKovFEggEzs7OXl5eDIYFP/M+sbz7USqVNTU1BQUFubm5IpFIqVSq1Wq1Wk2j0UxtWr/QaDQGg2FlZeXk5DRlypSZM2eGhISw2WxT22UcaOb88yUAIezq6kpPT8/Ozm5sbFSr1aa2SE8EAsGMGTNWr17t6elJp1v8cMKSNFRfX//FF19cu3bN1IYYh3Hjxr333nsTJ040tSGGYjEaqqmp+fjjj0tLSy3FYF3g8Xipqanjx4+36NbIMkxXKBR79uy5c+fOSBIQAEAqlSYnJz98+NDUhhiEBWhIpVKdPn26oKDAcgdAWqioqEhLS+vt7TW1IfpjAfOytra248eP9ykgNpvt5+fn4+MjEAjMuTuQyWSNjY1CobC9vZ386aVLl2bOnBkTEzP8hhkFC9DQ9evX6+vryeUTJkxYuXJlRESEQCAw80UXDMNkMplQKExPT8/Ly1MqlZqfSqXSnJycadOmmfPyhBbM+tEDANRqdZ8TMScnp927d3t4eAy/SXpAp9P5fH5ERERAQMDHH3988eJFQoXr16+rVComk2kS8wzEfNt/RFtbm0gkIhTa2tomJSVZioA04fF4SUlJLi4uhPKOjo7KykqTmGQ45q6h9vZ2qVRKKHRycgoPDzeJPYbj5OQUHBxMLu9zqGQRmLuG5HJ5d3c3odDe3t7V1dUk9hgOi8UKCAgglzc2Ng6/MUbB3DXU54IQj8ez0KED+OvdGbncnOeV2rFUuynMB0pDFIZCaYjCUCgNURgKpSEKQ6E0RGEolIYoDIXSEIWhmPs7Vz2AEIrF4mHzyOHxeHZ2dsNzLfNkRGlIpVLl5OScOnVKJBJhGDY8F2UymUFBQYmJiYGBgRbqvGEgI0dDGIbl5uYmJyeT39EONS0tLWKx+IsvvvD29h7mS5sDI2c8pFKpfv755+EXEOLu3bu///67SS5tckaOhiCECoXChAZ0dHSY8OomZORoiMFghIaGmurtt42NTZ9eQX8HRo6GrKysVqxYMX78eJNc/eWXX540aZJJLm1yRs6YGgDg4eGRmppaXFxcU1OjUqmG56JsNjs4ODgsLMxyXZoMZERpCADA4/FmzZplaiv+XoycvozCVFAaojAUSkMUhkJpiMJQKA1RGAqlIQpDoTREYSiUhkyAjY3NSPISGWlrjA0NDYWFhVVVVcZap+bz+ZGRkRERESwWyygnBACMHj2awWAQMsj4+voa6/zDzIjSkFAo/Oijj+7evWvclHunTp1KSEh44403jNV4TJw4cezYsX/++SdeEhwcHBISYpSTDz8jpy9TqVRHjx4dipyNXV1daWlpFRUVxjqhnZ3djh07YmJi2Gw2h8OZOnXqJ598wuVyjXX+YWbktEMqlWrokmN2d3cLhUIjNhWBgYHJyckSiYRGo/F4PMsVEBhJGrKysnJxcdHsIIwIk8m0t7c37jm5XK5FSwdn5PRlTCZz6dKlRv+mEREREZabNWuoGTntEAAgKirqyy+/zMzMbG5uNtaoyMrKKjQ09NVXXx0ZbcZQMKI0ZGVlFR0dHRkZ2dnZaUQN2dnZGWVG1tvbK5fLUZLh+vr6jo4O5ABubW1tb2/v6+vr5+fn6enJ4XDMPM0tAUuyVUesrKz4fL6prfg/1Gq1UCgsKysrLCwsKytrbW3tT990Ot3Dw2Pq1KkTJ04MCgry8vIaZlP1YwRqyHxQKBQPHjw4efLk5cuX5XI5YVGRDIZhIpHoxIkTWVlZHA5n3rx5cXFxfn5+Zu5lS2loSIAQ1tTUZGVl5ebmPn78eLCH9/b29vb2njhx4vr167Nnz164cKE571JFacj4dHd3X7lyJSUlhZxZe1BgGFZXV3fo0KGcnJy33norJibGxsbGWEYaETOVtuXS3t6+d+/ezz77zEABaSISiXbs2LF//35TRfFqh2qHjIlYLN65cyd5Rw5N6HQ6h8OxsbGxtrZms9k0Gg0NlXp7ezs7O/vbG0kikZw4caKtrS0pKcnJyWnI7kAfKA0ZjYaGhuTk5Pz8/P4q8Hi8CRMmTJgwITw83MXFRSAQcLlcGo3W1dX15MmTlpaWkpKS27dvl5aWymQy8uHd3d1nz57t6ur66KOPHBwchvJWBgelIeMglUr37dvX3z6hHh4e06ZNi4+Pd3FxYTAYhNUmDofD4XA8PT3Dw8NVKtXjx4+PHTuWn5/f52D88uXLfD7/3Xff5XA4Q3Ing4fSkBFQKBT//e9/L168SF74YbPZUVFR69evDwgIsLa21n4eGo3GZDK9vLy2bt26ePHilJSU4uLinp4ezToQwpycHD8/vxUrVpjJnH+kaUgqlebn59+7d2+wPmgCgWDSpElPP/20HhfNy8v7z3/+Q846YmNj89prr8XHxw+2zbC1tQ0KCkpOTj5+/PixY8cIZ5bL5UeOHPHz8zOTbfNGlIZqa2u3b99eXl6u34sOJpO5du3a1atXD+r33dTUlJKSQt6YxtHR8cMPP4yJidH7xQWPx1u7du2YMWM+++wziUSi+VFHR8fhw4fHjRtH3sZq+Bk5c3u1Wn3q1KmKigq935Qplcr09HShUDioi547d66uro5QzuPxtm7dOn369P4E1NXVVVlZefv2bbFYrOX8NjY2M2fOXL9+PY/HI3xUXl7+22+/6W7q0DFyNKRSqSoqKgxMwyiVSmtqanSvX1dXl52dTZiQ29raLl26dPbs2VZWVv2Z+vnnn8fHx7/22mvbtm1raGjQcgkGg/HSSy/Nnz+f0DoqlcrTp083Nzfrbu0QMXI0RKfTDXceotFog1p9OXPmTG1tLaFw4sSJ2jvE8+fPnz9/vru7G8OwwsLC9PR07VdhsVibN2+OjIwklN+/fz8rK8vk+7WPHA0xmcy4uDhHR0e9z0Cj0WbMmDF27Fgd67e3t//666+Er9DBwSE+Pl5LtmEMwwhDfl1ceHk83uLFiwnvOjAM+/33302+r/mIGlM/++yzH3zwQUZGRk1NzWA7NTs7u8mTJyckJJBHHv3xxx9/tLS0EAqnT58+YcIELUdhGEaYruto6pQpUyZOnEjIHFpVVVVfXz9mzBjdTB4SRpSG6HT6rFmzhieHlVKpvH79OuHrZzKZixYtYrPZWg6EEBLehNja2upyRTabvWzZspKSEk0J9vT0FBQUmFZDI6cvG2akUmlVVRWh0M/PLzQ0dOguGhISQn7LcePGDdO+i6U0pCfIq5VQOH78+CF1Y3V2diaHBiC32qG76IBQGtITqVT65MkTzRJra+uoqKihvu60adMIJY8fP9a+yDTUUBrSk/r6ekIJi8UaBq8MgUBAGD8plUo9XCWNCKUhPWlvbyeUsFgs3ed0esNiscjejKbdIIDSkJ6QV2UYDIaOMyxDQI4ihELTjqlH1Nx+OCFHnNFoNF3C0JCDh2ZJWVnZmjVrNEtsbW19fX1jY2MDAwMJrvgKhYLsJDmgV8mQQmlIT8gr0ciZVY9TSSSSoqIiQmFeXt7Vq1f37t0bGBioWd7d3U32ETBibiQ9oPoyPSEPn7u7u3WZY0MIdVyYrquru3z5MqFQKpUSlrkZDIZp47gpDemJp6cnoUuSy+Xa38DrAbmBEYlEBPc6DoczatQo4153UFAa0hMul+vs7KxZolarCwoKBjyQyWSOHj1aFzc3Pz+/KVOmEC5B3mnP0dFxGOaDWqDGQ3rC5XJHjx5NWKq+fft2W1vbgKtEL730kkKhaGxs7M9tg0ajCQSC2NhYHx8fzfKampry8nJC5TFjxhjirWA4lIb0xM7ObubMmdevX9fUwZMnT65cubJ48WLtEzQ2m52QkKB9VESn0wkngRCWlJTI5XJCzaCgIGpMbalEREQQJtUYhp05c6a1tXXAY2k0mpVWyCpsbm7OysoiDIa4XO7UqVMNvxdDoDSkP76+vuS39OXl5dnZ2UNxuV9++YWcVzQ0NNTPz28oLqc7lIb0h0ajLVmyhNCPqFSqH3/8sbS01LjXunnz5k8//UQoZLFYixYtMnmUmUVqyOQexDiTJ0+OiIggFDY2Nn777bePHj0y1lWEQuG3335LXjiYMmWKOYSYWaSGurq6hm27Vu04OjouX76c7OZcUlKSmpra1dVl+CV6enr27dtHTtzO4XAG9JkcHsxdQ2w2m/wiUywWNzU1mcQeMpMmTSJ732IYlp2dvW3btkFFGpF5+PDhli1bLl26RM4HMnfuXHKkh0kwdw05ODiQF9Da29tLSkpMYg8ZNpu9Zs2aPqNB8vPzP/300+LiYj1aTbVaXVhY+PHHH/eZB+Kpp56Kj4837ZQex+qTTz4xtQ3asLW1zc/PJ+SDUqlU9+/ff/HFF80kL5iDg4OLi0tRURHhbSiEsKmpqaCgQKFQuLq66r6aXFdXl5GRsW/fPqFQSB78ubu7v/vuu+PHjzeO9QZj7hqysrJSqVRXrlwhlEul0sLCQnt7ew8PD3PIxOvr6+vo6Hjz5k2yX5FcLr9582Zubm5vby+dTmexWP25GYnF4nv37p09ezY5OfnKlSt9DqdQ4ph//OMfxr8HfaGZzxynPxobG9esWdNnajoul+vm5hYQEDDMQ0svL6/w8PCgoCBNNfT29mZkZGgZStPpdB6P5+HhMXnyZE9Pz1GjRgkEApVKJZFIxGLxgwcPiouLm5ubZTJZf9nQuFzuhg0bli9fbg4/GxwL0JBKpTp58uRXX33V35M1Cfb29kuXLt24caOmjxiGYVlZWQcPHtTRwdna2lqlUunoCuLt7b1u3br58+eblYCARWgIAKBSqTZt2kR+ZW1a6HR6WloaOaq1qKho3759ZWVlRrxWdHR0YmLikAav6Y25j4cQdDo9ODi4urrafKb0AAAI4ejRo8kacnd3R/s9tLe3k30OBwWdTndxcZk3b96WLVv8/PzMcwdPy9AQAEAgEAQHB9fV1TU1NZlP2xkVFUUOGqTRaHw+f8qUKU899VRvb69IJNKvF+bxePPmzXvzzTfj4uL4fL55CghYSl+G09PT89133509e1aXd+NDDYvFOnXqlPZXnsgx7fz58/fu3autrdVloYhGo3l5eYWGhi5ZsiQ8PLy/JEbmg4VpCACgUqkaGhouXLhw7dq1R48edXZ2Gthf6AHKvPn6668vWLBAl+ZBoVDIZLKqqqqLFy9WV1eLxWKpVNrb26tQKFCYh42NDZ/P5/P5yHfx6aefFggEZrL6NSCWpyEcmUxWX18vk8nkcvkw34W1tbWXl5ePj89g+xcIoUwmE4vFT5486e7uxjXEYrHs7e0FAoE591n9YcEaojATzP19GYX5Q2mIwlAoDVEYCqUhCkOhNERhKJSGKAyF0hCFoVAaojAUSkMUhkJpiMJQKA1RGAqlIQpDoTREYSiUhigMhRgh0Nrailzfvb29CdkICgsL0a59M2fOREkk8/Lynjx5wmAwXnjhheEymEh5efn9+/cBANOnTzd8DzxEc3NzYWEhACA0NDQgIIBcAUJ45swZzRIajYZya44ZM8bV1XVQl1Mqlb/88gsAwM3NbUh3axjwvvQE/n/wLUJXrVpF+GjOnDnoI5Q/AEKIdmHmcDhwMNy/fz82NratrW1QR/XHO++8g6y6efOmUU4IIcQTCO3Zs6fPCuQM0ZosWLBALBbrfjl8348FCxYY6Q76ZsD70o/h7stSUlJCQkKys7PhyPV9O3PmzPLly01txfBhULTbsWPHOjs7B+U0fvXqVeNuLpGYmLh48WIAQFBQkBFPqyNeXl537twBf+1s98cff6xYsUIsFufm5t6/f5+QntzkTJ06FfVlhFShBmKQhmpra9va2phM5qRJk/DCS5cu5efnt7S0WFtbjx49euHChd7e3uijH374Ad/G++TJkwKBYMWKFfiB5eXl586dE4lEXC43Ojr6+eef11Tn1atXa2trORzOggULUlJS6uvrn3nmmcWLF7e0tFRWVgIAAgMD8Y0sMAzLycm5du2aTCbz8PCYNWuWpoUAAJlMlpGR8eDBA6lUam9vHxkZSd64WRcIGxHPnTt3yZIlBw8eBAC0tbVpakgkEmVkZDx8+JDH48XExMyZM6dPv2m1Wp2ZmXnjxg0bG5v58+cTUlRpMfvcuXNtbW0AgFdeeQXPEgkh/P7779VqtYODw4svvtjZ2YmeFYoxx0/b3d19+vTpsrKyrq4uf3//RYsW+fr64p92dHScPn0aAPDMM89IJJLvv//eyckpPj4e/1qNOR5SKBTkwbW1tXVmZiaqwOfzNT/CD+zs7Hz11VcJB4aEhFRWVuJXf+mllwAAHh4eqNUBAIwdOxb2NR5qbGwkKAYAsHLlSrVajSoUFxeTR98RERESiQRV0H085OPjo1muUChQTiAul4ufDUKYlpZGyNMQExPT3t6OPsXHQ9OmTYuOjtas9u677+In0W729u3bUclPP/2EH4Lnuti6dWt/93XhwgVCinQmk/nJJ5/gFe7evYvK169fj4ea/PDDD3iFfjXk5eW14P+DX6k/De3fvx+/2OHDh3ft2oUyNXM4HPS8pk6dissoNDQ0OjoaHYi3Rs7OzgsXLsQjgj09PVtbWzU1hH67AoGAw+Hs2LGDrCEMwyZPnoxKIiMj169fjzcGu3fvhhCq1Wo0JeFwOBs2bNi6dSueOuhf//rXYDXE4XBW/cXy5cv9/f2RkQcPHsQrFxYWogbV0dExMTFx0aJF6NgXX3yRoCEAgJOTU2JiYkJCArpTBoPR0NCgi9kPHz5Eh2gOzFetWoXqVFVV9Xlfd+7cwcUdHR39wgsv4PuQJCcnEzSEctm6urpyudyurq6BNaSF/jSUkJAAALC2tr537x4qycvL27Vr17lz56RSqaYUAAC4OG7evIlKgoODUSGGYZs2bUKF77zzDuHA2NhYpVLZ1dX15MkTsoZyc3PRvwsWLMAwDELY0dHh7OzM4XDi4uLQv59//vnSpUvxXxKeNXzDhg2D1VCfzJs3r6WlBa+M2mYGg1FeXo5KcJtRCa4hBoOBN72JiYmo8Mcff9TRbNRRMJlM9Bg7OzuRIGJiYvq7r+effx6V7N+/H5VUVVWh1o7FYqG7wDVEp9MLCgoghI8ePdJ8Gv2Oh9zc3IKDgzVLSktLyRu/aYJ+KAqFIigoKCwsbMaMGTNmzEhKStK+qxee7vSjjz5C7RaNRktOTj58+HBPT8/PP//81VdfadbfvHkzg8FgMBh95ou5dOkS+mPNmjXod8nn8+/evevs7IwSdPD5/Pfffx/VEQqFxcXFv/76K/qXsJeKLtjY2EycOBEAACHs6ekRiUStra3nz58PDw+/evVqQEAAhmGoQwkICBg1ahQasjz33HNff/01AODKlSuaDzksLAxvXfAwfplMpqPZ69aty83NVSqVJ06c2Lx5c2ZmJtrHaO3atX0aL5fLc3JyAADjxo3bsGEDKhwzZsymTZt27tzZ3d2dk5OzcuVKvP7kyZNRV+vu7q55nn41NHv27GPHjmmWzJ07F/+V98mmTZtOnz5dXFwMACgtLS0tLd27dy+fz9++fft7773X31G1tbXoD82kFnZ2dr6+vpWVlfgYHEd7bDKetMXDwwMvdHFxIVzxs88+y87OJgRcE3YK0wVXV9fr16/j/2IY9umnn+7YsePRo0fbtm378ccfJRIJSkdUWVlJ2N8DAEDI1qhpJz4uxsOrBzQ7NjbWzc2tqakpLS1t8+bNx48fBwA4ODjgTTgBPBEAIZ0I/i/h4ff35I2ZyYbL5RYUFPz888+ZmZm//fYbaqIlEsm2bdt8fX1ffvnlPo/CO2DC5l/o90dOOUjeOEwTfG7VX6PS2toaFRXV0tJia2u7YsWKmTNnhoSEoNVhPTREgE6nv/POOzt27AAAoDyK+NTS1dUV7zhwCG8CtCQW0sVsBoOxevXqnTt33rp169q1a3l5eQCA+Pj4/mKutT95QHr4/T15Y2qou7u7urrawcHh1KlTEMI///zzyJEj//73vwEAFy5cQBoiT2jxxvzChQv4Sn95eTnaToWc/Vl7BqcxY8agP27duoXPcZYtW1ZTUxMSEnLgwIGMjIyWlhYAwKFDh9Bk8OHDh6ia4RoCAKDJM/irIeHxeKNGjUIrHYcOHUK339TU1NHRERgYqHs2Kh3NXrNmza5duzAMe+ONNyCEqKS/c7q6ujo4OIjF4uLiYolEgk938DGxjhI35jr1M888ExYWNmfOnKKiIhqN9tRTT8XFxaGP8Ekp/pu4c+cOGhW+/PLLqHD37t3p6elSqbSkpOSVV15Bj+Cf//znoGyIi4tDz3Tnzp0XL16Uy+UZGRmZmZnFxcVCodDGxgZvn9B+3hiG7d27F5Xosfgpk8m++4vU1NQPPvggNjYWfYS3OmgiVl9fv2fPHgCASqVat25dcHAwm82+deuWjhfS0WwfH5+5c+cCAKqqqgAAU6ZMCQkJ6e+cVlZWaEYsFouXLVt2//59sVi8e/fuzMxMAEBwcLCuCdT7m5fpsT6Um5uLuhI6nR4eHh4WFoZacjs7u+rqalTngw8+0Lw6miIePHiwzwW3+Ph4/OrkCR1hjoOvD+ErJZrY2tqiOUVZWRmyik6nP/vss6iPRyWzZ8/ub/5CQPu8DADg7u6O8iShWQz+FtbNzQ1fIlm4cCGq0Of7svT0dFR46NAhHc1GaL4MPnbsmOZH5PuSSCTjxo0j28/j8W7fvo3q4POyjRs39vk0jNkOzZ49OycnJzo6GsOw27dvl5aWqtXqqKioy5cv44s0b7zxBv7GGM1CAQBr1649f/48muAgnJ2d9+zZQxjU68iuXbv27t2rOYANDw//9ddfUdc2fvz4w4cP29vbYxh27dq1np6etLQ01F7m5eXpsplmfzAYDA6H4+/vv2bNmhs3buC6cXd3z8/PnzNnDp1Ob2pqamlpYbPZiYmJJ0+e1P3kupv9/PPPe3p6AgD4fP6SJUu0n5bH4xUVFW3atAnvyGg02nPPPVdUVBQWFqajbUOS90MsFotEIqVS6ePjQ56MQAiFQqFMJgsICCBsRNrc3CwSiTgcztixYw0cnWAYVlVVJZfLvb29yTb09vY+ePAAQhgUFDRsSaLEYnFtba2NjY2/v79+6cmHzmyFQvHw4cPOzk4/P7/B7qhH5Y6hMBTKj5HCUCgNURgKpSEKQ6E0RGEolIYoDIXSEIWhUBqiMBRKQxSGYi67GKnV6gG3hY+MjCR4Pw0bGIbduHGjoKCgtbWVw+GMHz9+9uzZ5rAfr1nQ51u04Qf3WdEC7ts/zBQVFZE3B3J2dtb0S/87Yy7tkNmSl5c3b948tCUInU5HARsAgNbWVhSF05+X4N8IU4v4f8EwTKQB7ph2584dvBDtyzGcSKVS/PX7W2+9haJTmpqa8DBWZ2fn3t7eYbbK3DCXdohGoyGPBQTu0urm5oYc9XFOnjzZ09MzevTogICA1NRUpVIZFxeHHCAhhL/88kteXl5PT09gYODixYvJ46eSkpKzZ8+2tbW5ubnFxsaSOylNjh49ihy0X331Vdzny9XVNT09vaqq6o8//nB0dLx37x5+krq6uqysLOSzMGrUqFmzZhHixfA4TAihu7v7nDlzND1eEANGM2qJAjUNphZx3+DfCsHjDEKIPBNiY2NRMBcAYO3atRDC9vb2Z599VvPW2Gx2WloafqBmyBGCRqMlJibisYtk8O2bb9y4QfjowYMHmgFAEMLvvvuO7I+BfFIRn3/+OdnV7u2339Y8ifZoxgGjQE2CpWoIfRmurq4MBiM/Px9COH/+fHTIc889l5SU5OXlBQCwsrIqLi5GB3755ZeoQkhIyNtvv43Hwn7zzTf9meHg4ICuNWCHVVNTgwTk4+OzdevWjRs3CgQCdP7S0lIIYXl5ObJ51qxZBw4cSE1NxTeoz8nJQScZMJpxwChQk2CpGgIAfPHFFxDCxsZGDMNKSkpQIXLEhhA+evQIObgtXboUQqhQKJAg/P39u7u7IYQqlQrFNbu5ualUKrINarUa+cHZ2dkNaHBFRcX27dvnz5+PBxmmpqYik1CEQlpaGvr36NGjqEJjY+P7779/6tQpFMkKdYhm1CUKdPixVA0xGAzNcN3du3fj31DrX6CeyMnJCUJYVFSEKqxevRqv8OGHH6LCP//8k2wDhmFIQzY2NrpbrlQqb9++vX///qlTp6KTHz9+HEJYUFCA9z7e3t6vv/768ePHNXtDtVqNck6MGzcOtxDFEAIAUlJSIIS7du3CTxIWFpaUlHT27Fn0kzAhlqohDw8PzUI8srhPZDJZVlaWlgooHxIZPGiQbEZzczPhy7t69eoLL7yA5x7BSU9PRxXwWFIcBoOxatUqmUwGIUQBG/2BYsalUilqOzXh8/moSTYV5jIvGyyEeDl8MDt//nzNrCjkCuHh4eSYtT4PAQBERUWdPXsWAJCXl0dYB9qyZUtWVtbcuXM//fTTkJCQK1euzJo1C8MwFxeXhISE6dOnt7S0INHgjuH79+9fuXJlenr6+fPnUXSvSqU6fvw4i8U6cOCALtGM+kWBDjkm1K8WBmyHQkJCNAvxweaRI0fwwlu3buGHV1RUoAorV67EK1RWVtbW1qLUDn2Ch15MmDBBs+ssKytDsycajYac5FFGGxqNVldXh+ocOXIEHXvixAkIoVKprK6uzs7OVigUEMK6urqDBw+iqD9/f390CAob8vb2xk1qbGysqKhQKpXoX7lcXlpaeunSJQghhmF37tx588030VUSEhJ0fbjGZoRoSCQSoe8jMDAQrb4UFhaiBmDRokWoDgqksra2RvO41jLvxO0AAAG1SURBVNZWNHfz8PDob/VSpVLhobehoaFHjx797bff9uzZgy9ZLVu2DNXEp9xlZWUQQolEgh+IxkNJSUno36+//hodIhaL0b1ERESgknXr1qE6KM2NUqlEEY9MJhNFz4WHhwMAGAwGvtaAAqIBaY1gOBkhGoIQ4gNka2vrwMBA1DXY2toWFhaiCrm5uUhnNBrN398f7w337t2rxRKRSNRnFB8AYNy4cXhm0pSUFFTI5XJnzJjh4OCA9027du2CEDY0NOBpJAIDA6OionAD8PduA0Yz6hIFOvyMHA1BCL/55hvNlF4ogYtmhZycHM3YYTc3twMHDgxoTEdHx5YtW/D1HvSdbdy4UTP5q1qtTkxM1Bx13bhxAw3JIyMjUR2hULhkyRLNdUgfHx98xI2orq5G0YyoAopm7OnpwStcunSJsPYdFRWFr4GZhJEWX4Zh2IMHDyQSibu7u2b6GE1EItHjx48dHBx8fHx0z5qgVqurq6vFYjGfzx87dmyfyRslEolQKBQIBFoS3Mjl8vr6eolE4uLiopn2UJMBoxm1R4EOMyNNQxTDD+XHSGEolIYoDIXSEIWh/A8TvplZA7Z6IAAAAABJRU5ErkJggg==;" parent="1" vertex="1">
          <mxGeometry x="226.09" y="243" width="61.85" height="50" as="geometry" />
        </mxCell>
        <mxCell id="WSBtiJHm_wksfHjQNRmj-9" style="edgeStyle=orthogonalEdgeStyle;rounded=0;orthogonalLoop=1;jettySize=auto;html=1;entryX=0;entryY=0.75;entryDx=0;entryDy=0;" parent="1" target="XUYExaWCkDun1sldvAOi-25" edge="1">
          <mxGeometry relative="1" as="geometry">
            <mxPoint x="372" y="284.65714285714296" as="sourcePoint" />
          </mxGeometry>
        </mxCell>
        <mxCell id="WSBtiJHm_wksfHjQNRmj-13" style="edgeStyle=orthogonalEdgeStyle;rounded=0;orthogonalLoop=1;jettySize=auto;html=1;entryX=0.001;entryY=0.536;entryDx=0;entryDy=0;entryPerimeter=0;" parent="1" source="XUYExaWCkDun1sldvAOi-64" edge="1">
          <mxGeometry relative="1" as="geometry">
            <Array as="points">
              <mxPoint x="300" y="286" />
            </Array>
            <mxPoint x="323.049" y="285.1977599999999" as="targetPoint" />
          </mxGeometry>
        </mxCell>
        <mxCell id="WSBtiJHm_wksfHjQNRmj-20" style="edgeStyle=orthogonalEdgeStyle;rounded=0;orthogonalLoop=1;jettySize=auto;html=1;entryX=0;entryY=0.5;entryDx=0;entryDy=0;" parent="1" target="XUYExaWCkDun1sldvAOi-23" edge="1">
          <mxGeometry relative="1" as="geometry">
            <mxPoint x="372" y="479.0571428571428" as="sourcePoint" />
          </mxGeometry>
        </mxCell>
        <mxCell id="WSBtiJHm_wksfHjQNRmj-19" style="edgeStyle=orthogonalEdgeStyle;rounded=0;orthogonalLoop=1;jettySize=auto;html=1;entryX=-0.017;entryY=0.593;entryDx=0;entryDy=0;entryPerimeter=0;" parent="1" source="XUYExaWCkDun1sldvAOi-64" edge="1">
          <mxGeometry relative="1" as="geometry">
            <Array as="points">
              <mxPoint x="300" y="480" />
            </Array>
            <mxPoint x="322.16700000000003" y="480.3733799999999" as="targetPoint" />
          </mxGeometry>
        </mxCell>
        <mxCell id="YBWQP4qFkVBTGEJP46_Y-8" style="edgeStyle=orthogonalEdgeStyle;rounded=0;orthogonalLoop=1;jettySize=auto;html=1;exitX=1;exitY=0.5;exitDx=0;exitDy=0;entryX=0;entryY=0.25;entryDx=0;entryDy=0;" parent="1" source="YBWQP4qFkVBTGEJP46_Y-4" target="XUYExaWCkDun1sldvAOi-25" edge="1">
          <mxGeometry relative="1" as="geometry" />
        </mxCell>
        <mxCell id="YBWQP4qFkVBTGEJP46_Y-4" value="&lt;font style=&quot;font-size: 8px;&quot;&gt;Few Shot&lt;/font&gt;" style="rounded=0;whiteSpace=wrap;html=1;fontStyle=1" parent="1" vertex="1">
          <mxGeometry x="323" y="247.99999999999994" width="49" height="14.66" as="geometry" />
        </mxCell>
        <mxCell id="YBWQP4qFkVBTGEJP46_Y-10" value="&lt;font style=&quot;font-size: 8px;&quot;&gt;Prompt&lt;/font&gt;" style="rounded=0;whiteSpace=wrap;html=1;fontStyle=1" parent="1" vertex="1">
          <mxGeometry x="323" y="277.34" width="49" height="14.66" as="geometry" />
        </mxCell>
        <mxCell id="YBWQP4qFkVBTGEJP46_Y-11" value="&lt;font style=&quot;font-size: 8px;&quot;&gt;Embedding&lt;/font&gt;" style="rounded=0;whiteSpace=wrap;html=1;fontStyle=1" parent="1" vertex="1">
          <mxGeometry x="323" y="471.66999999999996" width="49" height="14.66" as="geometry" />
        </mxCell>
        <mxCell id="YBWQP4qFkVBTGEJP46_Y-19" style="edgeStyle=orthogonalEdgeStyle;rounded=0;orthogonalLoop=1;jettySize=auto;html=1;exitX=0;exitY=0.5;exitDx=0;exitDy=0;entryX=1;entryY=0.25;entryDx=0;entryDy=0;" parent="1" source="YBWQP4qFkVBTGEJP46_Y-14" target="XUYExaWCkDun1sldvAOi-25" edge="1">
          <mxGeometry relative="1" as="geometry" />
        </mxCell>
        <mxCell id="YBWQP4qFkVBTGEJP46_Y-14" value="&lt;font style=&quot;font-size: 8px;&quot;&gt;Query&lt;/font&gt;" style="rounded=0;whiteSpace=wrap;html=1;fontStyle=1" parent="1" vertex="1">
          <mxGeometry x="498" y="248" width="49" height="14.66" as="geometry" />
        </mxCell>
        <mxCell id="YBWQP4qFkVBTGEJP46_Y-23" value="" style="endArrow=classic;html=1;rounded=0;entryX=1;entryY=0.5;entryDx=0;entryDy=0;exitX=-0.002;exitY=0.341;exitDx=0;exitDy=0;exitPerimeter=0;" parent="1" source="XUYExaWCkDun1sldvAOi-28" target="YBWQP4qFkVBTGEJP46_Y-14" edge="1">
          <mxGeometry width="50" height="50" relative="1" as="geometry">
            <mxPoint x="530" y="320" as="sourcePoint" />
            <mxPoint x="580" y="270" as="targetPoint" />
          </mxGeometry>
        </mxCell>
        <mxCell id="xcc9BRC9a-d-rJke41Ds-1" value="Actor" style="shape=umlActor;verticalLabelPosition=bottom;verticalAlign=top;html=1;" vertex="1" parent="1">
          <mxGeometry x="280" y="580" width="30" height="60" as="geometry" />
        </mxCell>
        <mxCell id="xcc9BRC9a-d-rJke41Ds-3" value="&amp;lt;&amp;lt;external&amp;gt;&amp;gt;&lt;br&gt;Action1&lt;br&gt;(partition1)" style="html=1;align=center;verticalAlign=middle;rounded=1;absoluteArcSize=1;arcSize=10;dashed=0;whiteSpace=wrap;" vertex="1" parent="1">
          <mxGeometry x="413" y="580" width="140" height="70" as="geometry" />
        </mxCell>
        <mxCell id="xcc9BRC9a-d-rJke41Ds-4" value="Decompose task" style="html=1;align=center;verticalAlign=top;rounded=1;absoluteArcSize=1;arcSize=10;dashed=0;whiteSpace=wrap;" vertex="1" parent="1">
          <mxGeometry x="230" y="840" width="140" height="30" as="geometry" />
        </mxCell>
        <mxCell id="Ocei1wkQtC9zZT5PZuAF-1" value="Extension point 1" style="shape=note2;boundedLbl=1;whiteSpace=wrap;html=1;size=25;verticalAlign=top;align=left;spacingLeft=5;" vertex="1" parent="1">
          <mxGeometry x="150" y="620" width="140" height="60" as="geometry" />
        </mxCell>
        <mxCell id="Ocei1wkQtC9zZT5PZuAF-2" value="Extend condition 1" style="resizeWidth=1;part=1;strokeColor=none;fillColor=none;align=left;spacingLeft=5;whiteSpace=wrap;html=1;" vertex="1" parent="Ocei1wkQtC9zZT5PZuAF-1">
          <mxGeometry width="140" height="25" relative="1" as="geometry" />
        </mxCell>
        <mxCell id="Ocei1wkQtC9zZT5PZuAF-5" value="&lt;span style=&quot;text-align: left;&quot;&gt;User Task Description&lt;/span&gt;" style="shape=note2;boundedLbl=1;whiteSpace=wrap;html=1;size=25;verticalAlign=top;align=center;" vertex="1" parent="1">
          <mxGeometry x="110" y="760" width="90" height="60" as="geometry" />
        </mxCell>
        <mxCell id="Ocei1wkQtC9zZT5PZuAF-28" value="&lt;span style=&quot;text-align: left;&quot;&gt;Skill Manifest&lt;/span&gt;" style="shape=note2;boundedLbl=1;whiteSpace=wrap;html=1;size=25;verticalAlign=top;align=center;" vertex="1" parent="1">
          <mxGeometry x="120" y="1020" width="90" height="60" as="geometry" />
        </mxCell>
        <mxCell id="ZUzvCvRMgNemIQkB3bkd-1" value="Vector Database" style="shape=cylinder3;whiteSpace=wrap;html=1;boundedLbl=1;backgroundOutline=1;size=15;" vertex="1" parent="1">
          <mxGeometry x="505" y="730" width="60" height="80" as="geometry" />
        </mxCell>
        <mxCell id="ZUzvCvRMgNemIQkB3bkd-2" value="" style="group" vertex="1" connectable="0" parent="1">
          <mxGeometry x="165" y="880" width="260" height="67.5" as="geometry" />
        </mxCell>
        <mxCell id="Ocei1wkQtC9zZT5PZuAF-13" value="&lt;font style=&quot;font-size: 8px;&quot;&gt;Subtasks&lt;/font&gt;" style="swimlane;childLayout=stackLayout;resizeParent=1;resizeParentMax=0;startSize=10;html=1;" vertex="1" parent="ZUzvCvRMgNemIQkB3bkd-2">
          <mxGeometry width="260" height="67.5" as="geometry" />
        </mxCell>
        <mxCell id="Ocei1wkQtC9zZT5PZuAF-14" value="&lt;font style=&quot;font-size: 8px;&quot;&gt;Sequence&lt;/font&gt;" style="swimlane;startSize=20;html=1;" vertex="1" parent="Ocei1wkQtC9zZT5PZuAF-13">
          <mxGeometry y="10" width="50" height="57.5" as="geometry" />
        </mxCell>
        <mxCell id="Ocei1wkQtC9zZT5PZuAF-15" value="1" style="text;whiteSpace=wrap;align=center;verticalAlign=middle;fontSize=8;" vertex="1" parent="Ocei1wkQtC9zZT5PZuAF-14">
          <mxGeometry x="15" y="17" width="20" height="25" as="geometry" />
        </mxCell>
        <mxCell id="Ocei1wkQtC9zZT5PZuAF-16" value="..." style="text;whiteSpace=wrap;align=center;verticalAlign=middle;fontSize=8;" vertex="1" parent="Ocei1wkQtC9zZT5PZuAF-14">
          <mxGeometry x="15" y="32.5" width="20" height="25" as="geometry" />
        </mxCell>
        <mxCell id="Ocei1wkQtC9zZT5PZuAF-17" value="&lt;div align=&quot;center&quot;&gt;&lt;font style=&quot;font-size: 8px;&quot;&gt;Subtask Description&lt;/font&gt;&lt;/div&gt;" style="swimlane;startSize=20;html=1;align=center;" vertex="1" parent="Ocei1wkQtC9zZT5PZuAF-13">
          <mxGeometry x="50" y="10" width="120" height="57.5" as="geometry" />
        </mxCell>
        <mxCell id="Ocei1wkQtC9zZT5PZuAF-18" value="&lt;font style=&quot;font-size: 8px;&quot;&gt;Recommended Skill&lt;/font&gt;&lt;span style=&quot;font-size: 8px; background-color: transparent; color: light-dark(rgb(0, 0, 0), rgb(255, 255, 255));&quot;&gt;)&lt;/span&gt;" style="swimlane;startSize=20;html=1;" vertex="1" parent="Ocei1wkQtC9zZT5PZuAF-13">
          <mxGeometry x="170" y="10" width="90" height="57.5" as="geometry" />
        </mxCell>
        <mxCell id="Ocei1wkQtC9zZT5PZuAF-19" value="&lt;font style=&quot;font-size: 8px;&quot;&gt;Move robot to home position&lt;/font&gt;" style="text;whiteSpace=wrap;html=1;" vertex="1" parent="ZUzvCvRMgNemIQkB3bkd-2">
          <mxGeometry x="59.85000000000002" y="25" width="105" height="20" as="geometry" />
        </mxCell>
        <mxCell id="Ocei1wkQtC9zZT5PZuAF-20" value="&lt;font style=&quot;font-size: 8px;&quot;&gt;&lt;span data-teams=&quot;true&quot;&gt;ComputePathToState&lt;/span&gt;&lt;/font&gt;" style="text;whiteSpace=wrap;html=1;" vertex="1" parent="ZUzvCvRMgNemIQkB3bkd-2">
          <mxGeometry x="177" y="25" width="80" height="20" as="geometry" />
        </mxCell>
        <mxCell id="Ocei1wkQtC9zZT5PZuAF-21" value="&lt;div align=&quot;center&quot;&gt;&lt;font style=&quot;font-size: 8px;&quot;&gt;...&lt;/font&gt;&lt;/div&gt;" style="text;whiteSpace=wrap;html=1;align=center;" vertex="1" parent="ZUzvCvRMgNemIQkB3bkd-2">
          <mxGeometry x="62.85000000000002" y="42.5" width="105" height="20" as="geometry" />
        </mxCell>
        <mxCell id="Ocei1wkQtC9zZT5PZuAF-22" value="&lt;div align=&quot;center&quot;&gt;&lt;font style=&quot;font-size: 8px;&quot;&gt;...&lt;/font&gt;&lt;/div&gt;" style="text;whiteSpace=wrap;html=1;align=center;" vertex="1" parent="ZUzvCvRMgNemIQkB3bkd-2">
          <mxGeometry x="186.5" y="45" width="65" height="20" as="geometry" />
        </mxCell>
        <mxCell id="ZUzvCvRMgNemIQkB3bkd-3" value="Validate used skills" style="html=1;align=center;verticalAlign=top;rounded=1;absoluteArcSize=1;arcSize=10;dashed=0;whiteSpace=wrap;" vertex="1" parent="1">
          <mxGeometry x="469.73" y="830" width="140" height="30" as="geometry" />
        </mxCell>
        <mxCell id="ZUzvCvRMgNemIQkB3bkd-4" value="Generate&amp;nbsp;" style="html=1;align=center;verticalAlign=top;rounded=1;absoluteArcSize=1;arcSize=10;dashed=0;whiteSpace=wrap;" vertex="1" parent="1">
          <mxGeometry x="232" y="1035" width="140" height="30" as="geometry" />
        </mxCell>
      </root>
    </mxGraphModel>
  </diagram>
  <diagram id="86RyBfj8C676-dhIEPKe" name="Page-2">
    <mxGraphModel grid="1" page="1" gridSize="10" guides="1" tooltips="1" connect="1" arrows="1" fold="1" pageScale="1" pageWidth="827" pageHeight="1169" math="0" shadow="0">
      <root>
        <mxCell id="0" />
        <mxCell id="1" parent="0" />
        <mxCell id="kE50YCOSSzVSj1kAwmBy-39" value="ColorPoseEstimation" style="rounded=1;whiteSpace=wrap;html=1;strokeColor=#6c8ebf;fillColor=#dae8fc;fontSize=13;" vertex="1" parent="1">
          <mxGeometry x="40" y="70" width="200" height="60" as="geometry" />
        </mxCell>
        <mxCell id="kE50YCOSSzVSj1kAwmBy-40" value="ComputePathToPoint" style="rounded=1;whiteSpace=wrap;html=1;strokeColor=#6c8ebf;fillColor=#dae8fc;fontSize=13;" vertex="1" parent="1">
          <mxGeometry x="640" y="70" width="200" height="60" as="geometry" />
        </mxCell>
        <mxCell id="kE50YCOSSzVSj1kAwmBy-41" value="ComputePathToPose" style="rounded=1;whiteSpace=wrap;html=1;strokeColor=#6c8ebf;fillColor=#dae8fc;fontSize=13;" vertex="1" parent="1">
          <mxGeometry x="640" y="160" width="200" height="60" as="geometry" />
        </mxCell>
        <mxCell id="kE50YCOSSzVSj1kAwmBy-42" value="ComputePathToState" style="rounded=1;whiteSpace=wrap;html=1;strokeColor=#6c8ebf;fillColor=#dae8fc;fontSize=13;" vertex="1" parent="1">
          <mxGeometry x="640" y="250" width="200" height="60" as="geometry" />
        </mxCell>
        <mxCell id="kE50YCOSSzVSj1kAwmBy-43" value="ControlJointsPositionsViaCtrlX" style="rounded=1;whiteSpace=wrap;html=1;strokeColor=#6c8ebf;fillColor=#dae8fc;fontSize=13;" vertex="1" parent="1">
          <mxGeometry x="940" y="70" width="200" height="60" as="geometry" />
        </mxCell>
        <mxCell id="kE50YCOSSzVSj1kAwmBy-44" value="DetectArucoMarker" style="rounded=1;whiteSpace=wrap;html=1;strokeColor=#6c8ebf;fillColor=#dae8fc;fontSize=13;" vertex="1" parent="1">
          <mxGeometry x="40" y="160" width="200" height="60" as="geometry" />
        </mxCell>
        <mxCell id="kE50YCOSSzVSj1kAwmBy-45" value="ExecuteTrajectory" style="rounded=1;whiteSpace=wrap;html=1;strokeColor=#6c8ebf;fillColor=#dae8fc;fontSize=13;" vertex="1" parent="1">
          <mxGeometry x="940" y="160" width="200" height="60" as="geometry" />
        </mxCell>
        <mxCell id="kE50YCOSSzVSj1kAwmBy-48" value="LegoPoseEstimator" style="rounded=1;whiteSpace=wrap;html=1;strokeColor=#6c8ebf;fillColor=#dae8fc;fontSize=13;" vertex="1" parent="1">
          <mxGeometry x="40" y="340" width="200" height="60" as="geometry" />
        </mxCell>
        <mxCell id="kE50YCOSSzVSj1kAwmBy-49" value="SetPathConstraints" style="rounded=1;whiteSpace=wrap;html=1;strokeColor=#6c8ebf;fillColor=#dae8fc;fontSize=13;" vertex="1" parent="1">
          <mxGeometry x="440" y="10" width="200" height="60" as="geometry" />
        </mxCell>
        <mxCell id="kE50YCOSSzVSj1kAwmBy-51" value="YaskawaGripperCommand" style="rounded=1;whiteSpace=wrap;html=1;strokeColor=#6c8ebf;fillColor=#dae8fc;fontSize=13;" vertex="1" parent="1">
          <mxGeometry x="940" y="250" width="200" height="30" as="geometry" />
        </mxCell>
        <mxCell id="kE50YCOSSzVSj1kAwmBy-52" value="UpdateOrientationInPose" style="rounded=1;whiteSpace=wrap;html=1;strokeColor=#6c8ebf;fillColor=#dae8fc;fontSize=13;" vertex="1" parent="1">
          <mxGeometry x="390" y="440" width="200" height="60" as="geometry" />
        </mxCell>
        <mxCell id="kE50YCOSSzVSj1kAwmBy-53" value="color_pose_cube→target_pose" style="endArrow=block;endFill=1;strokeColor=#334155;fontSize=11;align=center;verticalAlign=middle;labelBackgroundColor=#ffffff;" edge="1" parent="1" source="kE50YCOSSzVSj1kAwmBy-39" target="kE50YCOSSzVSj1kAwmBy-41">
          <mxGeometry x="0.85" relative="1" as="geometry">
            <mxPoint y="-8" as="offset" />
          </mxGeometry>
        </mxCell>
        <mxCell id="kE50YCOSSzVSj1kAwmBy-54" value="color_pose_cube→base_posestamped" style="endArrow=block;endFill=1;strokeColor=#334155;fontSize=11;align=center;verticalAlign=middle;labelBackgroundColor=#ffffff;" edge="1" parent="1" source="kE50YCOSSzVSj1kAwmBy-39" target="kE50YCOSSzVSj1kAwmBy-50">
          <mxGeometry x="0.85" relative="1" as="geometry">
            <mxPoint y="-8" as="offset" />
          </mxGeometry>
        </mxCell>
        <mxCell id="kE50YCOSSzVSj1kAwmBy-55" value="color_pose_cube→base_posestamped" style="endArrow=block;endFill=1;strokeColor=#334155;fontSize=11;align=center;verticalAlign=middle;labelBackgroundColor=#ffffff;" edge="1" parent="1" source="kE50YCOSSzVSj1kAwmBy-39" target="kE50YCOSSzVSj1kAwmBy-52">
          <mxGeometry x="0.85" relative="1" as="geometry">
            <mxPoint y="-8" as="offset" />
          </mxGeometry>
        </mxCell>
        <mxCell id="kE50YCOSSzVSj1kAwmBy-56" value="color_pose_cube_holder→target_pose" style="endArrow=block;endFill=1;strokeColor=#334155;fontSize=11;align=center;verticalAlign=middle;labelBackgroundColor=#ffffff;" edge="1" parent="1" source="kE50YCOSSzVSj1kAwmBy-39" target="kE50YCOSSzVSj1kAwmBy-41">
          <mxGeometry x="0.844" y="8" relative="1" as="geometry">
            <mxPoint as="offset" />
          </mxGeometry>
        </mxCell>
        <mxCell id="kE50YCOSSzVSj1kAwmBy-57" value="color_pose_cube_holder→base_posestamped" style="endArrow=block;endFill=1;strokeColor=#334155;fontSize=11;align=center;verticalAlign=middle;labelBackgroundColor=#ffffff;" edge="1" parent="1" source="kE50YCOSSzVSj1kAwmBy-39" target="kE50YCOSSzVSj1kAwmBy-50">
          <mxGeometry x="0.8236" y="7" relative="1" as="geometry">
            <mxPoint as="offset" />
          </mxGeometry>
        </mxCell>
        <mxCell id="kE50YCOSSzVSj1kAwmBy-58" value="color_pose_cube_holder→base_posestamped" style="endArrow=block;endFill=1;strokeColor=#334155;fontSize=11;align=center;verticalAlign=middle;labelBackgroundColor=#ffffff;" edge="1" parent="1" source="kE50YCOSSzVSj1kAwmBy-39" target="kE50YCOSSzVSj1kAwmBy-52">
          <mxGeometry x="0.85" relative="1" as="geometry">
            <mxPoint y="-8" as="offset" />
          </mxGeometry>
        </mxCell>
        <mxCell id="kE50YCOSSzVSj1kAwmBy-59" value="marker_pose→target_pose" style="endArrow=block;endFill=1;strokeColor=#334155;fontSize=11;align=center;verticalAlign=middle;labelBackgroundColor=#ffffff;" edge="1" parent="1" source="kE50YCOSSzVSj1kAwmBy-44" target="kE50YCOSSzVSj1kAwmBy-41">
          <mxGeometry x="0.85" relative="1" as="geometry">
            <mxPoint y="-8" as="offset" />
          </mxGeometry>
        </mxCell>
        <mxCell id="kE50YCOSSzVSj1kAwmBy-60" value="marker_pose→base_posestamped" style="endArrow=block;endFill=1;strokeColor=#334155;fontSize=11;align=center;verticalAlign=middle;labelBackgroundColor=#ffffff;" edge="1" parent="1" source="kE50YCOSSzVSj1kAwmBy-44" target="kE50YCOSSzVSj1kAwmBy-50">
          <mxGeometry x="0.85" relative="1" as="geometry">
            <mxPoint y="-8" as="offset" />
          </mxGeometry>
        </mxCell>
        <mxCell id="kE50YCOSSzVSj1kAwmBy-61" value="marker_pose→base_posestamped" style="endArrow=block;endFill=1;strokeColor=#334155;fontSize=11;align=center;verticalAlign=middle;labelBackgroundColor=#ffffff;" edge="1" parent="1" source="kE50YCOSSzVSj1kAwmBy-44" target="kE50YCOSSzVSj1kAwmBy-52">
          <mxGeometry x="0.85" relative="1" as="geometry">
            <mxPoint y="-8" as="offset" />
          </mxGeometry>
        </mxCell>
        <mxCell id="kE50YCOSSzVSj1kAwmBy-62" value="lego_pose→target_pose" style="endArrow=block;endFill=1;strokeColor=#334155;fontSize=11;align=center;verticalAlign=middle;labelBackgroundColor=#ffffff;" edge="1" parent="1" source="kE50YCOSSzVSj1kAwmBy-50" target="kE50YCOSSzVSj1kAwmBy-41">
          <mxGeometry x="0.85" relative="1" as="geometry">
            <mxPoint y="-8" as="offset" />
          </mxGeometry>
        </mxCell>
        <mxCell id="kE50YCOSSzVSj1kAwmBy-63" value="lego_pose→base_posestamped" style="endArrow=block;endFill=1;strokeColor=#334155;fontSize=11;align=center;verticalAlign=middle;labelBackgroundColor=#ffffff;" edge="1" parent="1" source="kE50YCOSSzVSj1kAwmBy-48" target="kE50YCOSSzVSj1kAwmBy-50">
          <mxGeometry x="0.85" relative="1" as="geometry">
            <mxPoint y="-8" as="offset" />
          </mxGeometry>
        </mxCell>
        <mxCell id="kE50YCOSSzVSj1kAwmBy-64" value="lego_pose→base_posestamped" style="endArrow=block;endFill=1;strokeColor=#334155;fontSize=11;align=center;verticalAlign=middle;labelBackgroundColor=#ffffff;" edge="1" parent="1" source="kE50YCOSSzVSj1kAwmBy-48" target="kE50YCOSSzVSj1kAwmBy-52">
          <mxGeometry x="0.85" relative="1" as="geometry">
            <mxPoint y="-8" as="offset" />
          </mxGeometry>
        </mxCell>
        <mxCell id="kE50YCOSSzVSj1kAwmBy-65" value="updated_posestamped→target_pose" style="endArrow=block;endFill=1;strokeColor=#334155;fontSize=11;align=center;verticalAlign=middle;labelBackgroundColor=#ffffff;" edge="1" parent="1" source="kE50YCOSSzVSj1kAwmBy-50" target="kE50YCOSSzVSj1kAwmBy-41">
          <mxGeometry x="0.85" relative="1" as="geometry">
            <mxPoint y="-8" as="offset" />
          </mxGeometry>
        </mxCell>
        <mxCell id="kE50YCOSSzVSj1kAwmBy-66" value="updated_posestamped→base_posestamped" style="endArrow=block;endFill=1;strokeColor=#334155;fontSize=11;align=center;verticalAlign=middle;labelBackgroundColor=#ffffff;" edge="1" parent="1" source="kE50YCOSSzVSj1kAwmBy-50" target="kE50YCOSSzVSj1kAwmBy-52">
          <mxGeometry x="0.85" relative="1" as="geometry">
            <mxPoint y="-8" as="offset" />
          </mxGeometry>
        </mxCell>
        <mxCell id="kE50YCOSSzVSj1kAwmBy-67" value="updated_posestamped→target_pose" style="endArrow=block;endFill=1;strokeColor=#334155;fontSize=11;align=center;verticalAlign=middle;labelBackgroundColor=#ffffff;" edge="1" parent="1" source="kE50YCOSSzVSj1kAwmBy-52" target="kE50YCOSSzVSj1kAwmBy-41">
          <mxGeometry x="0.85" relative="1" as="geometry">
            <mxPoint y="-8" as="offset" />
          </mxGeometry>
        </mxCell>
        <mxCell id="kE50YCOSSzVSj1kAwmBy-68" value="updated_posestamped→base_posestamped" style="endArrow=block;endFill=1;strokeColor=#334155;fontSize=11;align=center;verticalAlign=middle;labelBackgroundColor=#ffffff;" edge="1" parent="1" source="kE50YCOSSzVSj1kAwmBy-52" target="kE50YCOSSzVSj1kAwmBy-50">
          <mxGeometry x="0.85" relative="1" as="geometry">
            <mxPoint y="-8" as="offset" />
          </mxGeometry>
        </mxCell>
        <mxCell id="kE50YCOSSzVSj1kAwmBy-69" value="trajectory→trajectory" style="endArrow=block;endFill=1;strokeColor=#334155;fontSize=11;align=center;verticalAlign=middle;labelBackgroundColor=#ffffff;" edge="1" parent="1" source="kE50YCOSSzVSj1kAwmBy-40" target="kE50YCOSSzVSj1kAwmBy-45">
          <mxGeometry x="0.85" relative="1" as="geometry">
            <mxPoint y="-8" as="offset" />
          </mxGeometry>
        </mxCell>
        <mxCell id="kE50YCOSSzVSj1kAwmBy-70" value="trajectory→trajectory" style="endArrow=block;endFill=1;strokeColor=#334155;fontSize=11;align=center;verticalAlign=middle;labelBackgroundColor=#ffffff;" edge="1" parent="1" source="kE50YCOSSzVSj1kAwmBy-41" target="kE50YCOSSzVSj1kAwmBy-45">
          <mxGeometry x="0.85" relative="1" as="geometry">
            <mxPoint y="-8" as="offset" />
          </mxGeometry>
        </mxCell>
        <mxCell id="kE50YCOSSzVSj1kAwmBy-72" value="path_constraints→path_constraints" style="endArrow=block;endFill=1;strokeColor=#334155;fontSize=11;align=center;verticalAlign=middle;labelBackgroundColor=#ffffff;" edge="1" parent="1" source="kE50YCOSSzVSj1kAwmBy-49" target="kE50YCOSSzVSj1kAwmBy-40">
          <mxGeometry x="0.85" relative="1" as="geometry">
            <mxPoint y="-8" as="offset" />
          </mxGeometry>
        </mxCell>
        <mxCell id="kE50YCOSSzVSj1kAwmBy-73" value="path_constraints→path_constraints" style="endArrow=block;endFill=1;strokeColor=#334155;fontSize=11;align=center;verticalAlign=middle;labelBackgroundColor=#ffffff;" edge="1" parent="1" source="kE50YCOSSzVSj1kAwmBy-49" target="kE50YCOSSzVSj1kAwmBy-41">
          <mxGeometry x="0.85" relative="1" as="geometry">
            <mxPoint y="-8" as="offset" />
          </mxGeometry>
        </mxCell>
        <mxCell id="kE50YCOSSzVSj1kAwmBy-74" value="path_constraints→path_constraints" style="endArrow=block;endFill=1;strokeColor=#334155;fontSize=11;align=center;verticalAlign=middle;labelBackgroundColor=#ffffff;" edge="1" parent="1" source="kE50YCOSSzVSj1kAwmBy-49" target="kE50YCOSSzVSj1kAwmBy-42">
          <mxGeometry x="0.85" relative="1" as="geometry">
            <mxPoint y="-8" as="offset" />
          </mxGeometry>
        </mxCell>
        <mxCell id="kE50YCOSSzVSj1kAwmBy-75" value="" style="endArrow=block;endFill=1;strokeColor=#334155;fontSize=11;align=center;verticalAlign=middle;labelBackgroundColor=#ffffff;" edge="1" parent="1" source="kE50YCOSSzVSj1kAwmBy-48" target="kE50YCOSSzVSj1kAwmBy-50">
          <mxGeometry x="0.85" relative="1" as="geometry">
            <mxPoint y="-8" as="offset" />
            <mxPoint x="240" y="340" as="sourcePoint" />
            <mxPoint x="640" y="220" as="targetPoint" />
          </mxGeometry>
        </mxCell>
        <mxCell id="kE50YCOSSzVSj1kAwmBy-50" value="UpdatePose" style="rounded=1;whiteSpace=wrap;html=1;strokeColor=#6c8ebf;fillColor=#dae8fc;fontSize=13;" vertex="1" parent="1">
          <mxGeometry x="400" y="250" width="200" height="60" as="geometry" />
        </mxCell>
        <mxCell id="2lcbj75CAUhinIEaoMnC-1" value="Sense" style="shape=swimlane;startSize=24;horizontal=0;childLayout=stackLayout;rounded=1;fillColor=#F1F5F9;strokeColor=#CBD5E1;fontStyle=1;" vertex="1" parent="1">
          <mxGeometry x="220" y="1020" width="200" height="24" as="geometry" />
        </mxCell>
        <mxCell id="2lcbj75CAUhinIEaoMnC-2" value="Transform" style="shape=swimlane;startSize=24;horizontal=0;childLayout=stackLayout;rounded=1;fillColor=#F1F5F9;strokeColor=#CBD5E1;fontStyle=1;" vertex="1" parent="1">
          <mxGeometry x="520" y="1020" width="200" height="24" as="geometry" />
        </mxCell>
        <mxCell id="2lcbj75CAUhinIEaoMnC-3" value="Plan" style="shape=swimlane;startSize=24;horizontal=0;childLayout=stackLayout;rounded=1;fillColor=#F1F5F9;strokeColor=#CBD5E1;fontStyle=1;" vertex="1" parent="1">
          <mxGeometry x="820" y="1020" width="200" height="24" as="geometry" />
        </mxCell>
        <mxCell id="2lcbj75CAUhinIEaoMnC-4" value="Act" style="shape=swimlane;startSize=24;horizontal=0;childLayout=stackLayout;rounded=1;fillColor=#F1F5F9;strokeColor=#CBD5E1;fontStyle=1;" vertex="1" parent="1">
          <mxGeometry x="1120" y="1020" width="200" height="24" as="geometry" />
        </mxCell>
        <mxCell id="2lcbj75CAUhinIEaoMnC-5" value="Meta" style="shape=swimlane;startSize=24;horizontal=0;childLayout=stackLayout;rounded=1;fillColor=#F1F5F9;strokeColor=#CBD5E1;fontStyle=1;" vertex="1" parent="1">
          <mxGeometry x="1420" y="1020" width="200" height="24" as="geometry" />
        </mxCell>
        <mxCell id="2lcbj75CAUhinIEaoMnC-6" value="ColorPoseEstimation" style="rounded=1;whiteSpace=wrap;html=1;strokeColor=#475569;fillColor=#ffffff;fontSize=13;" vertex="1" parent="1">
          <mxGeometry x="220" y="1074" width="200" height="30" as="geometry" />
        </mxCell>
        <mxCell id="2lcbj75CAUhinIEaoMnC-7" value="ComputePathToPoint" style="rounded=1;whiteSpace=wrap;html=1;strokeColor=#475569;fillColor=#ffffff;fontSize=13;" vertex="1" parent="1">
          <mxGeometry x="820" y="1074" width="200" height="30" as="geometry" />
        </mxCell>
        <mxCell id="2lcbj75CAUhinIEaoMnC-8" value="ComputePathToPose" style="rounded=1;whiteSpace=wrap;html=1;strokeColor=#475569;fillColor=#ffffff;fontSize=13;" vertex="1" parent="1">
          <mxGeometry x="820" y="1144" width="200" height="30" as="geometry" />
        </mxCell>
        <mxCell id="2lcbj75CAUhinIEaoMnC-9" value="ComputePathToState" style="rounded=1;whiteSpace=wrap;html=1;strokeColor=#475569;fillColor=#ffffff;fontSize=13;" vertex="1" parent="1">
          <mxGeometry x="820" y="1214" width="200" height="30" as="geometry" />
        </mxCell>
        <mxCell id="2lcbj75CAUhinIEaoMnC-10" value="ControlJointsPositionsViaCtrlX" style="rounded=1;whiteSpace=wrap;html=1;strokeColor=#475569;fillColor=#ffffff;fontSize=13;" vertex="1" parent="1">
          <mxGeometry x="1120" y="1074" width="200" height="30" as="geometry" />
        </mxCell>
        <mxCell id="2lcbj75CAUhinIEaoMnC-11" value="DetectArucoMarker" style="rounded=1;whiteSpace=wrap;html=1;strokeColor=#475569;fillColor=#ffffff;fontSize=13;" vertex="1" parent="1">
          <mxGeometry x="220" y="1144" width="200" height="30" as="geometry" />
        </mxCell>
        <mxCell id="2lcbj75CAUhinIEaoMnC-12" value="ExecuteTrajectory" style="rounded=1;whiteSpace=wrap;html=1;strokeColor=#475569;fillColor=#ffffff;fontSize=13;" vertex="1" parent="1">
          <mxGeometry x="1120" y="1144" width="200" height="30" as="geometry" />
        </mxCell>
        <mxCell id="2lcbj75CAUhinIEaoMnC-13" value="GetCurrentIKFramePose" style="rounded=1;whiteSpace=wrap;html=1;strokeColor=#475569;fillColor=#ffffff;fontSize=13;" vertex="1" parent="1">
          <mxGeometry x="220" y="1214" width="200" height="30" as="geometry" />
        </mxCell>
        <mxCell id="2lcbj75CAUhinIEaoMnC-14" value="GetElementFromArrayDouble" style="rounded=1;whiteSpace=wrap;html=1;strokeColor=#475569;fillColor=#ffffff;fontSize=13;" vertex="1" parent="1">
          <mxGeometry x="520" y="1074" width="200" height="30" as="geometry" />
        </mxCell>
        <mxCell id="2lcbj75CAUhinIEaoMnC-15" value="LegoPoseEstimator" style="rounded=1;whiteSpace=wrap;html=1;strokeColor=#475569;fillColor=#ffffff;fontSize=13;" vertex="1" parent="1">
          <mxGeometry x="220" y="1284" width="200" height="30" as="geometry" />
        </mxCell>
        <mxCell id="2lcbj75CAUhinIEaoMnC-16" value="SetPathConstraints" style="rounded=1;whiteSpace=wrap;html=1;strokeColor=#475569;fillColor=#ffffff;fontSize=13;" vertex="1" parent="1">
          <mxGeometry x="650" y="910" width="200" height="30" as="geometry" />
        </mxCell>
        <mxCell id="2lcbj75CAUhinIEaoMnC-17" value="UpdatePose" style="rounded=1;whiteSpace=wrap;html=1;strokeColor=#475569;fillColor=#ffffff;fontSize=13;" vertex="1" parent="1">
          <mxGeometry x="910" y="1420" width="200" height="30" as="geometry" />
        </mxCell>
        <mxCell id="2lcbj75CAUhinIEaoMnC-18" value="YaskawaGripperCommand" style="rounded=1;whiteSpace=wrap;html=1;strokeColor=#475569;fillColor=#ffffff;fontSize=13;" vertex="1" parent="1">
          <mxGeometry x="1120" y="1214" width="200" height="30" as="geometry" />
        </mxCell>
        <mxCell id="2lcbj75CAUhinIEaoMnC-19" value="UpdateOrientationInPose" style="rounded=1;whiteSpace=wrap;html=1;strokeColor=#475569;fillColor=#ffffff;fontSize=13;" vertex="1" parent="1">
          <mxGeometry x="610" y="1440" width="200" height="30" as="geometry" />
        </mxCell>
        <mxCell id="2lcbj75CAUhinIEaoMnC-20" value="color_pose_cube→target_pose" style="endArrow=block;endFill=1;strokeColor=#334155;fontSize=11;" edge="1" parent="1" source="2lcbj75CAUhinIEaoMnC-6" target="2lcbj75CAUhinIEaoMnC-8">
          <mxGeometry relative="1" as="geometry" />
        </mxCell>
        <mxCell id="2lcbj75CAUhinIEaoMnC-21" value="color_pose_cube→base_posestamped" style="endArrow=block;endFill=1;strokeColor=#334155;fontSize=11;" edge="1" parent="1" source="2lcbj75CAUhinIEaoMnC-6" target="2lcbj75CAUhinIEaoMnC-17">
          <mxGeometry relative="1" as="geometry" />
        </mxCell>
        <mxCell id="2lcbj75CAUhinIEaoMnC-22" value="color_pose_cube→base_posestamped" style="endArrow=block;endFill=1;strokeColor=#334155;fontSize=11;" edge="1" parent="1" source="2lcbj75CAUhinIEaoMnC-6" target="2lcbj75CAUhinIEaoMnC-19">
          <mxGeometry relative="1" as="geometry" />
        </mxCell>
        <mxCell id="2lcbj75CAUhinIEaoMnC-23" value="color_pose_cube_holder→target_pose" style="endArrow=block;endFill=1;strokeColor=#334155;fontSize=11;" edge="1" parent="1" source="2lcbj75CAUhinIEaoMnC-6" target="2lcbj75CAUhinIEaoMnC-8">
          <mxGeometry relative="1" as="geometry" />
        </mxCell>
        <mxCell id="2lcbj75CAUhinIEaoMnC-24" value="color_pose_cube_holder→base_posestamped" style="endArrow=block;endFill=1;strokeColor=#334155;fontSize=11;" edge="1" parent="1" source="2lcbj75CAUhinIEaoMnC-6" target="2lcbj75CAUhinIEaoMnC-17">
          <mxGeometry relative="1" as="geometry" />
        </mxCell>
        <mxCell id="2lcbj75CAUhinIEaoMnC-25" value="color_pose_cube_holder→base_posestamped" style="endArrow=block;endFill=1;strokeColor=#334155;fontSize=11;" edge="1" parent="1" source="2lcbj75CAUhinIEaoMnC-6" target="2lcbj75CAUhinIEaoMnC-19">
          <mxGeometry relative="1" as="geometry" />
        </mxCell>
        <mxCell id="2lcbj75CAUhinIEaoMnC-26" value="marker_pose→target_pose" style="endArrow=block;endFill=1;strokeColor=#334155;fontSize=11;" edge="1" parent="1" source="2lcbj75CAUhinIEaoMnC-11" target="2lcbj75CAUhinIEaoMnC-8">
          <mxGeometry relative="1" as="geometry" />
        </mxCell>
        <mxCell id="2lcbj75CAUhinIEaoMnC-27" value="marker_pose→base_posestamped" style="endArrow=block;endFill=1;strokeColor=#334155;fontSize=11;" edge="1" parent="1" source="2lcbj75CAUhinIEaoMnC-11" target="2lcbj75CAUhinIEaoMnC-17">
          <mxGeometry relative="1" as="geometry" />
        </mxCell>
        <mxCell id="2lcbj75CAUhinIEaoMnC-28" value="marker_pose→base_posestamped" style="endArrow=block;endFill=1;strokeColor=#334155;fontSize=11;" edge="1" parent="1" source="2lcbj75CAUhinIEaoMnC-11" target="2lcbj75CAUhinIEaoMnC-19">
          <mxGeometry relative="1" as="geometry" />
        </mxCell>
        <mxCell id="2lcbj75CAUhinIEaoMnC-29" value="lego_pose→target_pose" style="endArrow=block;endFill=1;strokeColor=#334155;fontSize=11;" edge="1" parent="1" source="2lcbj75CAUhinIEaoMnC-15" target="2lcbj75CAUhinIEaoMnC-8">
          <mxGeometry relative="1" as="geometry" />
        </mxCell>
        <mxCell id="2lcbj75CAUhinIEaoMnC-30" value="lego_pose→base_posestamped" style="endArrow=block;endFill=1;strokeColor=#334155;fontSize=11;" edge="1" parent="1" source="2lcbj75CAUhinIEaoMnC-15" target="2lcbj75CAUhinIEaoMnC-17">
          <mxGeometry relative="1" as="geometry" />
        </mxCell>
        <mxCell id="2lcbj75CAUhinIEaoMnC-31" value="lego_pose→base_posestamped" style="endArrow=block;endFill=1;strokeColor=#334155;fontSize=11;" edge="1" parent="1" source="2lcbj75CAUhinIEaoMnC-15" target="2lcbj75CAUhinIEaoMnC-19">
          <mxGeometry relative="1" as="geometry" />
        </mxCell>
        <mxCell id="2lcbj75CAUhinIEaoMnC-32" value="updated_posestamped→target_pose" style="endArrow=block;endFill=1;strokeColor=#334155;fontSize=11;" edge="1" parent="1" source="2lcbj75CAUhinIEaoMnC-17" target="2lcbj75CAUhinIEaoMnC-8">
          <mxGeometry relative="1" as="geometry" />
        </mxCell>
        <mxCell id="2lcbj75CAUhinIEaoMnC-33" value="updated_posestamped→base_posestamped" style="endArrow=block;endFill=1;strokeColor=#334155;fontSize=11;" edge="1" parent="1" source="2lcbj75CAUhinIEaoMnC-17" target="2lcbj75CAUhinIEaoMnC-19">
          <mxGeometry relative="1" as="geometry" />
        </mxCell>
        <mxCell id="2lcbj75CAUhinIEaoMnC-34" value="updated_posestamped→target_pose" style="endArrow=block;endFill=1;strokeColor=#334155;fontSize=11;" edge="1" parent="1" source="2lcbj75CAUhinIEaoMnC-19" target="2lcbj75CAUhinIEaoMnC-8">
          <mxGeometry relative="1" as="geometry" />
        </mxCell>
        <mxCell id="2lcbj75CAUhinIEaoMnC-35" value="updated_posestamped→base_posestamped" style="endArrow=block;endFill=1;strokeColor=#334155;fontSize=11;" edge="1" parent="1" source="2lcbj75CAUhinIEaoMnC-19" target="2lcbj75CAUhinIEaoMnC-17">
          <mxGeometry relative="1" as="geometry" />
        </mxCell>
        <mxCell id="2lcbj75CAUhinIEaoMnC-36" value="trajectory→trajectory" style="endArrow=block;endFill=1;strokeColor=#334155;fontSize=11;" edge="1" parent="1" source="2lcbj75CAUhinIEaoMnC-7" target="2lcbj75CAUhinIEaoMnC-12">
          <mxGeometry relative="1" as="geometry" />
        </mxCell>
        <mxCell id="2lcbj75CAUhinIEaoMnC-37" value="trajectory→trajectory" style="endArrow=block;endFill=1;strokeColor=#334155;fontSize=11;" edge="1" parent="1" source="2lcbj75CAUhinIEaoMnC-8" target="2lcbj75CAUhinIEaoMnC-12">
          <mxGeometry relative="1" as="geometry" />
        </mxCell>
        <mxCell id="2lcbj75CAUhinIEaoMnC-38" value="pose→update_relative_pose" style="endArrow=block;endFill=1;strokeColor=#334155;fontSize=11;" edge="1" parent="1" source="2lcbj75CAUhinIEaoMnC-13" target="2lcbj75CAUhinIEaoMnC-17">
          <mxGeometry relative="1" as="geometry" />
        </mxCell>
        <mxCell id="2lcbj75CAUhinIEaoMnC-39" value="path_constraints→path_constraints" style="endArrow=block;endFill=1;strokeColor=#334155;fontSize=11;" edge="1" parent="1" source="2lcbj75CAUhinIEaoMnC-16" target="2lcbj75CAUhinIEaoMnC-7">
          <mxGeometry relative="1" as="geometry" />
        </mxCell>
        <mxCell id="2lcbj75CAUhinIEaoMnC-40" value="path_constraints→path_constraints" style="endArrow=block;endFill=1;strokeColor=#334155;fontSize=11;" edge="1" parent="1" source="2lcbj75CAUhinIEaoMnC-16" target="2lcbj75CAUhinIEaoMnC-8">
          <mxGeometry relative="1" as="geometry" />
        </mxCell>
        <mxCell id="2lcbj75CAUhinIEaoMnC-41" value="path_constraints→path_constraints" style="endArrow=block;endFill=1;strokeColor=#334155;fontSize=11;" edge="1" parent="1" source="2lcbj75CAUhinIEaoMnC-16" target="2lcbj75CAUhinIEaoMnC-9">
          <mxGeometry relative="1" as="geometry" />
        </mxCell>
      </root>
    </mxGraphModel>
  </diagram>
  <diagram id="X8dxQGpgCcdiHzRMykkp" name="Page-3">
    <mxGraphModel grid="1" page="1" gridSize="10" guides="1" tooltips="1" connect="1" arrows="1" fold="1" pageScale="1" pageWidth="827" pageHeight="1169" math="0" shadow="0">
      <root>
        <mxCell id="0" />
        <mxCell id="1" parent="0" />
        <mxCell id="Y8rF0z1Dqdmwur_Qx1nJ-1" value="Start" style="ellipse;whiteSpace=wrap;html=1;fillColor=#d5e8d4;strokeColor=#82b366;" vertex="1" parent="1">
          <mxGeometry x="40" y="40" width="120" height="50" as="geometry" />
        </mxCell>
        <mxCell id="Y8rF0z1Dqdmwur_Qx1nJ-2" value="Collect inputs: User task + skill_manifest + BT exemplars" style="shape=rounded;whiteSpace=wrap;html=1;fillColor=#dae8fc;strokeColor=#6c8ebf;" vertex="1" parent="1">
          <mxGeometry x="40" y="120" width="300" height="80" as="geometry" />
        </mxCell>
        <mxCell id="Y8rF0z1Dqdmwur_Qx1nJ-3" value="Embed skill_manifest into vector DB" style="shape=rounded;whiteSpace=wrap;html=1;fillColor=#dae8fc;strokeColor=#6c8ebf;" vertex="1" parent="1">
          <mxGeometry x="40" y="220" width="240" height="70" as="geometry" />
        </mxCell>
        <mxCell id="Y8rF0z1Dqdmwur_Qx1nJ-4" value="Task decomposition by LLM: propose BT node sequence with retrieved skills (RAG)" style="shape=rounded;whiteSpace=wrap;html=1;fillColor=#dae8fc;strokeColor=#6c8ebf;" vertex="1" parent="1">
          <mxGeometry x="40" y="320" width="340" height="90" as="geometry" />
        </mxCell>
        <mxCell id="Y8rF0z1Dqdmwur_Qx1nJ-5" value="Ontology-based dual-graph validation (control-flow + data-flow)" style="shape=rounded;whiteSpace=wrap;html=1;fillColor=#dae8fc;strokeColor=#6c8ebf;" vertex="1" parent="1">
          <mxGeometry x="40" y="430" width="340" height="90" as="geometry" />
        </mxCell>
        <mxCell id="Y8rF0z1Dqdmwur_Qx1nJ-6" value="Valid?" style="rhombus;whiteSpace=wrap;html=1;fillColor=#ffe6cc;strokeColor=#d79b00;" vertex="1" parent="1">
          <mxGeometry x="40" y="540" width="120" height="70" as="geometry" />
        </mxCell>
        <mxCell id="Y8rF0z1Dqdmwur_Qx1nJ-7" value="Feedback to retrieval: update sequence, repair nodes/order" style="shape=rounded;whiteSpace=wrap;html=1;fillColor=#dae8fc;strokeColor=#6c8ebf;" vertex="1" parent="1">
          <mxGeometry x="220" y="540" width="300" height="90" as="geometry" />
        </mxCell>
        <mxCell id="Y8rF0z1Dqdmwur_Qx1nJ-8" value="Emit valid BT skeleton" style="shape=rounded;whiteSpace=wrap;html=1;fillColor=#dae8fc;strokeColor=#6c8ebf;" vertex="1" parent="1">
          <mxGeometry x="40" y="650" width="220" height="70" as="geometry" />
        </mxCell>
        <mxCell id="Y8rF0z1Dqdmwur_Qx1nJ-9" value="End" style="ellipse;whiteSpace=wrap;html=1;fillColor=#d5e8d4;strokeColor=#82b366;" vertex="1" parent="1">
          <mxGeometry x="40" y="750" width="120" height="50" as="geometry" />
        </mxCell>
        <mxCell id="Y8rF0z1Dqdmwur_Qx1nJ-10" edge="1" parent="1" source="Y8rF0z1Dqdmwur_Qx1nJ-1" target="Y8rF0z1Dqdmwur_Qx1nJ-2">
          <mxGeometry relative="1" as="geometry" />
        </mxCell>
        <mxCell id="Y8rF0z1Dqdmwur_Qx1nJ-11" edge="1" parent="1" source="Y8rF0z1Dqdmwur_Qx1nJ-2" target="Y8rF0z1Dqdmwur_Qx1nJ-3">
          <mxGeometry relative="1" as="geometry" />
        </mxCell>
        <mxCell id="Y8rF0z1Dqdmwur_Qx1nJ-12" edge="1" parent="1" source="Y8rF0z1Dqdmwur_Qx1nJ-3" target="Y8rF0z1Dqdmwur_Qx1nJ-4">
          <mxGeometry relative="1" as="geometry" />
        </mxCell>
        <mxCell id="Y8rF0z1Dqdmwur_Qx1nJ-13" edge="1" parent="1" source="Y8rF0z1Dqdmwur_Qx1nJ-4" target="Y8rF0z1Dqdmwur_Qx1nJ-5">
          <mxGeometry relative="1" as="geometry" />
        </mxCell>
        <mxCell id="Y8rF0z1Dqdmwur_Qx1nJ-14" edge="1" parent="1" source="Y8rF0z1Dqdmwur_Qx1nJ-5" target="Y8rF0z1Dqdmwur_Qx1nJ-6">
          <mxGeometry relative="1" as="geometry" />
        </mxCell>
        <mxCell id="Y8rF0z1Dqdmwur_Qx1nJ-15" value="No" edge="1" parent="1" source="Y8rF0z1Dqdmwur_Qx1nJ-6" target="Y8rF0z1Dqdmwur_Qx1nJ-8">
          <mxGeometry relative="1" as="geometry" />
        </mxCell>
        <mxCell id="Y8rF0z1Dqdmwur_Qx1nJ-16" edge="1" parent="1" source="Y8rF0z1Dqdmwur_Qx1nJ-8" target="Y8rF0z1Dqdmwur_Qx1nJ-4">
          <mxGeometry relative="1" as="geometry" />
        </mxCell>
        <mxCell id="Y8rF0z1Dqdmwur_Qx1nJ-17" value="Yes" edge="1" parent="1" source="Y8rF0z1Dqdmwur_Qx1nJ-6" target="Y8rF0z1Dqdmwur_Qx1nJ-9">
          <mxGeometry relative="1" as="geometry" />
        </mxCell>
        <mxCell id="Y8rF0z1Dqdmwur_Qx1nJ-18" edge="1" parent="1" source="Y8rF0z1Dqdmwur_Qx1nJ-9">
          <mxGeometry relative="1" as="geometry" />
        </mxCell>
      </root>
    </mxGraphModel>
  </diagram>
</mxfile>
